<mxfile host="Electron" agent="Mozilla/5.0 (Windows NT 10.0; Win64; x64) AppleWebKit/537.36 (KHTML, like Gecko) draw.io/26.2.2 Chrome/134.0.6998.178 Electron/35.1.2 Safari/537.36" version="26.2.2">
  <diagram name="Page-1" id="7EJi7A918Y3aZkXJ8rEm">
    <mxGraphModel dx="1191" dy="783" grid="1" gridSize="10" guides="1" tooltips="1" connect="1" arrows="1" fold="1" page="1" pageScale="1" pageWidth="2339" pageHeight="3300" math="0" shadow="0">
      <root>
        <mxCell id="0" />
        <mxCell id="1" parent="0" />
        <mxCell id="ii2s9qY_NflXiKq1x3v7-1" value="" style="rounded=0;whiteSpace=wrap;html=1;fillColor=#f8cecc;strokeColor=#b85450;gradientColor=#ea6b66;align=left;" vertex="1" parent="1">
          <mxGeometry x="820" y="150" width="170" height="490" as="geometry" />
        </mxCell>
        <mxCell id="yIbgnXVg3pHGpFsTLpNO-21" style="edgeStyle=orthogonalEdgeStyle;rounded=0;orthogonalLoop=1;jettySize=auto;html=1;exitX=1;exitY=0.5;exitDx=0;exitDy=0;entryX=0;entryY=0.5;entryDx=0;entryDy=0;" parent="1" source="yIbgnXVg3pHGpFsTLpNO-15" target="yIbgnXVg3pHGpFsTLpNO-20" edge="1">
          <mxGeometry relative="1" as="geometry" />
        </mxCell>
        <mxCell id="yIbgnXVg3pHGpFsTLpNO-15" value="" style="rounded=0;whiteSpace=wrap;html=1;fillColor=#f5f5f5;strokeColor=#666666;gradientColor=#b3b3b3;" parent="1" vertex="1">
          <mxGeometry x="390" y="150" width="170" height="490" as="geometry" />
        </mxCell>
        <mxCell id="yIbgnXVg3pHGpFsTLpNO-11" value="" style="rounded=0;whiteSpace=wrap;html=1;fillColor=#ffcd28;strokeColor=#d79b00;gradientColor=#ffa500;" parent="1" vertex="1">
          <mxGeometry x="180" y="150" width="170" height="490" as="geometry" />
        </mxCell>
        <mxCell id="yIbgnXVg3pHGpFsTLpNO-4" value="" style="ellipse;whiteSpace=wrap;html=1;" parent="1" vertex="1">
          <mxGeometry x="216.75" y="247.97" width="88.25" height="60" as="geometry" />
        </mxCell>
        <mxCell id="yIbgnXVg3pHGpFsTLpNO-10" style="edgeStyle=orthogonalEdgeStyle;rounded=0;orthogonalLoop=1;jettySize=auto;html=1;exitX=1;exitY=0.5;exitDx=0;exitDy=0;entryX=0;entryY=0.5;entryDx=0;entryDy=0;" parent="1" source="yIbgnXVg3pHGpFsTLpNO-2" target="yIbgnXVg3pHGpFsTLpNO-4" edge="1">
          <mxGeometry relative="1" as="geometry">
            <mxPoint x="170" y="300" as="targetPoint" />
          </mxGeometry>
        </mxCell>
        <mxCell id="yIbgnXVg3pHGpFsTLpNO-2" value="" style="ellipse;whiteSpace=wrap;html=1;" parent="1" vertex="1">
          <mxGeometry x="29.999999999999996" y="330" width="88.25" height="60" as="geometry" />
        </mxCell>
        <mxCell id="yIbgnXVg3pHGpFsTLpNO-8" style="edgeStyle=orthogonalEdgeStyle;rounded=0;orthogonalLoop=1;jettySize=auto;html=1;entryX=0;entryY=0.5;entryDx=0;entryDy=0;" parent="1" source="yIbgnXVg3pHGpFsTLpNO-1" target="yIbgnXVg3pHGpFsTLpNO-4" edge="1">
          <mxGeometry relative="1" as="geometry" />
        </mxCell>
        <mxCell id="yIbgnXVg3pHGpFsTLpNO-1" value="" style="ellipse;whiteSpace=wrap;html=1;" parent="1" vertex="1">
          <mxGeometry x="29.999999999999996" y="180" width="88.25" height="60" as="geometry" />
        </mxCell>
        <mxCell id="b6yXM07Ue_qEpl_2mMYs-1" value="" style="shape=image;verticalLabelPosition=bottom;labelBackgroundColor=default;verticalAlign=top;aspect=fixed;imageAspect=0;editableCssRules=.*;image=data:image/svg+xml,PHN2ZyB4bWxucz0iaHR0cDovL3d3dy53My5vcmcvMjAwMC9zdmciIGZpbGw9Im5vbmUiIHZpZXdCb3g9IjAgMCAxMDI0IDk5OC43MzgwOTgxNDQ1MzEyIiBoZWlnaHQ9Ijk5OC43MzgwOTgxNDQ1MzEyIiB3aWR0aD0iMTAyNCI+JiN4YTs8cGF0aCBmaWxsPSIjMUIxRjIzIiB0cmFuc2Zvcm09InNjYWxlKDY0KSIgZD0iTTggMEMzLjU4IDAgMCAzLjU4IDAgOEMwIDExLjU0IDIuMjkgMTQuNTMgNS40NyAxNS41OUM1Ljg3IDE1LjY2IDYuMDIgMTUuNDIgNi4wMiAxNS4yMUM2LjAyIDE1LjAyIDYuMDEgMTQuMzkgNi4wMSAxMy43MkM0IDE0LjA5IDMuNDggMTMuMjMgMy4zMiAxMi43OEMzLjIzIDEyLjU1IDIuODQgMTEuODQgMi41IDExLjY1QzIuMjIgMTEuNSAxLjgyIDExLjEzIDIuNDkgMTEuMTJDMy4xMiAxMS4xMSAzLjU3IDExLjcgMy43MiAxMS45NEM0LjQ0IDEzLjE1IDUuNTkgMTIuODEgNi4wNSAxMi42QzYuMTIgMTIuMDggNi4zMyAxMS43MyA2LjU2IDExLjUzQzQuNzggMTEuMzMgMi45MiAxMC42NCAyLjkyIDcuNThDMi45MiA2LjcxIDMuMjMgNS45OSAzLjc0IDUuNDNDMy42NiA1LjIzIDMuMzggNC40MSAzLjgyIDMuMzFDMy44MiAzLjMxIDQuNDkgMy4xIDYuMDIgNC4xM0M2LjY2IDMuOTUgNy4zNCAzLjg2IDguMDIgMy44NkM4LjcgMy44NiA5LjM4IDMuOTUgMTAuMDIgNC4xM0MxMS41NSAzLjA5IDEyLjIyIDMuMzEgMTIuMjIgMy4zMUMxMi42NiA0LjQxIDEyLjM4IDUuMjMgMTIuMyA1LjQzQzEyLjgxIDUuOTkgMTMuMTIgNi43IDEzLjEyIDcuNThDMTMuMTIgMTAuNjUgMTEuMjUgMTEuMzMgOS40NyAxMS41M0M5Ljc2IDExLjc4IDEwLjAxIDEyLjI2IDEwLjAxIDEzLjAxQzEwLjAxIDE0LjA4IDEwIDE0Ljk0IDEwIDE1LjIxQzEwIDE1LjQyIDEwLjE1IDE1LjY3IDEwLjU1IDE1LjU5QzEzLjcxIDE0LjUzIDE2IDExLjUzIDE2IDhDMTYgMy41OCAxMi40MiAwIDggMFoiIGNsaXAtcnVsZT0iZXZlbm9kZCIgZmlsbC1ydWxlPSJldmVub2RkIi8+JiN4YTs8L3N2Zz4=;" parent="1" vertex="1">
          <mxGeometry x="53.120000000000005" y="190" width="41" height="40" as="geometry" />
        </mxCell>
        <mxCell id="b6yXM07Ue_qEpl_2mMYs-2" value="" style="shape=image;verticalLabelPosition=bottom;labelBackgroundColor=default;verticalAlign=top;aspect=fixed;imageAspect=0;image=data:image/png,iVBORw0KGgoAAAANSUhEUgAAAJQAAACUCAMAAABC4vDmAAAA5FBMVEX/z2b///8AAAD/vCu+8///wSydnZ3/wy2edhv2zGVYRiMrODu67vdJXmOlpaXDkiH/wDn/1GnX19dBMxoICAjYnyTDolBSPA6Yezz1uCr/pDYiIiLy8vL/qDfOzs6K6P+SkpK+fikgNTtKSkq4uLiEhIRAQEBUVFRnZ2c2WmMXFxfrsCiLZxiuhB6BXxb/rjkuIQggFgVCMgstLS3YmSfYiS51TBn/szHlljFXOBJ0dHQ7Jg2tbyXznjSgaiIYHyGl7f+E3epsipFVbXPu///U5+ptWCxzVRIVDgN+ZjOsj0f/ylffD+W3AAADYklEQVR4nO3cXVfTQBCA4ZiYpiC0UFNoQxpTaSmWAi0KqFVBRa36//+Pu9mGDxN0dme32Yt5b+CmOc+ZppyekIzzxMKcqgFlEQoaoaDlqDgZNCQaJLFxVDw8cOUK91NzrAzVkBSJxgOTqFTJxKqZQy1N012JZuI1qSlUkh1+t92VqnlmUOXEI37wuu97UgXexJzKyQZ1EsiReL45lcPPqOmRvOlWZeBsd/bZcSeS712eqVk5ITvsscK7Z3JWDj9qU3FSps4rHMrQrJAoz69nqqFVKCOzQqNMzAqP8vyTTNWwCnU7qxayWCcqn1WI6/Vo2NKIymeFb9TSh8pnhW8v0Ydiswo1sQb6UJ7XxvTmnHWRocaxRhQq/zKKeqdv33HNe1tQnteLGCua89OqdQ8VVNplpjpfME7jDtU9rlfah49MFfHz6vAW1Z1r+vQoN2eq3if2y16O8psVk1j9XtTrs5+hjSj3IerZ6nspCh9FXW08XXnXL3ifrwilASXKX7Cxgv6LCjdFXwTp6+YKeiXiJ/pFPzot+fTlcdXGpuZPPKBp/x+ow5ubm2+yl0G1NH8cxb/+qV91RPcANa7x0loivr8P2K8qpbV0LI7+vQOv/qMctafpKrS4Ouh21rYl2gq8+swcKj7MDr2z7ci0xb7RtY2hYn4dzl1ImjjKC5qGUGpzEiivu2sEpTinJSqom0CpzmmJEn+ZNKPEnFRM5lDqczKHQszJGAozJ1Mo1JwMoXBzKkEFQZf/gRjL/Bv570Y4UxHVnZwtXB2pmwqok5kWEcpUQOkKYypHLZ4jW0eZylDrO2vYtlGmElTHwR1RQwXUz8pJRdRsrWqRU0R1LBhUAfXLRhTus6wpQkEjFDRCQSMUNEJBIxQ0QkEjFDRCQSMUNEJBIxQ0QkEjFDRCQSMUNEJBIxQ0QkEjFDRCQSMUNEJBIxQ0QkEjFDRCQSMUNEJBIxQ061H80R57blUKjl3+0CG/4deKm7q8bFJ8+8JIrFCx4Pa33xnqaMo4qVg2Y8GNguLdyx6RT5ZreTrImzTR8UH5YpnAKM4XGGm4+RQVX4rUzp5PcZP7q57WK4yvj5oKR4pcimUivrhGrA/TtesAXZitF1FdtGakg6F4nuHeSjqlZ/k0drfmzurlfVZFKGiEgvYHou/jAcQ0V7UAAAAASUVORK5CYII=;" parent="1" vertex="1">
          <mxGeometry x="54.120000000000005" y="340" width="40" height="40" as="geometry" />
        </mxCell>
        <mxCell id="b6yXM07Ue_qEpl_2mMYs-3" value="" style="shape=image;verticalLabelPosition=bottom;labelBackgroundColor=default;verticalAlign=top;aspect=fixed;imageAspect=0;image=data:image/png,iVBORw0KGgoAAAANSUhEUgAAAJQAAACUCAMAAABC4vDmAAAAsVBMVEVYtNn///84mca41DLg7vVFn8lLqtJiuNvk8fj5/P6ExuJ/ugBPsdjM5/KWzOSMyuN0wN/V6PO23O3A4O/v9/qhyB/2+utwswD8/vqv0Bi20yirzQCx0S4tlcR/vNqh0ujw993f7Ljc6qzZ6KTK33S92Uu610DC213V5pno8srl78HJ4HvT5ZHM4YbG3Gq711OTwhe62HqLwCqhy01irNG11oGXxliPwkSmznDG35Pi7s+xGJQ1AAAD0klEQVR4nO3ba3eaMBgHcKq0EARFwBtqQaxttRddZy/r9/9gEyIaAoS4keh2nv8rWh7IzxwSMByVqwuMcm5AUQDFmyLUsN8PZ1E0v1s0R0n8+4fHeRQt+/3heVDD1ePTenHv+zuL30yT/NlcLO6eo75k1DB8XI/Ho6Mllx1uPHpZCYaRqNXrPQt0yKi5ngtlHVHLxZhHhDtsNJoLvLwOqKjJTcLd9SROlaKW45NIsepFOOrltH5KVPi68sShZif3lD/BKF0ASsefdPhAd9Vkl94+8faERs3wGVxUP6rr4o3+0/ig6fU2m1Yum03C25P8CB+HOgJQ6nW6OVv7/mRSoKFsvcluqn8N90cFhhDUbXrW4ezH22BQhWoNBj+fU9KVY4pBTbfHAdQP3z/emKTPjyg8zFDIMQWhGtNrh/xX+B29f319bnCv7NNqvX18vf+afZP3F9UwFVGoRmO6denpZvf8EidcrpYh3qRmcKS2FVMRiGpMp9vgpAnHszrmjiQUFbMaW0fla0C3OhomCUbtXYFV0WGe6hxFElCJa9q43radblfVvWNrCHm6rnbdwNAUkxDJQaWyxLa9jWME7bZh21rCyXikojK46Q3dN+dF4dyUgwAFKEABClCAAhSgAAUoQAEKUIC6bJTHi/fkoSybE2UZSBbKVThRjiINFZgmH8oxzY4cFApMha+nOqYiCYWMeCmJA+XFhXJQup0sb1WjPC0plIHScVPVqC4ulNFTlrJfBqxCuekJxaOsw8pkBcpJC8WjnONqKROVjE85KNQmVnBZKNQhFubFojybXFVmoHSyUCwqa2KgMiaxqP0Ir0Ydxqd4FNVUOcqlCgWinFxhCcqhzy8O5eRfnBSjglyhKBS+A3OgvIJCQShy1mGikF1QKAala4UvvfIoenwKROlFH78I1S05oQCUVVZPowrGgiiUW1pIocpM9aNQUF6dQRWPBTGo8qayKIapblTZJZ5DlYxPESiPaSJQKrOwVlTuDlyGslgv7+tFlcw6eVT5+Kwdlb+xFqNY47NmFKo2YRRHYV2owqcCui5GVYyFGlGFDyD57FA6T2E9KJU16xzr7JKnAhEoRdM4WorrAr7CWlDc4ekm6SjOAIobVcNCLKAABag/CqAABShAXTrK9gAlAdW2siG/Z2rUPof40mDmDqwRlflZUrxIQKKofR6Jyh14JpQOKEABClCAAhSgzo9iPiVYNaLsdjY2sU+j9nXIRViDceDfopLfkBJh7Tth53/4OAwoQAEKUIACFKAABajLRGmA+tdRN1UoTXJ2FzrqVkTVZQf9BklWp/kVabHRAAAAAElFTkSuQmCC;" parent="1" vertex="1">
          <mxGeometry x="242.36" y="259.46000000000004" width="37.03" height="37.03" as="geometry" />
        </mxCell>
        <mxCell id="b6yXM07Ue_qEpl_2mMYs-4" value="" style="shape=image;verticalLabelPosition=bottom;labelBackgroundColor=default;verticalAlign=top;aspect=fixed;imageAspect=0;image=data:image/png,iVBORw0KGgoAAAANSUhEUgAABgkAAAZ/CAMAAACBUeeHAAAAAXNSR0IB2cksfwAAAAlwSFlzAAALEwAACxMBAJqcGAAAAv1QTFRFAAAA7j0s7j0s7j0s7j0s7j0s7j0s7j0s7j0s7j0s7j0s7j0s7j0s7j0s7j0s7j0s7j0s7j0s7j0s7j0s7j0s7j0s7j0s7j0s7j0s7j0s7j0s7j0s7j0s7j0s7j0s7j0s7j0s7j0s7j0s7j0s7j0s7j0s7j0s7j0s7j0s7j0s7j0s7j0s7j0s7j0s7j0s7j0s7j0s7j0s7j0s7j0s7j0s7j0s7j0s7j0s7j0s7j0s7j0s7j0s7j0s7j0s7j0s7j0s7j0s7j0s7j0s7j0s7j0s7j0s7j0s7j0s7j0s7j0s7j0s7j0s7j0s7j0s7j0s7j0s7j0s7j0s7j0s7j0s7j0s7j0s7j0s7j0s7j0s7j0s7j0s7j0s7j0s7j0s7j0s7j0s7j0s7j0s7j0s7j0s7j0s7j0s7j0s7j0s7j0s7j0s7j0s7j0s7j0s7j0s7j0s7j0s7j0s7j0s7j0s7j0s7j0s7j0s7j0s7j0s7j0s7j0s7j0s7j0s7j0s7j0s7j0s7j0s7j0s7j0s7j0s7j0s7j0s7j0s7j0s7j0s7j0s7j0s7j0s7j0s7j0s7j0s7j0s7j0s7j0s7j0s7j0s7j0s7j0s7j0s7j0s7j0s7j0s7j0s7j0s7j0s7j0s7j0s7j0s7j0s7j0s7j0s7j0s7j0s7j0s7j0s7j0s7j0s7j0s7j0s7j0s7j0s7j0s7j0s7j0s7j0s7j0s7j0s7j0s7j0s7j0s7j0s7j0s7j0s7j0s7j0s7j0s7j0s7j0s7j0s7j0s7j0s7j0s7j0s7j0s7j0s7j0s7j0s7j0s7j0s7j0s7j0s7j0s7j0s7j0s7j0s7j0s7j0s7j0s7j0s7j0s7j0s7j0s7j0s7j0s7j0s7j0s7j0s7j0s7j0s7j0s7j0s7j0s7j0s7j0s7j0s7j0s7j0s7j0s7j0s7j0s7j0s7j0s7j0s7j0s7j0s7j0s7j0s7j0s7j0s7j0s7j0s7j0s7j0s7j0s7j0s7j0s7j0s7j0s7j0s7j0s7j0s7j0s7j0s7j0s5N3JPwAAAP90Uk5TAB2dTwmA/7k0Zea4I03T+H4GO8jdVB+uCoX3rSdY5aMgM8aPDByl/lqB9cUqX5QWzA6q7nYNhl1y7C4CYeH8EFDV62MBx9FGIsAwiqbqlRM/1O9zBd5SjPnEL2b9nxn0h9JDBGq2KVGWFPBx2rNu7QssSBd/pGCLEdB1t0waniv2Em1w29lLOL2iB3rzjSgPQrDpnIJp12/cVTzo+0R5JrVTtCX6kANn1mS7oZh0mqjxjuO+y5vC56u8V5K6kdinTpeDiEpZfRXywXdHN15s3zGECHvkqc09z6yymWJ4ibGgSWi/4lzD4JOvQGsYOls+Oc58Vi0bNTIhyiRFQckeHeewTgAAwPVJREFUeJzs3Xl8FkW+LvA3ENoQESQgYDxCkANx4rBECIRhUSAqATEhBiTIJmhYRBIMyiIIKLhGGFEQBEEFAQdUVtlkVZYZESXgiCA6KiPiNkfP3DnnnvHczwVchiVd9S7V/fy6+/n+PRO7nl93FW9XV1UoRBRscRUqoi+BiIiA4itZlnVBAvoyiIgIpXKiddqFVdBXQkRECBdVtX5R7eLq6KshIiK3JdWwzlTzEvQFERGRq2rVts5Vg9MFRETBUefS5PMGgpMu+zf0hRERkTsur1veOHBKvRT0tRERkfPqX2E3DpzS4N/R10dERM5q2ChVNRBYVuKV6EskIiIH1flNmnocOOWq36Ivk4iInNLYdoLgbE2aoq+UiIickNQsvHHgpLRL09FXS0REptW6Ouxx4JTmLeLRV0xERCZltIxoHDglsRX6oomIyJjqma0jHghOuup36AsnIiIj2rRtF804cFL7JtegL56IiGJ3bYcox4FTOnbKQl8/ERHFJum6GMaBU66/Ad0EIiKKQefLYhwHTsnugm4GERFFKaNrNQMDgWWl3piCbgoREUWjcjcj48BpN+WgW0NERJHK7W5uHDgp7+Z8dIuIiCgSnc8/kyxWPXqiG0VERGHLuKWX8YHgpILe6IYREVFY2txqcILgLH369kM3joiI9AxPEJyt/8XcmI6ISLha5icIzla3bRt0G4mIyF7GAIfHgVNuG4huJhER2Rh0u1MTBOe4oxDdVCIiKs/gmu6MA6cMGYpuLRERnatLgXvjwEnD7hyEbjEREZ0p7sZUVweCk4ZzuoCISI50Q1vNReiuzuiGExHRT0YUIcaBU24pRrediIjcnSg+T7fK6OYTEQXeSHcnis93293oCIiIAq2kbx/wQGDxTDMiIqD4UWnoUeC01Hvi0FEQEQVS1r110UPAr6qNHoOOg4goeAaORXf/Z2k+Dh0IEVHAFN6H7vrPM3w8OhQiogCZcL+AieLzZU9EB0NEFBAZLSeh+3wb7W+ajA6HiCgABj3g0tbTUcl7kBvTERE57JIp6M5eY+pD6IiIiHzt4Wbojj4Mj3ClGRGRU5o+6vrW01FJbcSVZkRETnjs8VJ0Fx+2ak9wpRkRkXHQLUcjlzeuOjoxIiJ/mZaN7toj1q5VFjo1IiL/mN4A3a1Hpfvv0cEREflEm9tbo/v0aD3J8y2JiAwY2AHdn8didAY6PyIiryu8A92Xx2hG5TboDImIvKzkqfbonjx23XPRMRIReVbx0zLOJItZbU4XEBFFZWZHdA9uzuh0dJpERN5TcRa69zaq9TP56ESJiLylSwG66zZu9hx0qEREHhJXD91tO6LZs+hgiYg8onhAMrrPdkrtKuhwiYg8oM2tc9H9tYPmNclBB0xEJN1z/pooPl/pfHTERESiLXge3VG7oMdgdMxERGKNaTIP3Uu7I3siOmoiIpHyb85D99CuaT9kMjpuIiJ5XpiN7p5dlTdiEDpxIiJZutRAd82uGz4QHToRkSAT7klF98sILy5EB09EJESGf1eSaSx6aQw6fCIiARbPnIHukIGa38mN6Ygo8B7y9NmUBsx+AV0CIiKowmx0RyxAjS7oMhARwZRU6IPuhUVIbTQBXQoiIoj4UUGdKC5Hywx0OYiI3Fc5yBPF5ytagi4IEZHLcpeiu15xZnGlGREFSeGF6G5XpOenoQtDROSSkqc4UVy+eU24MR0RBUF8pf7oDlewvEyuNCMiv2vzciK6sxVuCs+xISJ/u/s2dEfrAdm90WUiInLMyD+gO1mPWMaVZkTkT0OXt0f3sJ4x6VKuNCMi/8l/ZRi6e/WUbrfzTDMi8plrp6C7Vs+Zei26aEREBk3klqPRqJGALhwRkSFDX+VKsii9loIuHhGRAfktVqD7Uw/rtZLnWxKR5/Wsie5M1VbNvBF9CWrNM9ElJCKKycTV6I5ULe/BUxe5Bn0ZajXnoMtIRBS1krXoTlSj5fSfLvSZUvSVqL3O8y2JyJviKwk/k6xRw1+vdaj0MatRHLCSRERRqrwO3XuqrT57d59/W4++II0BxaBCEhFFafwsdM+pVvP8HT8TXkdflFrHmYA6EhFFa+QGdLep1nxEuZe9sR36wtSGj3e5jkRE0ZqwDN1lamyy/UZ/vvCp4zcK3SwkEVGUMi6dhO4v1V5cqLj6nM2L0NenxPMticgDZnZDd5ZqW57TNKDzVvQlquXd6UodiYiitW0quqNUs5kgOFtCDfRlqg1/yPE6EhFFq0sBupNUa789zFcrV65CX6pa9kRnC0lEFKW4eugOUmND+P1nnR3oi9VYPtTBShIRRSfjTXTnqDHrrYjaI31cGzbOoUISEUVrRGt016g2o1PETUoQ/q6r5k4H6khEFK3BwieKS3fFR9OsS4TvqF2DG9MRkRRdhG/TYG3fHW3TWuxBX7tavQkmC0lEFKW4rano/lCtIJZ1uWOe6IW+fqXklhnGKklEFJ300dXQnaHalm0xtjBF+Eg3Y8liE4UkIorWg3nojlAtz8TRj13+iG6GGjemIyKgt4RvPV1tdLqZhg7ugW6KWjY3piMijGkXojtAjXoGz/maL3xbvbVNzbWViChMkzfNQ/d+atkjjba336Oypwv2/Okxo+0lItJZ/EARuutTu/5t423e2wzdKLUeLxhvMhGRvbeXors9tRltHWn2O8KPZs7urW8DEZERC+9Ad3lqaU9HtaI4DHV2JKMbp9SnAqcLiMgN0zfLniBIfbTEwdY3fA3dPrXS+ZwuICKnLd4nfILA8b14ksaim6j27iUOB0BEQSd9gqBmTxdCaNwO3Uy1gvdcCIGIgqowG93JqTXPzHclh+p3yt6DO7VvP1dyIKLg2f1qe3QXp9TrCUMrisOQsT8N3Vyl/hfXcS0LIgqOsgOyN2hO3WpwRXEYSobInjg/2CrL1TyIKABaJaK7NrXXE1yPpMr76Ear/fkD1yMhIj/bewjdralNvRYSS5LwVccfdobEQkR+lFIb3aWpNX9mECiZrHcOohuv1Gv0dFAyROQv6Q0WoTs0pXmbJgPTqVNJ9tRxx9t5jg0RxSxT+Fk0hxeCA+q3DB2B2pbB4ICIyOvmzEZ3ZGpbbkAndFL9AnQMahvM7s9NRMGSUAPdiam13ifk1ccc2Wea9bnfya2YiMjPUraiezCNJwRNh84vRaehlLzDqe1ZicjPcjbLnii2aqegIzrL0COyV2AnftQGHREReUzZ0WHorkut6l50ROeZuAEditrSXHRCROQpbVehuy21Ge+gEyrXRVPQwag9vwCdEBF5Rm5VdJel1n+U1Jfeg0bIPr2h/fLd6IiIyBNGXoDur9T69JX8Iczkl2RvTLfngNRRlIjkmNAX3VdprJZ+avuCw+iI1Oq2RSdERLJlDJiE7qjUZo1HRxSGgd3RMalV5dQxEdnb1xHdSakV3Y5OKExLZJ9pZt1XiE6IiIQaOAvdQaklD8hARxS2jFt6oeNSar9W8mQLEaEsfB7dO6ml3jMBHVFEOj+JTkyt/6hidEREJMzkTbI/ebFqdEFHFLFc4dMFiS9z1TERneHO5uhuSa2mN3dWvlX4dMHSt9EJEZEYDwmfIOj4AOpMslhldJU9XWDdMQ0dERGJME34djnJH3tnovh8KVtT0QEqYU98IyIZJg+RvYVmaqM4dEQx6iL8HBvcKdBEJEO+9LMpC7w3UXy+i5aiY1Tb8hA6ISICqjgc3QmpbamITsiMxbeuQ0eptmEiOiIiAhn5CLoDUms+Ap2QOcU70tBxqi0fio6IiABK1qI7H40Ggs6mNGD3dnSgaqXj0AkRkdviKyWjux61w/47VKXwRXSoajV7ohMiIjdlta2L7nbUhg9ER+QI6UcAFUjf8ZuIzEkS3iHlPejX7xqzGh9Eh6vUp0JTdERE5Ioqn6D7G7X2Q/y81qnsQCk6YKXSA2XoiIjIcWM2LUJ3NmrZft//YPdy2Wv52l2OToiIHCZ9Jdlwn6wgUCq8Dx2zWo2H0QkRkYMumY3uZNRmzFyMjsgd0s+3bNQQnRAROaT+VegORmO/l7eai1Dluei01XbwHBsiP4q7UfammH3+4q0zyWJVvF/2io51twbk9xlRgKR3rYbuWtSyR6Ijcl3DRrLH5lkXoRMiIpMGjRB+eFbVT9ERQdSvgQ5erUYCOiEiMmbOFHSXojajEzohmDnt0OGrra+CToiIjEgQ/g/P/pXi0REBPTZ/D7oASos256AjIqKYxb0m+2V0+7Ul6IjAmj7VB10EpRXzueqYyNvSbxE+UXxfIToiAXoLP9/yYNs26IiIKHrSVxR3fw6dkBAbhU8XzHobnRARRUn6iuKDbbPQEYnxWIsV6HKo3ef37aCI/ClB+IritF1Bnig+39Ah6IpoNOH5lkReI31Fcfsju9ERiVN4B7oqasNeyUdHREQRKG4peycD6w7/nU1pgvQzzWbzfEsiz2hzq/DdzZbmoiOSSvyxojzfksgjcpeiuwu1uh/xm0R78Rf3RxdIKfUv/dAREZHWAuEvm/uP4kSx2u61ss80639xHXRERKQ09Ai6n9BYxn9R6o38A7pManVboRMiInvVxw1DdxJq2VxRHJ67O6BLpdZsLzohIrIxpwe6g1DrHsytp6Oy+PaO6HKpvV8LHRERlaOL8M1rim5FJ+Qt14xGV0zjTZ5vSSTNhHrojkGjZYDOKDakc2100dS6fYZOiIjOlDFA9kqy1Bvj0BF5UtJYdOXUunNhCJEYi2fOQHcJamt4CGKUstomooun9slCdEREdNrgWejuQG3VHHRCXlankuyfe1aD6eiIiCg0MhvdFagNe6U6OiKPK6kg+0yz1vsWoyMiCriS+2X3EvOa8BTc2BUKH+2X3o1OiCjI4qW/OeCWo4bcIHyl2RtcMkgEkvWR8NlEbjlqTpuX16HLqTSvyWR0RESBJH0v+xlLuOWoScW/SUOXVCnvwUHoiIgCZ5rwLUetllyBalq/Zeiiqs2uiE6IKFjEn3m7lSvJnND7c3Rh1R6ZiE6IKEAyhW85uuZhdEK+VXE2urhqa3k8NZE7BgvvDI79NQsdkY/l35mHLrDSngNl6IiIAmCi8G/L++9iT+CsyU3moYustKox/yVA5KymFdDPuUaFEnREATDtPnSZ1bo/h06IyM8eO7oH/ZCrFfRGRxQQA4XvNXUHV5oROWVjO/QDrtZuIzqhANlXhC632lr+OCRyQm/hZ5KVPv4YOqJAyXizGrrkSv1HxaMjIvKdpn1T0Y+2Uur9TdERBU7cjbLvicROXGVOZFLZAdk7DVhfvIeOKJAShP9O7DAenRCRj+w8hn6k1Y5fgk4osHrWRBdf7Q8j0QkR+cTeNejHWY0TBEj5dzZH3wBKfbjqmMiAKuvRz7LGWk4QYI1Zib4F1NJ2ceqYKDY5X6KfY40T/HAcr0pt9G2gVrctOiEiLys7Kn2ruSR0RHRarvCVZlV5oxBFKauV8JVkw+egI6JfLP6sI/p2UDvMg0yJovHVIfTDq9ZtCTohOtM1m9B3hMaRoeiIiDxnwYvoB1et/294Jpk0C+9C3xVqw8bxIzOiSOxe3h792CrN285PAyWSvjFdDy48IQpb/K5S9COrdlkVdERUvsVft0bfHGoF9dEREXlE40T046rGsyklGyN9uqBeQ3RERB6QVBX9qKqt4tmUwi08jL5H1CY9zSkmIrWUJ9HPqVraKJ5NKd/A7uj7RC2xLf81QWQvvcEi9EOqlPpoP3REFI42lWeg7xW1sbnoiIjEGiH8GCrO9nlH+gD03aLxZGd0REQijRf+BeBxnk3pKbWuRt8xar1uyUBHRCROYTb6yVTj1tPek9QMfdeodfuMZ5oRnSnnCPqp1KjwDToiisI769A3jlrVgeiEiARpIXwl2ee90QlRdOrsmoS+edRqc7qA6CdzeqAfR7Wp16ITouj1q9AHfQMpLXpiOjoiIgG61EA/i2pFzwxCR0Qx6S18CqrjzMXoiIjA4hqhn0ONzdegI6KYVRyOvo3UOjyHTogIKf3jZPRDqPZhCjoiMmHQPuEb0z3Pc2wosPJHCH88D+1FR0SmTL+lF/p2Umq/PQcdERHEztnop08t8Up0QmRS563oO0qt9AA6ISL3JaxBP3lqex7nVnN+s1f4eajtdnJjOgqWKrXRT51GBZ5J5kcbj6FvLLU136ITInLPmM2ytxzl/J1vVT+6An1zqfEbBQqK6i2GoR83tarcMdjHcobIPiK71xPp6IiInJf1XTv0s6a2qjFf1vrbgufR95ha0Z356IiIHJYkfNKOE8VBkLsUfZ+p9djIf42Qny0UfjaltYkTxcHwkfAzzdbwDSX51nThZ1Nan3CiODDiR/VH325qvBnJnwY9IH1FcRI6InJTyVOyNyltv5w/UMl/3pJ+NuV3fDUbNOLPybs4Hh0RkVHTNqCfKrU986ujIyKAt7uj7zy1xMrcsJr8Y+h22Z9w93mVv8MDanHluei7T6373eiIiMzIHyd8JVl2IToiwil+Wvj5lrw9yRc21kQ/Smo1L0InRFgT+qLvQY21/MlKXte7AP0YqbUewbMpaaTwu7T0ANc7kpf16yv7Q71FDbjHC53ykPBVx6ta8dM28qr4UcLfwK6vgo6IxFjSEX07qh36Gzohomi0+agu+uFRq8qVZHSG4v3C/+Fygv9wIe95TvhKshmV0QmRNOKnjhtMR0dEFJHC+9APjVrab7h6k84nfeq442dcaUbesXst+onR6NsPHREJdVEP9M2p1mEgOiGi8Ijf5bFgJDoikiv/ZuELIT/pjI6ISE/8RPGWbeiISLahrwr/9vmWDHRERBrST4Nq/QBXkpHOROHTBd1ubYOOiEhB+kRxr1u4kozCccm76HtVrTvPNCOxdq+VveWodXUcOiLyiscOCJ/t+mQhOiKi8sSPSkM/HGrN/gMdEXlJv2XoO1aDqwtIoLbCjwhf1QqdEHlN/avQd61a8zvRCRGdLakq+qlQGzaOZ5JR5F4QvqX6lvHohIj+ZcFd6CdCbd6XY9ARkTfl39kcffeqZU9ER0T0k5yb5qEfB7UnuXMXRW3MykXoG1ipz6tN0RERnfTKCvSzoPY9txylmFSpjb6H1dIeRydEtPM4+jlQO/ZXnvBBsdq7Bn0fqx3fybuckKQ/IXvm89Q/MmGj8JVmh/aiE6LgStmKvv81tuegIyLfaFGKvp3VtqagE6JgSl+Jvvc1Di9AR0R+krMJfUdrdOVWKuS+TOFf1225AZ0Q+c2CE+i7Wq0oE50QBc21w9F3vVrRPp7tROZJX0E5tSI6IQqSkZ+j73iNBlxJRs64V/iuKtld0AlRUJT0lX2Qh/U8d2kkx8RfLHuT0tR7uOMuuUD82ZSzeNArOarkKdn/FEp+k2eakdOkbznafB86IfK/wg3o+1ytaAQ6IfK3vcInzOZt5pbt5Ia3hJ/Syqljck6K8P1XOEFArll8e0f07a5Wg1PH5Ij0l9D3tsYsriAgF00fjb7jNRo1REdE/jNoRBH6xlZLfLkNOiMKmM5Xo+96tUm/qYOOiHxmm/CVZGk/xKMjogBK+jP6zler2xidEPnJROGfSrRfuxsdEQVT1s526LtfrVl9dETkF0OXo+9mjRcL0RFRcJXNT0M/AGrL+qEjIj/IHzcMfSurVc1FR0TB1lT4SrP+P/CUDopVxZro+1iNL0IJr4vwjbiO7UQnRN7WOxt9D6vtOcB/7ZAEFaegnwW1NTzNm6JW0hd9/2oc4UQxSZGZh34c1A7/Gzoh8qbH5u9B37xqd/FMMhJkcpN56EdCqf12/sOJIvef0o/w5s9dEmaa8K+tS0cVoyMij6n/BfquVUtshU6I6HyfzkI/GWodZ6ITIi8pWYa+Y9VK/8SJYpLpZeHbtm/Zhk6IvKJ4h+ylMvO+zEFHRGRH+plm1oZp6IjIC9q8nIi+VdVOVEFHRKRScqQ9+iFRan/TZHREJF6u8BM41uxFJ0SkU/g8+jlRy3twEDoiEm3Bi+h7VO1drpUkT8gVfrrf1PHohEiunCbo+1Ot9GZ0QkThekf4W9Y3OF1A5WshfKu55VwYQx5SdrQU/ciocbqAyrGxB/rGVMueiE6IKDI522VPHTd/htMFdLaENei7Um32YHRCRJFbIHzqeMun6IRIkritqehbUmnFuHx0RERRkf4xHlcX0C8yPk5G345KfV4dio6IKFptPpI9dTxvE6cL6JSvW6PvRbXP/45OiCgW8ZVk/1Or+Qh0QoQ3eDj6PlTjBAF5X8n9ss+3HN4TnRBhdamBvgfVOEFA/iD99D+u3Q8y6RPF84ZwqznyC+nnW9bmfl4BlT66GvrmU3uRZ5KRj+QLP99y3k1cuhlEXxeh7zy1sV+hEyIyK2c7+qlSS7s4Hh0RuewF4T9VD96bhY6IyDjp51smdmqDjohclCB8orh0F/9tQv70dgf006VWlauOA6PWVvTdpvEq31eSf+0TvoBnQ290QuSGjI+FTxRfWIiOiMhJ01+ah37IlFKXTUBHRI6bKXyieNYN6ISInLbwAvRzptGyDjoictQNwlcUd6yMTojIDduEbwK/rjE6IXLOgvvQ95fapB3F6IiI3JGfKfxgqBo8EMSncobIPjYj9VG+naQAGXpE9mZEfYZwk1Ifyh8n/J8gBSPRERG5q3cB+qlTK/qMqwv8Zue76LtKrea16ISI3DfnOPrJU7ttPDohMkn6lqNFPE+Vgin/gY7op0+tgJuU+saEerK3HO21Mh0dERFKxv409BOo9iQX+PhC8f5J6FtJ7bIUdERESCVrZX/L0advHDoiilnldej7SG1sEjohIrTCE+jnUOOJDHREFJPcpehbSO3YX7nlKFEolLQG/Syqzf2IT6p3Fd6Bvn/U0naVoSMiEqLnbPTzqPY9f717VM5y4W8f7+eWo0S/yh+3B/1Mqm1tiI6IIld2oBR946h9zr1vic5SUgH9VGrs53YwHpP1XTv0TaM2/Fp0RETy9Ba+8mfurYvREVEE9h5C3zFqze/MR0dEJNLOVeinU63DW+iEKFyda6PvFo2buLMVkY06T6OfTw2+1/WG9AboO0XjxAJ0RESS1Xof/YxqVBiKjoi0MpujbxO17gPRCRFJ97dm6OdUbcU4dEKk9oLwb5IPtuX6FCK9jTXRz6ra7IrohMhegvAPD0p3xaMjIvKG/Gdao59XtYIu6IiofHGvoe8NtfbLuZKMKGwZA2TvHZl6Ywo6IjrfNZvRN4bGHdPQERF5y/9Zhn5qNTaPQUdEZxs0QvhPyarctIQoYoX3oZ9ctY4831KUOcInihNboRMi8qaBHdBPr9ptf0MnRL/o8jr6blArPcotR4mi9VE39BOsdnUKOiE6RfwylCNchkIUg+Id6GdYY/M16IgofTT6LtDgimKiWDUUPnXcOhOdUNB9LXyi+Pqv0AkR+UH9AvSzrHasEzqhIHthCrr+aok88Y7IkMHCPwv58+/QCQXVP65A114tuRJXFBOZk7kC/UyrNYlDJxREKVvRddfoW4KOiMhfhgo/06wHOqDgSe+KLrrG6pHoiIj8p7fo6QKOBC7Lv7MIXXO1qdyokMgRks8040jgrp3H0RVXyxuBTojIt+rIXV3AkcBN9YVvPb1o5XR0RER+1vBq9ENugyOBeybUQ1db45Mq6IiI/C5pDfo5L1dNdC6BUTYqDV1ste656IiIAiBrYw/0s14O/iZwyXfH0KVWm7GEW9QSuSL/QXmfjXAkcMXe69CF1hidgY6IKDjkfUrOkcAFDRulouusdllndEREwRJXT1anwJHAcXV+gy6yxqFn0RERBU+Xz9FP/pk4Y+y0VnXRNVZb1xadEFEwVRS0MR1HAmc93AxdYY0dxeiIiAIrcxi6A/gFRwInpXyIrq9a6j0T0BERBdnQ7e3RvcBPOE/gnDGbF6HLq1ajCzoioqCbuAHdD5zGkcAp1cfloYurNvsFdEREFApdNBXdF1gcCRzTSvhWc3ueQSdERD95EH+ODecJHLH3ELqwaos2j0FHRES/mPzlPHCXwN8EDqiyHlxVnfXcao5IlGmHsX0CRwLjcpqgh3eNqknoiIjoXANnIXsFjgSGlT2Of+WnlPgOOiIiKs/tzXH9AucJzGqViKtlOEoPlKEjIqLyTR8N6xk4EpiUJHyieN5NOeiIiMhe3P19MH0D3w6ZswA856P1JCeKiYQrxHQjHAlMyRkifKL40F50RESkl4Q47pwjgRllB0oB1YvAqivRERFReK4d7noHwXkCI9qucr1yEdlzMzohIgrfrd1c7iI4EhggfaJ40UtcUUzkKcUDqrnaSfDtUMwWPOlqxSLHFcVE3lPrfTd7Cf4miNH0TcInirmimMib9rp4zhV/E8Rk8det3atVNBI/ykJnRETRyfqraxOQHAlikQvdKURv0n6eTUnkYWW7+rvTV3AkiF5n4RMEqY14NiWRx/X7S6obvQVHgmgVD3CjPjG4imdTEvlA/S9c6C44EkQnq+06F6oTg+OXoyMiIjMuedfxDoMjQVS+/d7xysQk7Sg6ISIy52iaw13GbHQLvahhI4erEqsju9EREZFJTSs422c0QzfQezIGTHK2JrHKLkRHRESm9S5wrs/o8wTPLYlQ/oPCVxB0fxsdERE5wbHpghdHopvmORt7OFQLQ7p1QidERE454MR0waFn0c3yHOlbzSW3zEBHRETO2f3lIsOdxoyXuQ1BhArvMFwDw1JvjENHRETOqmJ0Yzr+4zFiE/qCDhgN15oEdERE5LwEY1PHqfW4DUGE0qWvKD4+Bx0REbnjoSlGOo3X66Mb4jn7hH8wtCcTnRARuScz9qnj4y+gG+E5by810Fk7aeVkdERE5KZvlsXWZ7R+Bt0Cz1kofKLYqp2CjoiI3LZ3bPR9xrAf6qAv32umv2Suy3bEWH4MTBRIlTtG2WmM5kuECA0aUWS02zbu+JX8GJgooIr3R7PzzYf82jxSbwk/k2zF0eroiIgIZ0K9SM+xObQXfc2eM+1CR7pvczbloCMiIqwuqyPpM2a0RV+v54xp4lQHbsiJKuiIiAhvfNVw+4zkXfHoi/WcFnuc7MVjNzYXnRARybBxdlidxrIS9IV6zk7nT4uLyarv0AkRkRxLhmk7jesfRl+k5ySscaEzj8GwP3GimIjOkHNEvS/ajI/4lWGE4l5zqUOP0qIvOVFMROf4rz/bdxqt5/87+vK8JqNrNfc69WjU5kQxEZ0v697E8vsMjgORk76SrBlXFBNR+YrL3TL5pnT0dXnO4Klu9+yROX45OiEiEiyu77mdxlROFEcq4Y+I3j183HqaiDR+e+LMTmPdPvT1eE5no4fCOWDzGHRERCRf7m2/9BnrbkVfi+eMWYns5MOwNQUdERF5w5JupzuNITyjOEJlf9Kvy4D64h/oiIjIM+IPWNYFnCCIVNtV6J5erWZPdEJE5Cn/za9LIjXwenRPr7aCx8wRETlqwYvonl6t/U08XoiIyEk5N81Dd/Vq2dPQERER+Vr1ccIniqdUREdERORv/9kD3dOrrRiXj46IiMjXpG893WftUHRERES+1rAeuqfXyJ6IjoiIyNfKKk1C9/Rqw7mCgIjIUZcfQ/f0ah0fGISOiIjI13oXoHt6tWofc7cQIiInDV2rPu4TLbVRHDoiIiJfG3TzCnRXr1bQBR0REZG/zRmO7unVal6LToiIyN/2Cp8gKPoanRARkb9VqY3u6dU4UUxE5Kzd22VvNZd6IyeKiYicVDyqFN3Vq9XgRDERkaM6rUP39GrHuaKYiMhRudeje3q1okx0QkRE4tw73eAf63wC3dNrNLjGYGuJiHwhd7g1t7GpP5YxGt3Ra6xPMdVUIiK/aNjodAc59W4jf+2zjth+XmfsB0aaSUTkI5P/9U/4yybE/NcGdgd28mFY9U6WgcyIiPykZGXaGf1k6bjYtmZe8Dysiw9L8sXxhnIjIvKNo+f2lbN+H/0fm7xZ9kqyPveXmEuOiMgfvt1STn95x8go/9ozwrccze5tNDwiIh8osTtWuG800wUbhW852uMF4wESEXlc/Kg0215z0sVlEf618VVd7NSjUDrOkRCJiLys8gxlz3lwZyR/LCHbpQ49Wmt3O5UjEZFXDbxN23nWeDjcPzbtQxf68lhsmOhklkREXlT4Ylgd6NaUcP7Y5CYO9+Oxqsmt5oiIzrF7e9idaNd07V+7U/gHQ0UjXIiUiMhTynbZTxSfL2+f+q9tE/7BkLWfZ5IREZ2j7cEIu9Klz9n/sYUXONJ7mxPV57BERL72wdgoutPaNkc8Zrwke0WxlR3tEjkiIt9KuSy6HnXS0fI2I7q1tdl+27Sl410PmIhIuGu6Rt+rTv3buX9tTnn7VAhSdDsiYyIi0TKLYupZ7/nmzD+W+38NddhO2WzyBDYiIl9o3C7WvnXF0X//5Y8tkH425VabmQ0iouAaP8tE/9r8wdN/bMwRE3/MQc2+BcdNRCTOwwWm+tg1XU7+ubqm/poz2n2HzpuISJr/Mfoq58VQyOSfMy4vE503EZE0GU8Y7mrLRI8Em8egAycikqZyN9N9reCRIPUeThQTEZ0jqbv57lbuSLC6CzpvIiJpar3vRH8rdSSoOQedNxGRNMUDnOlxZY4Eze8sbz8MIqIgW7xEfTZl9CSOBPM2caKYiOgcb3VwrNcVOBKcqILOm4hImpEbHOx2xY0Eh5LQeRMRSVNyfx8nO15hI8G7O9F5ExFJU2dUsrNdr6iRoPkz6LyJiMRpm+h05ytoJJj3JbeeJiI6R1I0Z1NGSM5IsGEaOm8iImk6O7KS7FxSRoKag9F5ExFJk9G1mis9sIyRIO0oOm8iInEqd3SpDxYxEjzVFJ03EZE0/3RuJdm5BIwE2RPReRMRSVN4gYvdMHwkGH4tOm8iImlKnnJ0Jdm5wCNB0TPcao6I6Gzxlfq72xVjR4Ku16ADJyKSprLjK8nOBRwJUm/kmWREROfIXep+d4wbCR7hmWREROeY9iKiP0aNBGPfRudNRCTN0JswPTJqJFhWgk6ciEiYccMwHTLu7VDy/gx06EREgvScDeqOoTPGRSPQuRMRSdH7c1hnDP6KdGpFdPZERBI0dXcl2bnAK8u++C90/kREcPPToD0xeiSwUpc1RJeAiAhq53FsP4wfCU7aUQddBiIimG+boTthESOBdbBVFroUREQQcVeje+BTJIwElvXn/0BXg4jIfeld0b3vT2SMBJZ1Yz90RYiIXDaiNbrr/ZmUkcBK++ExdFGIiFy0bQu63/2VmJHAso5fgq4LEZFboCvJziVoJLCs1SPRtSEicsOEvuj+9iyiRgKrz7IJ6PoQETmt+NJJ6N72bLJGAsua1JIb0xGRry2eOQPd055L2khgWd328WhjIvKviwBnkunIGwksa8o2dKWIiJwxcjW6hy2PxJHAsjZMRFeLiMi8CY+morvXcskcCSxr7W50xYiIzCrej+5Z7UgdCazS+eiiERGZ1Kkbul+1JXYksKzjV3JjOiLyi6Sx6D5VQfBIYFmHctG1IyIyoXNtdH+qJHoksKznC9H1IyKKVUbXXujOVK0s1Bx9CWprueqYiLztVilbjtoqC03/En0Nasn7eaYZEXnXj7ehe1G9spPXWXgh+irUEtty6piIvKnzk+geNBxlp6/1n93R16F26CtwMYmIojCmAbr3DM9PI0Eoa2dN9JWoneiMrScRUaSqj8tDd51hKvv1mvetQF+LWoPpwIISEUWqVTt0txm2f40EoclN2qOvRqnomXxcSYmIIpJ7CN1nRqDszCufWIC+HLXZL6BqSkQUicI70P1lRMrOvvo5wn/NXJWAqSoRUfhKnkL3lRE6ZyQIPTZ/D/qS1K5OQdSViChcxfvT0B1lpM4dCUKhb2QdtHy+myYDSktEFJ4lcrcctXX+SBAK9f4j+qrU9rQo76qJiPC2bUH3kNEov0/tKXx1wbHGbVyuLhGR3rQN6N4xOjb/un6shfDVBdff7W59iYh0hg6R/Sm+Pdv3LEOP9EFfm1p2FzcrTESklv/KMHS3GDXFG/e/v4i+OI0bU1wrMRGR2kbhL9WVlHOvf/tf9OVpcAcKIhKhdza6O4yJ5iucbR3QF6jW+oFB7pSZiMhWv76p6M4wNtrvMRsfQ1+i2tSH3KgzEZGdsosnoTvCWIXxZf4rpeiLVNsw0flKExHZ+G4VuhOMXThrtIa+Kvszoj5rmzpeayKi8uxthu4BTQhvte5E4ZMhpQe46piI3FfrNXTvZ0a4PWjPHugrVUts62i5iYjOUzwA3fOZEva/pcUvmjiU5GTFiYjO1ubluehuz5gI3qqIX3V8oopzNSciOktud3SXZ1BE79eln2m2aPMYp4pORHSGhZ+g+zujIpxplT5dkHdzdWfKTkT0q+kNFqE7O7Mi/ebmsaPCVxf0+E9HCk9E9LP8zCJ0R2da5F9fNq2AvmaNZt86UHoiop/sPI7u5MyL5jv8/xK+usBan2K69EREp32wBt3BOSG6FVkXzUJft1qvBpw6JiLzqjyJ7t2cEeXa3MUzhZ/Z3Dwz3+wNQESBlzNkHrprc0jUuzRkXCp8972anDomIoPKftiD7tYcE8N+PROWCd+Re81ec/cAEQVbm48Oors0B8W0c1uXz9GXr/FhLVN3AREF2g23obszR8W4h+e2KegGaAyoY+Y2IKIAK7wA3ZU5LNbdnAfta41uglrdVllG7gQiCqqS+4XvuRa72Pf1n35LL3Qj1JpxuoCIolb8dBq6E3OeiRNeOn+IboVa6j39DLSSiAJo8a3r0D2YG8yc9ZUk/Py2tF0804yIIveQn7aeVjDVQ7YS/oHVscsNNZSIAqP3anTP5RZj/1YuOyr8TLMaCaaaSkRBMOEvvp8o/pXBtyY5m4Xv2H11irnGEpG/FUvfRsEoo+/Pq9RGN0dj82STzSUi31oifGs1wwzPpCbUQDdIrXkmzzQjIp1c4dstG2f8m5prp6KbpNZjo+kWE5G/dPbXGcXhcODryhHCf1U1SzLfZiLyi/TR6D5Ko9275v+mE9/ZZzxh/jqNWv8/DrSaiPzgVuEb6BTNDL1o/q86s+Jq4WHzV2rUlzmOtJuIvO1vh9Cdk0aFk32XZ0aCUGjgcPPXatKwFpw6JqKz1RK+c471xnunLtNDI0EoNG6F+as1adWVjjWdiDyoeD+6V9L4369+ulBPjQShoU8JX6B3iJuUEtHPsu5NRHdJauve+eVSvTUShELvXWf+go06vNDJ5hORZzwsfBtNa1P6r9fqtZEgFLpS+oauTTh1TERVLkN3RRonpp1xtd4bCULxFws/5GHYKw4nQETC7T6C7oc0rjt7EZQHR4KTIS9vb/6yTTp+Oc+3JAqu+B/2oDshtakvnHPFnhwJQqEF0lcXcOqYKKjavFwX3QGprchcfO41e3QkCIWSpK/W+DDFlRyISBbpZ5KlPtr0/Iv27EgQyrryuPlrN6nXyjHuJEFEYnQpQPc8Gt3LfV/h3ZHgpBbC38XtyXQtCiISIKUeutfRKNpX/oV7eiQITb7J/OUbVbOne2EQEdbkzegeR2fzdJtL9/ZIEAp1ln6m2Rdd3IyDiGDG5aG7G42tKbbX7vWRIBRKGmu+CSalNmrobiBEBNBzNrqv0ViToLh6748EoVBj6auOBxS7HQkRuar3anQ3o1HzcuX1+2EkCNWpJHzV8dzKbVwPhYjc0lT63phzvx6kboEvRoJQqN+yVPMNMan7QEAqROSCx45K/4rxYu1rCZ+MBKFQfelf8d4xTd8IIvKcOT3QnYtar81hbIrpm5EgFLpEeD2sIUNByRCRU3q/ju5YNN5PCacZPhoJQqFxwn+jlc6HRUNEDmhaAd2raGz5MbyG+GokCI3ZZL45RrXbiAuHiMwqmy/8W5UVNiuKz+evkcADm5Rep/qml4i8Y+cxdHeisX1y2G3x20gQCuUK3wjQepQrzYi8L+EqdFei8fnICFrjv5EglPXOKvONMmnS03XAERFRbOK2ovsRjSmR7Xnmw5Hg1IFBpeabZVLde3mmGZF3ZbyZjO5E1PIy8yNrkS9HglDom7Xm22XU939DR0REUZrZDd2BaGwKYwXB2Xw6EoRChdnmW2bUZZ3RERFRFD7tgO48NF6sEnmjfDsShEJvzTLfNqOeyEBHREQRKrwA3XFozIpqZxsfjwShUOWO5ltnUscR6ISIKBK7X0X3GhozPoquYb4eCULFTwtf+LGlIjoiIgpX2ePStzHYFR9l0/w9EoRCJfcL3y22Bs80I/KErCvbobsLtfbLd0fdOL+PBKHQSOFTx6mN4tAREZHW3kPovkLj8IIYWuf/kSAU+lT4quNqH6ejIyIipSon0P2ExqGkmNoXhJFA/tRx60x0QkRkL+dLdB+hkXhljC0MxkgQKt4hfElgzTnoiIjIRgvhmxYk74q51w3ISBAKTVhmvqVGfcFNSokkaiV9y9G1/WJvZGBGglCofg3zbTXqNU4dE0mTJH2iuEYkW47aCtBIIH878WpvctUxkSRVPkH3ChqzXzDT0ECNBKGyXf3Nt9ekbjMXozMiop/l3DQP3SWoDXslwi1HbQVrJAiF+j2aar7FJnX4FB0REZ1SNn8FujtQm/dlxFuO2graSBAKJVxhvslGvVGIjoiI5E8Un4hlJdm5gjcSyJ8uaP9q9GvGiciEBOkTxVVjW0l2riCOBPKnC0oPyA+RyL/irkb3ARqr3jF87GEgR4JQaEI98+02atV36IiIgir9FvTzr5H2g/FeNqAjQSjUpcB8y42KcRsRIorKYulnU7Y/4sDr48COBKHQQ0vNt92oT0xOCBFROHKnoh98jeyJTjQ7wCNBaPGSueZbb9K8IZw6JnLTgvvQT73G7GudaXiQR4JTG9OZb75RaT9EewQREUVq6BH0E6+xwrFdi4M9EoRCE/oKP9Ps4L1t0BkRBUL1FsPQj7tan6eGOtb4oI8EodDvNpiPwKjbbkBHRBQAPd9FP+oaBU6edMuRIBS6u6r5EIzKNrLZIBHZSpC+VfHx/3S0/RwJTqk8w3wMRq0tQUdE5GNx0hcYlf7gcAIcCU6LHyX8TLPk/Zw6JnJGxpvo51tnk+NfEXIk+FnJU8KnjhM/4tQxkXmLvxa+ksy6rIrzKXAk+FXhheazMGppLjoiIt8ZPwv9YGvU2OtGDBwJzpArfdXxXVx1TGTSyGz0Q60xtac7QXAkOFObj+qaz8OkeU3MHU1BFHQl9wt/Jzzj9kEuRcGR4GzxFwvfsHrYuOrojIh8Ib6S8Ic9bUexa2FwJDhXydr25jMxqcccdERE3pcl/QVA6l/6uRgHR4Lz/fYN86EYdd0/0BERedyP16MfY42C91zNgyNBeZ6T/jnBjXHoiIg8bIEDHZ9R7S5xORGOBOVq00n4quNqo9PRGRF51O4jwt8Arxj3mNuZcCSwkT7afDJGFTm2Py2Rn5VdnIZ+eDWWO7flqC2OBLY61zafjVFTXPrSmMg/su49iH5wNTY4ciaZDkcChdzu5tMxqkYCOiIiT0mSvvHwrLcwwXAkUGlTWfqOJO+noDMi8gzxE8WtH3BrJdm5OBKoTV9pPiCzNo9BZ0TkCbuln01pbb4GFg5HAp3OT5qPyKiiO/PRGRGJV3ZgD/pR1TiRAoyHI4HeQOmvFo9z1TGRWqtE9GOqMRa71TBHgnBU7mg+JqMK6qMjIhLs4WboR1QjsTE4IY4EYbmmq/mczHrUzT1KiLyk1tXox1OnEvxIQo4EYUpZbz4po9Iq1UFnRCRQcUvhR9Om3jMBnRFHgggkjTWflVHwH5hE8nRah34wNQpErAriSBCBjcfMp2XU98+iIyIS5dlD6IdS47iQnQI4EkSi+lHpH6Jd1hmdEZEY4neMWXFUysFTHAkik7Nd+C6GvUZnoDMiEiFjdC/046jW/oicw2g5EkRqwR3mIzOq48zF6IyI4Np8Jn2rmOxCdEZn4EgQudyl5kMzqsOn6IiIwAZK3z5y1nh0RGfhSBCNmdJXmv1B0r82iNy24DD6EdTIG4GO6BwcCaIi/hNla20JOiMikN2b0I+fzkvijhzkSBClkrXmkzMqbVcwCkF0trLHS9EPn8b6FHRG5+NIELXC+8xnZ9Sqv2ahMyJyWVbjVegHT6NqEjqj8nAkiEGu9E1KD+1FR0TkKvHP5LqXZf77jCNBLLL+2s58fkbVTkFnROSaQumfeCdfWozOyAZHgtiUtZC+6niluLkpIkeIn7uz6gnYas4GR4JYjZF+vmVeJjoiIufF75D+PV+zh9EZKXAkiF3K++ZDNGrKYHRERM5qU1n6mWTtrkRnpMSRwIR/fGE+RqNe74KOiMhB46Wv+y99XHi/yJHAjG3DzQdp1Pv/Dx0RkUN++wf046VzZDc6Ix2OBIYMeqa5+ShNSh7ATUrJj4ZK3x/YerIKOiM9jgTGTP5ynvkwTerGTUrJd/LHDUM/WBprPLGqhyOBQdM2mE/TqFkPoSMiMqrnbPRDpdHjcnRE4eFIYNTd0ieuCkaiIyIypncB+oHSKMrMR2cUJo4EZi3eV2Q+UZP69OUmpeQPTe/vg36c1Krd4p1lnRwJTJv+0iLzmZqUtkPqgnei8JUdEL7laOqNceiMIsCRwDzxp2TMnYmOiChG3x1DP0YaBfXREUWEI4ETBs4yH6tR3Xm+JXlZ/RroR0ij3UZ0RBHiSOCMma3NB2vU6t+hIyKKUsN66MdHY5L3joniSOCQ6Q3MJ2sWp47JkzJaoh8dnWX90BlFjiOBYzrXNp+tUcn7OXVMnjOiI/rB0bjCWxMEP+NI4KCkZubTNWpuJ3RERBHZNhX90Gis8shKsnNxJHBSlvgPHDh1TB7SRfpKsrRRXu3+OBI4q2xXmvmEjdrAVcfkDXHSJ4o9OUHwM44ETmtawXzEZnHqmDwgoyv6QdFp5omt5mxwJHDeROkb03HVMUk3aIT077Lf9egEwc84ErjhU+kb081dwg2rSbCe0k+CGvan6uiMYsORwB23S/8XzSyedUxSJXyBfjx0Ng1FZxQrjgQumT7afNJmPcKpY5Ko4Y3oR0PnxL+hM4odRwLXpGw1n7VZyyagMyI6R5396MdCZ9bv0RmZwJHARQnSt82adCnPOiZJsu6ti34oNBI7tUGHZARHAlf1nGI+b6N41jEJslf6Kv20p+PRGRnCkcBlXws/08yaug0dEdFpca+hHwadRv55n8qRwG3po6uZz9yogi7ojIhCdS5NRj8JGgW90RkZxJHAfSnvmw/drEZeOnaPfKlVIvop0Hj3EnRERnEkQBA/dZz8JqeOCUj8Nr4rxuWjMzKLIwHGYOlrJjt+PQidEQVVravRt79G++2eX0l2Lo4EIIMekL7qeGpFdEYUSMUtpU8QbJiIzsg8jgQw6V2lTx3X4NQxua3Ny+vQ973GrIfQGTmBIwFQLelfyaXeyKljclWu9M0aWz/gz9emHAmgvl1jPn+zuqajM6LgKHSgPzKrwXR0Rg7hSAC286D5ChjV7TN0RBQQOUfQN7vO+oXojBzDkQCtbP4e8zUwqnsuOiMKgLLHpT8Ih7x8JpkORwK8pq/2MV8Fo2p3RmdEPpf113bou1yj3XdZ6JCcxJFAAvHnW/b6mCvNyEF7D6FvcY0V833er3EkkOGtWeYLYdQMn2y+SwKl1Ebf3hrzhuSgM3IaRwIhFn/d0XwpjOJ0ATliTINF6Htb464F6Iycx5FAjGvEn295ohY6I/KfzObo+1qj+4/oiNzAkUCQzh+ar4ZR1d4sRmdE/nKt9A24Dt7r64niX3EkEEX8SrO5ndARkY/0zkbf0Bppu/xyJpkORwJZsq6U/jFd1bfRGZFPlPQV/vl0n/t3ozNyDWgk+P393NzMRtnRUvM1MeqCQnRG5ANlo6RvObraT2eS6UBGgve+OPk/G80v1G3kLDdfFLPWfoPOiLxO/Jlks+egI3IVYCSIe/Sn/x1fOduadsJ8WYxKqxSU16fkiGeln0m25xl0RC5zfSTI6Pqv/2Wzv7nUSu8ZKH2lWWJldETkWSnr0bevzqbJ6Izc5vZIsOTs9VMnqrjVUM9pLP3X8/VfoSMiT5q+GX3r6twRgJVk53J1JMhfct6HMYsajHGxtZ4SXynNfHGMCsLSSzJM/mL6pYFcTO/mSNC43A8k84L2Qi58/ZaZr45ZR4LzlR0Z8dYW9D2rEdTpS/dGgvG32f0fjrdyt80e8rtHzNfHqLRRnDqmsI1cjb5hdfYHdRW9WyNBgvIWWMOpYzsVp5ivkFHrZqIjIo+Y8Cj6ZtWpF9xzu90ZCX57l+7/dJivnO2MyDNfI6OmbkNHRB6Q0RJ9o+oU1EdnBOTGSPD/wnrdvcn3O4BHa3IT80Uyq8DPx/qRESOK0HepRs1grSQ7l/Mjwe5wvxkrfZw7FtmY9ob5Mpm1nr/pSGFwTfQdqpGXiY4IzOmRoPjiCHbR8flJobEQf6bZvO38jIhsdClA354avZ5IR2eE5vBI0GldZP/f7wP5KW9YnllhvlRGpe0I6mcXpBR3D/rW1Nn63+iM8BwdCepHsbnIk1x1bGPypnnmi2XU3JmD0CGRNBkfS99ydE0COiMJHBwJ4hpF9//fzFXHNgoPGy2UA/gZEZ1thPQVxasuR0ckg2MjQcabUf+BvBbgUOS6QfoKTWvDRHRGJMdg6fdr6SvoiKRwaCQo+7p1LH+iZk90LmLNlP4xnrW2BJ0RyfB38SuK1/Izh184MhLEXzos1j/yepAXeSiNWWmiSE5KexydEQmwuwL6RtR5ZCQ6I0EcGQmOmfgzj05AZyNVymsm8nXScb57DbqyH6TvpDulIjojURwZCcz8nbRKddDpSJVQw0zEzqnB33RBltVqFfoO1MjL5HduZxE8ElhW3cboeMTqKX3NpnVjQ3RGhPKB9LMprSbc2+YcokcCy/rzs+iAxBoR05y8G37DlWaBVEX82ZQXTkNnJI/wkcCy3q+Fjkiq9K769LC68azj4EkX/0XDlk/RGUkkfiSwrP2cLrAhfxn/rH+iMyJ3id9DvWgfOiKZPDASWImcLrDzXrbhrI27sBCdEblnzmz0/aazkjsYlM8LI4FlNXsYnZNY26YaT9uwZf3QGZE79l6Bvtd0DnNXMzuvm0/bgZHAshpxusDOzG4O5G1S8ihOHQdAylb0jaYz9it0RmJtdOIflI6MBJZ1S+B3ELeTcakjgRu0jlPHfpfeAH2T6cxoi85IrCrObAvi0EhgFX2NDkysWuJXHXd4C50ROemZ5ug7TOc38eiMpMpxahB3aiSwrCncmM7OXvFrebK5yYtv/af0dY6p9bh3jY1/r7THqdSdGwks6woenW5H/Pp+axmfRl96WPzeJ1dx7xM7bR2cZXRyJLCs91PQ2UlVdvEkJ4M3ILkSf6H7TpXa6NtKpwdfJdj5rzVOBu/sSGBZozPQ+UnVb5mzycduBqeO/UX+HumlPPfKTskRZ6N3eiSwOrI7sfPeFw5nHzN+yecnX4ufKD4yFJ2RVBlPO33AtOMjgWVtuQEdo1gbeziefoxOcHWPT8yRPlFsnViAzkisEc4ffujCSGBZL3I3QTs3l7qQf0yacMW/D4wUfzblrIHojMTq6cY/GF0ZCax5TSaj05Rq6JD2blQgBnk356NDotiU3N8HfRdprHu5DTokqTpvcKUC7owElrWCU0F2pjmwnZRZx3eiM6IYlO1y+h1zrJJ3cIsTG3UGuFQDt0YCy3p3IzpUsQZe71YRonVFAjojitZ3ddF3j04jrl2xc4lrC4/cGwks61ASOlepst6RvtIs9cY4dEgUjb2H0LeOTgHXs9vp4uIyQDdHAn6JYq/scceWkRtSbTR3FfSclA/Rt43O8MHojMSacGOqi4VwdySwrE270flKlXOTu5WIXN4z6IwoIteIPzK1KBOdkVjF+90thdsjgVV6oAydsVQLTrhci4j14FyPhzzQGn2/6LzEL5TtLHH7IBPXRwKeb6nwt7GuVyNCzZ5FZ0Thkb+SbGsKOiOxdrpfPMBIYFljOXVsI+vydwH1iEhtzvV4QJcC9H2is4Y7FdvJdXSrORuQkcCyPuyMTluq6jfnQSoSvnlf5qBDIrUJ9dyca4wGl6jYGnkfpCKgkcCyRk9HJy7VmJdAJQlb6VHO9QhWvAN9g+iseBydkVgN64FqAhsJrNb70KGLlfI+qijhSmyFzojszOyIvjt0NvFHpY2yXbCi4EYCy+pwNzp4sZLETx0f4mtekd7qgL4zdO7ilqN25hzHlQU5EljWBm5SaiPrHfF7BHyYgg6JzlWYjb4rdKryaxE7E6Gz/NiRwLKOcKWZjTqVsJUJwxNcdSxK0wroO0Jnxr3ojMSaDF5Zih4JrLQfOPtoo2EjcG20ikagM6J/eTwNfT9opB3g0dh2MtEHysFHAss69tcsdBmkqu/iDlTR2bINnRH95BLp59/1eYq//+1sm4qujoSRgJuUKmwEziGFh1tJStBb/Eqy7EJ0RmIVSiieiJHAsp7kwlUbZfOln2/Z5/4SdEhB17SC9DPJqvI7QTu7nxJRPCEjAReu2msq405R6M+5HqTH5kvf0XxdZZ5NaaPsByH/0pMyEljWsFfQRRGry+fo4ugcuxydUXBdIn6rqqd5NqWd746hi/MLOSOBZb17CbouYlWcjS6OznX10RkF03sS3jErLePZlHa+EnSgnKSRwLIKeqNrI1X+g0Xo4mik/qUfOqTgaXq/9DeH/KDAVuGL6OKcSdZIYPV5dSi6PlKl39ILXR2N/o9zusBV8aOEvGO2NesidEZilbzaHl2dswgbCSxrxTh0icRK2Youjs6x79AZBUnlRHS9NZp/jY5IrOJK0pYBihsJLKtHT3SZxEq4Cl0cHb7fc8v4Weha6zTgxvN2bp2BLs55BI4ElvX539GVEqun+DMJ+36DzigI5H9O9jy3HLXz1W3o4pRD5Ehg9TnC6QIb+XdKnzruP4ofDTpM/plkwweiMxKrymF0ccolcySwrBV/QhdMrDGb0cXRmbsEnZGvTb8FXWCd5tyZ0M4Y8JajtqSOBJb17kZ00cT6b/FTx1sGozPyr8zW6OrqNJmMzkisTLG/6OWOBJZV8B66bmI9fB26ODoF/0Bn5E89xa8x/AO3mrPzFn7LUVuSRwLLqsfFSnZ6St+E2KrNXQWNSxD/L4DhD6EzEuvvG9DFUZE9EnBvM3v5mXno6mgs2sxdBY1q2Ej6RHHenYPQIUlVInw5uPCRwLJWcbGSncnip45XHOVAbkydp9Hl1BrCod9G/KhkdHE0xI8ElrXmYXQZxfqfE+ji6BzkwbWGtF2HrqXOXdPQGYnVVvpy8Ko/huSPBJa1NQ5dSbH+NhZdHJ3vv0Jn5Ae5gnatLF/336MzEmugxJVkZyo6vS0I+irCspnfpdn5bhW6ODqf/A86I6/r/Am6hjqJjdEZiTXtDnRxNJJbpp++UPR1hCevBd842yibL20zq/O8xIE8BhlPoOunk/xDPDokqSYPQRdH59Vfzo9AX0i4uM+lraYV0MXR4aLT6M3siK6ezjJ+7G1nhPQP/Nb/a3so9KWEr/unwJLKJuvQi/Jwh9novL0FXTmdDVxJZmfbFHRxNDp8cMbVoi8mEm/wACQ7/xS/SXE2N6yO2LT70FXTGT4enZFYCy9EF0ej+a1nXS/6ciLTl58R2ak8F10cHZ5oG5mcJuiK6XSbic5IrDEN0MXROff8CPT1RKprOqay8hUPQNdGJ3kHN6wO37gV6HrptMxAZyTWvubo4mgcXnjuJaOvKGJFnH20E/caujg66zqhM/KKiuK3mnufv8/tPNcBXRyNDs+df9Hoa4rC8Iru19Yj5G9RVrWce5DO1eV1dJ10rktAZyTW399AF0ejdbkv9dBXFRXOPtq6RPwmpffxYxONpsJ3K7OsmnPQGYk1oa/w4i1aWf4B0+jrik6fp5q6XGDPeGzcMHR1NNof2Y0OSbKyH0rRFdLIeyUfHZJUGQMmoauj8Ulnm0tHX1i00nZx1bGNocvRxdFh8ey1Ooiujs6mMeiMxBoh9kyyn3X40fba0ZcWvYPc68SO/O/QE9uiM5LpR/FbCp7gCUR2dh5HF0djhuqDDfTFxaLZs64V2WtuEL829RA3KT2P/LXi3e3/TRl0H/xfdHE09hxVbg+FvrzYrLd76UVLxJ98fniBvhVBUvIUuiI6M/hLzk5n8WeFdNW81ENfX6xGlz8RTqGMN9G10drOqeNfFVeSfqxV8g5uOWrjGvEritdqF/ijrzBmrfe5UWpPqvU+ujg6pY9z6vgn8rcc7VuCzkgs8SuKa4fx8xt9jQYs5SaldpLET0Aea5WFDkmAweKndWpw90c7by1FF0eje244zUBfpREbJjpdba/Kaiz9CFWrahI6JLSEGuga6Mx+AZ2RWNM2oIujMWNJm7Aagr5OM9of4UozG3V2SF/rYt0V6KnjhuJ3i8q7mSvJbAzd3h5dHbVeXcPdJhB9paakPe5oxb0srhG6OFrLAzt1XGc/OnutTTnokMQSv56/dvgfV6Iv1Ryeb2nrP/6MLo5O2sXBnDqW//LuRKB/sCntlL7HV4dI1uygL9akGv/hWNG9rtU6dHF06gbwW/Vnv0enrjOLW8faEb9fbOtb9Y04A/pyzdpay6Gye16dSuKnC64PWK9T62p04jodK6MzEqtkGbo4OpGutEJfr2kDeCyWjX7i713rxQBtWC3/iDk+S7bid0hfBhjBBMHP0Fds3Fz+O8aO/HNsrArfoENySVvxr+s+5O9rO9/VRRdHo7wzyXTQ1+yADgPN194nNrZDF0cneVcQtjT46np0zjp/5u6Odj6QvlyzKKptF9BX7Yi7zjuumX4i/xwbq67vVx0vOIzOWKduY7/XIGopl6GLo5H8ZrgrCM6Gvm6HNJls+AbwjaFN0LXR+vPD6JCclLMJna/WjjrokKTK6IqujU497VZzNtAX7pTmD3JdpI1pz6OLo5N6Tz90SE4pe3wFOl2N1EYN0SFJtfh26fsEFnSJunHoS3fO8IoG7wF/GdgdXRwdn55vmfXOMXSyOjXqo0MS69MO6OJozNoWQ+vQF++kz6MfIP2u8lx0cXSOXY7OyLzcQ+hUdfyYuiGFf0AXR6Pbkpjah758R/V5ihvT2SiWvzFdjd7okMxacBc6UZ3+/vwlZkLOEOFbzSXHuvoD3QCHpR01cyP4UMN66OJo+Wl1we7t6DS1+vp2diZmN5eii6NxY1ysTUS3wHH8vWurfgG6ODppF/tldcEr0ieKrc999hPMoJ410cXRuO4fsTcS3QYXXMU5MDsbj6OLozPDF0vGW61C56gzfDA6I7HEbzW3aqeJZqJb4YbUevwuzkb+g0Xo6uhUDevsPcn2rkFnqNPt9sXokKQqWZaKro7aihbVjTQU3Q53pFXiWhkb6bf0QldH5w5Pb0yXsh6dn060q1IDIL5SGro6au2HmDpHCN0Stxz8K9fP20gRf3xi+1c9e6aZ/IE2tVHMk41+lfXOQXR1NA6bO0cI3RT3NAv8yem25B+pXurNjekGjWiNTk6nBhfd2NkrffnHIZNdGroxbrqa//ix84L4qeNED04dbxuOTk3neE90RmLFST9I6LjZryLRzXFX13Sj4flJZh66ODrdf4/OKDITpS9KtfIy0RmJldESXRwN47VDN8hlRbz37VwjfptF6y4Pna4+dDk6La2VY9AhiTWzG7o4Gl2vMd1kdItcN5u/h+2kvI8ujtYRr0wdZ4pfSXa4CjojsQZWRRdHo9H/M99odJsAvkgwH6NP/EP8quPSA17YGkf8olSr+1fojMQqvA9dHI0v3nOi2eav849txe+8u5VTx3Yu6YEujs6xVuiMdHpnozPS6fgROiOxSiqgi6OxzsiK4vOZv9JHQqFd5v+qYZuNv2bzjUzx51uu+Q90Rirf9EXno7Ujxm0r/av46WR0cTSedmqNrPlLXX3yr6Z8aP7vmsXPJmx54HzL92uhQ7ITv0t6VxL9+Yb+N1P6mWQO3vjmL3b16b+b8IX5v2zWlBccC9Xrpkl/U2pV+1jkBgltXk5EJ6OzhivJ7FSchS6ORncnF8eav9xHfv7Ln04x/7fN+oIPhZ0btqCLo9NxHzqj842X/s2JtYp7tNvp8kd0cTSa3+5o+81f8Opf/vSgcdKPd0iN/XwHv1r8mfQvqq0Od6NDOluh+IniPfPNbFvpQ3GvCd9ytH2T6c4mYP6SN/zrj/e7x/yfN+xSkW8ZJEi/BV0brQsmokP6l37SvzmxrOVeWYzhuukr0bXRuc/x/XjNX/MjZ/7591ab/w+Y1a2T0xF7lvx5f2uZkNnPOpXETxTfMQ0dkliVpU8UXz/Q+RDMX/Xqs/8DN0jf0M/qLuwtgyBJzdDF0ZnUUsBWUln31kXnoOP9834ck9sdXRyNVY3d2FHf/HU/cu5/opX4lWYX/NaFpL2psfhzF/OeQWf0wfXoDHS8uJGrS6rURhdHw61V9eavfPX5/5EWe8z/Z8zazleoNsp2CT+1ybKOQ1cddxa/W1OaNw93cEPGaHRxdDaZOpNMx/yllzMShMa8tMj8f8ioPY97YT8biN2vtkdXR+cQ7N1HRlfpZ5L1Wct/5dhoc6v0D+SedG+bQPMXf97bodPE/wizVn3nWuheM1L8Tvuos47FzzVafxgJCcYLvroNXRyNNW4es2j+8ssfCUKhb8XPPvJ8S1tviT99ywL80/cG6XON1ix+DWGn8wl0cTRWObTVnA3zDbAbCUKhVu3M/9fMkrufDZz4szustB/cfR3+2xfRLdaZ6+yqVC9Llz5BkPaDy4mYb0J58wQ/q35U+vkd1QZwpZmNjAHiP5lP7NTGtTjkz54kD+CWozYWS/93DWByx3wj7H8TnJRzxPx/0KzWt7oVvefENUIXR8uttyHxB8R/UcXft7Yekv6ucwNg1st8KxS/CU6ZKH53lu5chGMnoQa6OFobXFhKm3XvQXQzdZrtdT4GjxK/P9SWixCxmG+H8jfBKRVnm/+PmvX8Qjei96Se4s80c37q+Kux6CbqHBR/rhvMN9L3hyr6GhOM+ZZofhOcIn6TUquBwxv/eZj8ZYKl45xsf6H4ieJJu7g2xob8dZIrUbunmG+K9jfBSUPXmv/vmtV8hOPRe9Xkm9DF0Xr3Eqca/3+WodumVa+fU433vO+kv9U77N5KsnOZb0w4I0EoNO0O8/9ls4Y/5HD03iV/maB1RX0nGj79Y3S7tArec6LhvpD0Pbo4GoeeBaZjvjlhvB06Tf7bVsQMvkc8K36ZoFWhqfFWZxahG6XTbqPxRvtFlfXo4mgktoXmY75B4Y4EoVAr8ftcri1xMHpvk1+8NMPTBRuPo1uks6eF2Rb7yPQG6OJopKEnd8w3Kby3Qz95Js/8f9+o5FHcxtHOK8PQ1dGZbfAFX/0CdGu0jri1baX3zJT+a67CN+iIzLcpkpEgNFn6UM2t3e3lbEIXR+tCQ98D95M/UXxigZmm+tC2qejiaLwhYJtA862KaCQIhRaKn328/vfORO8DC6W/e7WsTQZWF5SNmoRuhk73H2Nvpk9NuwBdHI3hb6EjOsV8uyIcCUKhr643fxFm3fFvTkTvC89K/x7DSns61q2k5E+JJDY2Ukw/Ev/BupSD1M23LPwZ4191Er4flIsnB3lPq0R0cXSKMmOZjEsS/41b8g5OZtkRv4i1pZQtL803LYqRIFS8Q/rP7xV/qm48e58o+5P0HWatYx8tjrJxcVejr12nT19+4GbnhZro6qil1puAjuhX5lu3IarraHij+Ssx69iVhqP3j6FN0MXRmhXVrl7Tb0Fft9YjvU1X0zfek77V3OeSVgGab150I0Eo9K34N85rkEsAZVsg/QCoqB6728WfTbmlogPF9IcJfdHF0Zh6LTqis5hvYDRvh07Luned+asx62ru+W4n6RC6ODqp98RF1KLxS9FXrNPt9mhfevle8dPCt5rr+PUgdEZnM9/EqEeCk+WTfqScZY2WMsEjj/xPbKyu4Z/iNfIR9MVqiZlslKey9F9z8mpnvo0xjAShUOcnzV+QWTMqu3dCosdUbyF+1fHctllhNaXkL33Ql6qR+qicyUZpcoX/mkttFNmvU1eYb2bE6wnONrC7+Usyq8NzZqL3oZwv0cXR+vPD+mYUVxJ/ZPMjAlalCjVS+gESf+yCjqg85tsZ40gQCrWVvom4dZgL++1UEf+jzlqm27//VumvFqwtg10pphd9I30lWc056IjKZ76lMb0dOq1M/rFYDSYbyN6fft8BXRwd9Zle46Ufd24VzXStmF4TL/1MMmfP04uF+bbGPhKEQmO6mr8us1bcaaCZPvVZa3R1dA5+Z3ftIzegr01L3mSjGG1noIujsXwoOiJb5hsb89uh0+Kkfw1sDd9mpKF+lC7/G7CCcs80m/AX9HVpLWvodjU94/fS9wVZ/Xd0RAoONNfQlY0Uf75l9kRDTfWfzuJ3mE2957wutXi/9D1PrBqOHMrpC1XuQhdHY7bsyR3zDTbzm+CUr8QvVqrALV/sfHUbujha+89eXdBpLvqCdI5dDiqmfJNvQhdHY0UmOiIN80029ZvgpCzxi5VKD4DPnJOrzcvie9a5S/61Rlf6N+iW1f8H3ms2Bt3ZHF0dtT6vyp0g+Jn5RhscCUKhMunfAliJrUy211eKB6CLozX851/snQ+jr0Srgu7j1+CaI3zLUetzD7xHNt9qc2+HTtt9xPwlmjWWG9PZqSX/TLM//iMUim+Jvgqt17nlqJ3frUYXR6NmT3RE4TDf7mj3IrVV+Lz5izRrfWfTbfaND5qhi6N1Wavj6EvQefcSdB3F+qYCujgazaVPEPzMfMuNvh36ifh3uL2eSDffan/I2im+n5Vuz9HH0FWUquwH4WeS9WowBp1RmMy33fDboZ98JP18y6IRTjTbH8aJXzIu2nZ+oGan1TF0cTS2eudtgfnGOzIShDJWmr9Ss7jSzFaO9E/8BPtc8mokrIfXoIujcV0Yux2KYb75DrwdOk3+YqUC7g9pp4r44sk0dRu6cmKlSD9herbQreZsmA/Amd8Ep3xV1fzVmqXd5jK4vpX+DziBmn+NrppY12xGF0ej6Bl0RBEyH4FTvwlOEb+3WfKO8E/FChrxywSlWemVyUb3Zeahi6PR1XOfkJjPwMmRIJTxxCLzV2xU4kc808xG9ZulP7+S3FUFXS+xBkvfOPz9FHREkTOfgnNvh05bKH416Kx/OpuAh415CV0cr6g6EF0rser/EV0cjS8S0BFFw3wOjv4mOCVJ/MZ0FxY6nYFnpXyILo4XzFjCH5Y2JtyTiq6O2hSPrgI0n4TjI0Eoa2MP85dtVPtXdzueglft5dSxRrU3eRaNjYyWwk+YLnowH51RlMxn4fxIEArlP1hk/sKNKt0V70IO3iR+IMd6Pw5dIKkWfyb8TLJqt3huovhX5tNwYyQIhdLFn285o7IrQXiS/IOqYcZ+iy6OWNukTxRv9fIYbj4Oh2eMfxXXyPy1m3Xbjy5F4T3iDxYBWWV7wHLgFb6BLo7GFf9ARxQT84G485vglJHZ5q/erOcXuBaG11S5DF0cefrv4lk0NibfNA9dHTWvThT/ynwkbv0mOOXuLeav36zl4s8qgkmSv2G1u9Z+gy6JWHcKX4mS5/0NKM2H4t5vglP2SV91XDrO1Tw8hauOz/A5d62y03MKujga3ltRfD7zqbj5m+Ck6aPNN8EsbxxZhDFO+Pbyrqk5GF0KsSZuQBdHw4sris9nPhd3fxOc1Fn8YqUCHj1oJ6eJ8Pe/rph7+yB0IaQa+mofdHXUxiahIzLDfDIu/yY45dnvzTfDrL58BWxnwR3o4qClVeK2hXb+tAJdHbW5bdEJmWI+G8BIEAq1SjTfEKPSfuBnIXa+GouuDtQR/ivBziXvoouj8bF/xnDz4bj+dui0OjsmmW+KUQf5qbitysLXjjpoPT80tjNS+lZztb1zNqWe+XggvwlOmrDMfFvMuqI+KBr54g8I30/GIf/rk5fMDiiR/jx3+AodkVHmA8L8JjilfoH51hiVek9DWDjSlVQQPjPogOEvoFMXK75SGro6at38tl2s+YhQvwlOuUT83mY76gDjke3vj6CL467Wt6MTl6ttXXR1NEZPR0dkmvmMcL8JTsp/ZZj5FhlVt3EWMiDRxotfMm5Or9HcetrOXukHln/ipwmCn5lPCToShEJDm5hvklnX/w2bkGR3NkdXxyW+mmw0K2U9ujgas3x5npz5nJBvh04rfN58o8z6kN2AnTGb0MVxw/fPonMW65rN6OJozO2EjsgZ5pMC/yY4ZeAs880yiq8G7C18El0dp9W9ly8IbSyWvo/YpEv9s4LgbOazEjAShEKfCb+hrNb70BHJ9eP16Oo4ih8N2Bos/SyavhPQETnGfFgiRoJQhviN6bZ8is5Irk7d0NVxTCN+SGyn8A/o4mi83gUdkYPMxwWfJ/hZravNt82sC3+Lzkis4v3o4jijgIsL7ZSsRRdHY/YcdESOMh+YjN8Ep4g/CqX9EJ5jY6fhVnR1zGu3E52qWGW7hO9P3jwzH52Rs8xHJmckCGV9J/0olGGv+Pz+isFe6QN5hEq5CaGdrHeEP6iLNo9BZ+Q086FJeTt0WtnF0jem6+H1808d1Fj6DrORuL8pOk6xPpC+Ge2JKuiInGc+NVEjQSjUr6/5Jpp1xcPojMSq8zS6OKYUvIfOUqwqh9HF0TiUi47IDeZzE/R26Ce9s8030qz1AfgnR5T8MV3Qw9+TjbFIb7AIXR21dq2CsfrDfHLiRoJQaPxS8800atHmHHRGYnl/umDP0cfQIUo16MEidHXU8lpUR2fkEvPZCXs79BPxR6EMe5zTiXbeWYeuTky2l6ADFGvObHRxNFZORkfkGvPhCfxNcFL8LuH7nVuJvjkR1bj4Hd49x+YEzySz00X6a9utKeiIXGQ+PpkjQSi0+6Z55htrVNVAzExFpaSvN8+xOcQzyexMqJeKro5ajQR0RK4yH6DUkSAUqiJ9u1vrxUJ0RmKNXI0uTuRWtUKnJlZxS3RxNIYHbZLffIRyR4JQaG8N8+01qs/9fKls5yKPnWMzLDCTjRFrs2QuujpqM25fjM7IbeZDlDwSeGC3w0n7uWG1jUH7OqKrE74ArEqN2qfd0dVRS9vh162nFczHKPLboTN8Lf1YrG6foSMSa3pXdHHCVZtLROwUXoAujsbafuiIEMznKH0kCF2z0nyjzerwT3RGYqXURhcnHB1+ROck1jcV0MXRWD0SHRGGA0mim6TXWfyxWHdMQ2ckVoL0uR6r+YjAvWQOV/zFwrccnXItOiIU81l6YCQIhXKFv6m02t/EDavtVBQ9ddx+e3BWI0Uo696D6OqoBXlrYPNpemIkCIU+k34sVuk4dERyjZA7dZw9ER2OWD9K/+fX8iD/68t8nB4ZCULFA8y33aweG9EZiVUsdNXxQZbMzoIT6OJobAj2GG4+UPEzxr9K+dB8680q+C90RmL1EzjzmDyKm0fZGHoEXRyN4Q+hIwIzH6lXfhOcIv58y9RlgfyiLSyFz6Orc7Z5R7gq0Eb1oyvQ1VHLyxyEzgjNfKheGgk8cCzWpB110BmJNbADujpnWM+t5uy0En42pdWEk/yBHwlCZQf2mM/AqLqNg3FURhTafCRlw+qCvegsxNp7CF0cjQ38ZDsU7HmCnzWV/grT+v5ZdEZiFe9AF+eUpdvQOYhVRfpSwKlBnyD4mflkPTcShELTpH/WYH3YGZ2RWA2XoYuT2AmdgVhjNqOLo5G3Dx2RFOaz9eBIEAp9Jf0XrLVyOjojseoXIAsz6Qd+MGTnmTxkZcKw+Rp0RGKYD9dj8wS/aCt96rg1//Via2MPWFn4cZetjcdhVQlPoM4k0zEfr0dHglDZfOlTx7MGojMSK78FpnjNOFFspzf0l1oYDrF2ZzIfsFdHglAoR/z5lvfxKwc7Tfu6fxjiunv5VZeNpk8JP2702F9Zu7OYj9i7I4EHVsRbTYK8NYpa/etcrsWAAJ5nEqb5aS7XIkJpuzi5cw7zIXtyxvhXX401n4hRwzLREcnVys25nif5OZedijVdrEM0ln2Djkge8yl7+TdB6NTOuXXNZ2LU7J7ojMSqc2k1l4pQNQndVrEmZrtUg2hlF6Ijksh8zt7+TXBS/CiZ+1z+yxfvoTMSK8WVQ4jWNUa3U6yha90oQAymvoWOSCbzSXv8N8EpJdLvZqveBHRGYrmwq+COeHQjxRon/EyyohHohKQyn7UPRoJQaKT0X7jJAzLQGYn1wnAnk0+9h6OwnYpTnEw+dskf86mxYz5tz78d+slboo9IPKn11+iI5Fri3IF0V9RHN06skasdS92MRnHoiAQzH7cvfhOctPh26edbDr8WnZFYGTuc+YxxKmfr7exe296RyI0p6IKOSDTzgfvkN8FJ028xn45ZV/0DnZFYTpxp1nEJulVilf0gfAXB8G3oiIQzH7lffhOcUutq8/mY9VoKOiOxTH/NOKklXzLbyGos/Cyajg8E/kwyHfOh++c3wSniz7e0No9BZyRWxdkGc17GiWI7udJ38r2FG/lqmU/9/7d35+FVVef+wE8wboFGhoCAsUIoD0SjDBHCcMMgISqDQECmIPMQCiKEBhUQBFQcIEJFCSJIVBBQQAFBBGQUCLUBShDLKK2CyCC21t7f7a23z89ZxKy1z7D2/r57n+/nb/HZ+/vunHXOXmu9y18jQSDQRMqxWCoNuetYqampRY1vfom+FbHipLdoqcGJ4iCYz91Pb4e+VW2s8FegVuV/oDMSa/h2E/OYj96Kvg+xxn0qvG0jJ4qDYz55v/0m+Fo/+LFYdv71ODojscZsiDTcvLvQ9yBXoxEmHl/nVL4VnZBXmM/ehyNBIPAn6c3WrTdqozMS67HIdpqtK0TfgFgb9xt6eh0ymou9gmY+fV+OBPIfesu6sho6I7HuaRh2qhsmoy9erL9JX03xSgo6Ig8xH7/v5gm+122C8B/C1hoevqEydVN4b7Pzr0ZfuVgx0ldYn01ER+Qp5gvg098EXxt+zHxaZq3lgXwqBS+GHid3kinN2mz+6TXqMNuGh8Z8Cfz6m+AbBUfN52VUUh1OF6jEVwoty/IPcCeZwpJ96c48v6ZUb86fxyEyXwT//ib4xrku5hMzawenC1SuyA8hx62J6MsVa9g0x55eIxLGsm14yMyXwc+/Cb6W0eSU+cyM4nSBUtrp7kGGWKk0+lrFkt6xPenJXHREXmS+EP7+TfC14hPSd5qt5e4CpUdWBREgV6Er5TrQ2c+ot9g2PCzmK+Hz3wTfKNxuPjazOF2gNLWeXXgNea6VSuxu4Se7ntmFjsirzNciCkaCQKBAeq8Va0cOOiOxZr6jTa4e25WpNJ/t0tMbprxG6IS8y3w1NqBvyR1fjTcfnVHrj6Mjkutq9SmLn/RGX5xY4luOdhqOjsjDzJfD9/MEP2he3Xx4RuUPQkck13slz/Wcqou+MLHi3nb58Q3V0QJ0RJ5mviBR8XboW9Uq9Dcfn1Ev849DpX7fpF/ElX5PRfRlSZVSazHg+Q1BOe4ki4z5kkTNb4Kv9etrPj+zjvEHs0rpjy/L6lnuJFM5Pxry9AatLH/Lqf0nqP/KfFGi5zfBN3oLX1zNSTSNv166TfAIzzNRGVYZ9vgGJWEHd5Ip1b/FygrmNbH5skTJjPGPbjV5RKIT9s9DRyTXxR+2Cea/gL4Usb6M+IAHhz3UDx2RYE2/3T9z9n9t/0PzdYmmt0PfmdDVfIpG3fTf6IjkmrHn64C6t0Ffhli569BPr40nxqAjEuynRXKb7F4Tm69MtP0m+Fpn281KaHcG964wGl2oMaIM+hrEKp4hfD/9NLYNV+v9xCVJjbA5ec98baLvN0HAA01KrXe500xlKvoCxJLeY2v0eXRCgk26fDnLfu0vX/PVicqRIBB4oZz5KI2azW++FJLH16KfWRubuRtcKWdHCYFVbqL+B+bLE4Vvh75TZr75MI0a+Ht0ROQdMVvRz6uNWxLREQm2tGPJobXeqfoX5gsUXatIL1XiMCzK0UXojMgbxD/Lt/8ZHZFgw0aqg3tC0W/dfImidyQIBCYt/+XGVVEW1+IParKV0bws+knVW3+cZ3Aotc/SZpd0S4mdB8wXKUrnCb7X/vKNq9KMvgcdEUn3+d/RT6mNA1z+oBRTwz6/dZN++e/MVymafxN8Y+IW85kala98VUgUCFS5Dv2E2rilCjoiuVI/DOoAiYQHxl3+L83XKdpHgkBglPAmLdZrk9ERkVSpD6CfThsfsNWcWvAfPXtmFP/8n5qvVHS/HfrWrJ7mYzVrXSE6IxKpjGLNiRRlNesgo962aaFEeeriz/6x+VrxN0EguJd1UHkT0BGRPL9vjX4ubeyoho5IrvYhN8OsdOmRz+aLxd8E3yr9iflojVqzER0RyfK/VdHPpI2tPJ1bqXZYDfJLXfjxf2C6WBwJftRDepPSSo+jIyI5pnZCP482GvBxVQp7+0fy7h+mC4zW6lt8O/Qj8VPHWxPREZEQjfagH0Y9nkWjMSc9gmCbf/f/MFeqH/A3wU9mNTafr1lPpaAzIgF27Uc/iHp5J4rtbyJa/TvClmddjn/zfzFTqEtxJLhUTB3zCRvVjO0co17Rbein0MYxLnVTKhgaeb7dB3EkcJ74Xccjt6EjIqTEQ+gn0MbRErsj0DemHjOTcTHnCVyws4t9alBZ7dEREUrKA+XRj5/eYe4kU+rW1NRxiRwJXLGkzHrzOZuU9GQJjUjI/waPaoZ+9vRanGarOaVhj9oHGCQnRgK+HSpBztig2oEADWBTr+gzT9O9WALuf9QoHfJOMg2OBK7pJ/1k8NkfoSMid40x+VHihE2d0RHJFXeL0ag5ErhozDvmwzaq3CB0ROSe3L+gnzcbb/8vOiK5On9qOGyOBK56bJn5uI16kWeaRYlY6a8r136Gjkiu2C/yTMftxEiQvhcdlGBDhE/QWa/8om85+VCT6ugHTe/M9eiEBHvVgQPlnBgJLCufJ6crzZLe/r0hzzTzvecboJ8yveQT6IQE+3ygE5E7MxJY1tYL9ncUrdoecSZzY0Y+ho6InJQoveXoulx0RHLFOPTp4dRIYCUPaIXOTK544V/JrA0808y3UqXvJGvHh0+p+MYpDqXu2EhgWXv4C0+t7vuO5W7GiuHoiMgRc4S3x+3eA52QYBed+9hwcCSwrMpclKhUvLu/g8kbsKrRdHRGZFxmSMcbuq/rPd3QEck1OcvB5B0dCSzrZBV0enJdKOVo9JHbvwsdEZmV/SD6mbJRjzvJlCY942j0Do8EVvnVXJSoNMbJMd6EtaXREZE5hcdaoh8ovaEz0RHJlTLAqQmC7zk9EljWCB4xoTYx3+n4I5O0NQYdEZlRbH4zkln5fJesVLGp47M7zo8EllW9DTpIwZZK32nWk2ea+cFF4TvJ0uegExLsYgvnC+DGSGBZrXeis5Rr1mY3KhCBjkvREVGkzh1GP0U2Vs9CRyTXHbe7UQF3RgLLerM3Ok+5xG/0yedA7mkmjjd01KFEdERy1XTpxEO3RgLLqlMbnalcj1dyqwph2jAGHRGFa7ih4w0dcxPXJShd6OtWFdwbCayEa3kUitLG/a7VISx9XueR4p5U8cQq9LOjN20YOiK5pi90b5bfxZHAsmZz6lhtpfC/2OQvuAbMey6eQj83eunn0QkJdkVlFyvh6khgWcvuQKcr1/BNrpYidGuaoyOi0PxtLfqZsdGYC9OUJj/hailcHgks6+VsdMJyFRx1uRihGp+JjoiC95866OfFxpOT0BHJ1bmey8VwfSSwWnaaik5ZrvhybpcjREcL0BFRcHKuFX4mWRZXISgNfqSr2+VwfyT4psvUYHTSYmVIb1K6oBNbw3hAWpv16CdFr/VEdESCvQToE4gYCSxr5DZ01nLFHkxGlCR4eQc5dSzdV44ca2VO+t3ohAR7/jZESTAjgWW9djM6b7nENyldcxEdEenEnUQ/IXpTbuR6cqVfgyYLUSOB1fIYF6grZbcDVSVYh+PREZHKrNWL0Y+HVlKNfuiI5Mp9HdUvFjYSWFb/sbHo3OX6YxdYXYLDqWOZluwT3tKwUk10RHKl7sC9GQaOBJa1nv0H1cqkAysTDE4dCzRsC/qx0GtxPTohwUZ1BFYGOhJY1jJuNVfKuRFaGnt5M9AR0c9lv4Z+JvSSebS5Wo/noLUBjwSW9QSblCr907X2U2HavxEdEf0kV/pKg1K56IjkmokexOEjgWX15QSSUnvpU8dZ/w8dEX0ntoLwnWQft0dHJNe47ejqSBgJrP67uUBdSfz5ln/hQC5Axv3CdyQ+x/fASmlDBMzySxgJLGvN6Qx0NcRaMgc5jxQEDuR40ruUjFjZDR2RXJki1gnKGAksqwEXqCul9ERXx8aaJuiIotsi6Z0Ltw9HRyRXopBtgFJGAss6VAVdE7liaqCrY+ODv6Ejil7jVqOrb+OdmeiI5Ko2AF2dH8gZCSxrQDV0XeSq+Ra6Oja28nBSjEaud60MDQ/B1ihTFl2eH0kaCazqnC5Qu2Ikujx6CTvYTMZ9G7uj6643/+40dERy3XE7ujyXEDUSWFYDbkVXGvywgBUGOuvvXoLOKMoUCT+TLJnfDtSENRcTNhJYFttTqbWSfr7llm3oiKJJ26roettYzjPJlCYtR1fnMuJGAmvKbnSRBBO/SuQPpdERRQvxE8VP8EwypZwd4rYByhsJLKvFXk4XKA0SvtPMeiMRHVE06LZS+ETxssfQEcm1ZM5sdHl+SeJIYFkDud5Abc5odHlssEmp4zbuRxdZr+NSdEKCbRPZL1bmSGBZb/Itg9K4Wujq2Bgxg7uOnRRfCV1hG5woVuv9Mbo6JZM6EljW1jh0zeQSP11Qtjk6Iv9q+za6ujb6cqJYqb7YfrFyRwJr8ac831JpkPDdBdb4f6Mj8qfUDr3QpdXL4kSxUvHBPHR5lASPBJaVzPMt1eauQpfHxlWT0RH50EfC2xFWvhWdkGAXT6HLoyF6JLCssnXR1ZNrKr6nuY11/FFn1lfCW442O49OSLDSt6HLo1Uc+PNA9DVoDRyErqBcM19GV8dGMs+3NGjR0+h62ujQCh2RXLWfRFfHxjeLPIbIXpZ4bwG6inKJ311w5iI6Ir+YJX3F2NZEdERyVduBro6tb5f7pV6Lvgy9UnzLoFRXTjfDklUqQkfkC3OEN5361+PohARrUh1dHnvfL/ye9HpL9JXo7FnIBeoqsWP7o8tjYytPnoiU9N9+Z3ahExIsU/jsznd+/IQtOIK+FK2yPBZLKfchdHXsXMudRpGY+SC6gHqrOB2k9l/Ci/eDS75rx4s4TlOJDavVxshqcPtL88uwTX24xnVagC6f1oLfsruI0qTlfdD1CdLP3rrsa4i+HK3lbFitNEz6TrPW3GkWnkZ70KXTO8sFHUopHdDVCd7P37/Pqoe+Hq0puzldoCS+Md1RHmcbunln0GXT68JF3mpNhfeL/ZnLP1pnbkBfkVaLjZCSekLqtVPQ5dFbUG84OiOPGZOFrpne+lfZP14l4wbhB4te5pdfsq9+FH1NWlm9AVX1iJga6OrYGDEBHZGXFEpfCXAjFwIoffV3dHVCVNLrllGypwv6XnC9rJ5R8yZ0dWzsvwYdkVcUf5GMLpbeodroiOSaORRdnZCV+OJ96qeiVyvkVeB3EaUesn/Sff2jjmvAgiG6W9nX1rZHJySX9NVeJVJMwWbLXgS7fo67pfWUucIXm1hP8suknb/9C10kvTWcr1NrNAJdnnAoF+P8exn60rS2bHOxtB4ztRO6OnZ4ppVWzCF0gfRWrUQnJFiPyujyhEezLHNfOvritP7A8y2V4qQfa9WxDToiuXIao6tjYzt3kim1fwtdnXDpFujn7Jb9nuGNRLfq6z1Fh9HVsTE+Ex2RTGll5qNLo9cuGx2RXLlPJqHLEzb9Vq3OtUQfldfrFX47UclosgZdHhsnF6EzEihe9ktZa9lOdEJyxT4rfLWXlt2m3Zi+6CvUylvoSo09qXi39Aez1ix0RsLEnUWXRG/0KHRCgpWZjS5PROzbN9wsexnRGa5iUMqVfr7l6HvQEUkybjO6HjYe4MitlDkeXZ0IBdPIR/gyots4daz066Po6tgYeQU6IjHOy97QaZ2MQyckV5z0vzN7QbV0W7JPdHezpBpcoK4UvxZdHhvtJqMjEmHjc+hC6HXhDL9SSq3F6PJELsjmnrNeEb1rbsqz1ZyttZfNE/4Z02ddfXREcNLH645Leb6EyuBRor8nByvoNs8Fsn//lOUCdTXpj2ryQXRCWNmy/7Ys64EUdERyDZuGro4ZITT8v2ML+mK1/s6fr0qzpG9WanERHRFO7jPo9G1UbYuOSK5s2V38QxDS0S/7VqEvV4tPrNok2auBLeumKG1Ml9o4AR293u3n0BHJVbgOXR1zQjsEbKrwZYmrWzlUch/48h10dWxE5bz/edktXaz5zdEJyVV8UPqGnVCEehzkzKvQV6zV8LwjNfeHF6Qveb4y2ub9/yH8bErrXbYKVLqhLLo6RoV+MPBjsmdI8rkdXinjfuEP7/tNouk0xJqV0HnbOFIFHZFcpYWv9gpZOEfET5DdmO41LlBXytmBro6ND55HR+SW2svRWdsYHzWlCJ34c2JDF85IIH5b/LpC05X3j5g30NWxcSQRHZEbqt2IztnGmihezWUn51p0dRwQ1kgQCCTegr5wrT0npputvZ8UNUCXR69Xz3HoiJyWUbc6OmW9vC/C/GCIAuL7hocn7IIX3Ya+dK0z15ssvs9cL7xhdcO56ISc9fzf0QnbWH4BHZFc5waiq+OMCIb+a2QvfLipyFz1/ab4iyno8ujt34WOyDltpR8ot+FLdERy+aDVnEJEPwLPy+5i8EaMqfr7Tz/pU15r49EROWPWanSyNqZx8Z3SOPEnhIcvsteBs3qKPtNsygEuh1aqmYUuj42qPuyCnPZRR3Sseunnl6AzEmvwI8L7hkck0omhtteh70BrfRv2UFR6qTu6PHoLPvXb4aSDuqAz1evFVnNqPUaiy+OoyJcIPC97KcrArww8BH61cgS6PHp5M9AJmbToRXSeNqomoiOSq+g36Oo4zMRisSbvo+9Ciyenq3WW/uLzzDXoiExptQmdpY21f0NHJNf/VEVXx3FGlg1LPzu91lQTd+lPcdJXsvjkTLN9wt8xr2mCTkiucdJn+U0wtIHkQin0jWg1bGrmNn1J/FncK4ajI4rYH2UfBW7tWYlOSLBGXdHlcYOxrYRjXkbfiha/8mg0F96YLu8edEKRKXgQnaCNTb7f1R2+JsK3YZpicFN5Zjn0zWgd9ukCdROKF8puKmiNHISOKHyFr7dEx6d31ofLdU2JP4yujltMthfJ2HsKfTtaL2cbvFmfKdwu/OPqZY/O+8eO7Y+OTu8w9+IrFZxEV8c9ZhtNFc+QvSxx3SSjt+srBbJf71nWA7PQEYXh1dno2PRa8K2pUqHwExrNMt1yUPiyxIQDqYZv2EcGCe+tNdpzjel2tkZnpjeCE8VKxTPy0OVxlfnms3Fb0feklT7K+B37RxvhvRDOeOob7JjX0HnZ2OS3PdwGNY+SieIfOdGGXHgD/Od6OHDPPpFzAF0dG4dfQEcUrH/WQWdl46hHZ17ckBk1E8U/cuZAivtln+XwVk1H7toXYu5EV8fGVb3REQVFet/vw39GJyRXwdPo6ti404Hv2g4dTZQzwPylmrS8nzP37Qf/Lb3DSg353cY3yj67w5q9F52QXMKnOi2rXXbAgdUdjh1SFye73daUCjyeT+l64Z9j1mbZ7UPGfIwOSC/hylh0RGIVLxQ+UTz7m7kyL40EgcAg2V1cT92Q4dy9e9z0E8J3mjWcOxidkdKsTrK3ZiQ9mYuOSKyMJrK3RFldD1b75jq9NRIEAo/I3l2w9nEnb97bCo+hq2Nj2h3oiBSGyD7Iz3rrT+iE5MqUfsD0h62+u1CvjQSB4SvMX7FJd9Z29PY9TfwayHslrn05J7vlio+6fJsXdxZdHRtDf2wL4rmRIBDo/ab5azbpQDWHA/CwibJf71lWLWnbBLOFLzrJuwudkFzjNqOrY6PFtp8u1oMjQSCwU3ZD3vXNHU/Au5YK32mWXgad0KUmyW7NblnHvN/e2zFzhbee/vkGe0+OBIElZdabv26DymU6n4FXpV4rfFl8FzHFS3lXeFQPFqAjkqvHc+jq6E159+cHTHtzJAgEcq5MMH/lBg1lk1Kl2nXQ1bFxsi06om/NFT5RvMwzm7PdV/MmdHVslLq8c6ZXRwLxZ5pZpbiwTql9O3R1bKxuhY4ocLEFOgS9jm3QCckl/rvO0Jt/cc3eHQkCgWzZTY+Td3OzjdIw4VPHDfdh8xnUBZ2AjcbSptblyNmBLo6NLiUd0uTlkUD8mWbVm6e5l4XHLBkifOp42V9x4bQVvmAoaav87hwoaa/KnsO01uwtcf+rt0eCQKCJ7NgH/tvNMLwlpTG6OjaumokJJudd9J3buKk0JhgveEH2l1MreaHi89nrI0GgmvAOjQ9y6lgppga6OjZWINZItpH95cZaMw8QikcsuhddHRvblbOXnh8JAoF+fc3fg0mlLrgciIfUzEJXRy9P9Q3KMcJP4rBGeO6UN/dMlX425Wtj1Bfvg5EgEPjTJ+bvwqDkCpw6VrpmP7o8emsuupnGJOm/ko7xTDKlUQ3R1dFbtlN39b4YCQKBWx81fx8GvV/yJA19bfp7q9Dl0SsX71YUsVcmo29W72XuJFPaNg1dHb1m55dor98nI0EgMEH250mXc5BUPEF6U0HrrDsfgM1no29Ur8vvXYnBkyY/ga6OjVqzbO7ANyNBoLPwl3Q841VNfJPSY4WOZxAvvH1x2bqOR+BZuevQ1bHxov2Hj39GgkCgQPaZZlYnvmNVekz4b+vkGc7ef9uq6DvUSxjLuS6lhcJf6rUOpi2In0aCQCBTdpPSrnd1w2Uj3OCHhXfZ6f6Sczef0rMX+va0+rB1ito/hK95mP+RfoLge/4aCQJpzcuavyGDKvNUD6VZtRajy6OX1duZG+82txn61vTacU+MkvR10P2fzQnuRnw2EgQCsTtkNynl/ky1RW+jq2OjVH0H7nrXGfRt6Y2c6MBN+8Sk5ejq2FgX9I85340EgUDuQ33M35Q5STzfUi1e+F79PY2mG77jorXoe9Kbf3dQ7xaiUs4B2f0NrBdD+DHnw5EgEOgtfEnXgSB/sEWjvbJf71n7N5q827jr0Pdj40Y+qkpz5qOro9flq1Duxpcjgfimx+ztrla8W/hKjLdqmrrVqZvQ92Kj7+XHmdCP7shHV0dvdojHsPp0JBDf9Hi8mCMS5SlcJ/r1npW0vJ+J2xz8iPDuBFmaLjXRLvtX6OroTdkR6qpfv44EgUBqB/O3ZlJVGUckipQtfKfZlN3VIr7HbbIbpFgjhxkopE8VCt/FGs6POf+OBIHAfw6ZvzmTBByRKNZO4b+9qzeJ7P5uFj7WdVxqpo5+VPyF8PeXvwnn/aWfR4JAoP0fzN+eQQ3PowMSbI7s13vW+M/Dv7fO9dBXb2MAz6ZUaiJ8TcOZXWHdlr9Hgq9/g8ueOt7yGDoguVKln2l2NC7MO5vbFX3penW4zlnp+cPo6uhN+SLMG/P7SBAI7JO9gfMdTsspiT/TbPPUMO5qXnf0Zet93N54IX1j0Vl0dWw8GfZqL/+PBIFZPc3fo0k800ztT+3Q1dFrGPIJXqVvQ1+z3rRtDpTRJ8ZJX/XboCj8m4uCkUD8d8vk3ezzqCR8Z0iIb2WFP4nW6FFO1dEH9glf9RvZLqWoGAkCgfaVzN+nQdWPp6ETEmvJHOEHuKwNupNUygPl0RerlcCJYrXHhK9mK/9uZNvBo2QkCATmVTZ/pwblB9NCPEqlDkBXx8bWxKDuQ/pEcfjvmP3v5nfQ1bFxX2KEdxg1I0Eg0FT2+ZZD2fpXqXYddHVsbB5new//ED5RfJuxJhr+M1z6mWTvRD7LH0UjQWD4MdFdDFq+7vwRiZ41Rngb+Ib36A8hmin8+luEtwg9KnSbMAJdHr3DJlrXRNNIEAh8+bH52zWIU8ca0ncd65qUthLenWDKbsF/tGjXyH6vbKo7bnSNBIHAFbLLWp3Hhqu1WY8uj96//qa48Obp6EvTq2Gko54//ekTdHX00k31KYi2kSAQmJBn/pYNuv0cOiC5coSfR2e9XdKu42HCf8xkcYJAqV8pdHVs7DC22iv6RoJAofDpn5PhNjGIAhek/2V26nzZFT8vfCfZqeshhfSEnLHCzySr809zNxuFI4H46QJrk/1KlKiVPRRdHb2uP9t1XFv4ycxTvpD/1woj/W1kO6NtQaJyJBA/XcCtnhrn/o4uj173Hj9e6kH0tdjgBIHati3o6uiZbgsSpSNBINBU9jafR7ehAxKsyRp0efTaTf72MtucQl+I3lu9wXUUrPRb6Oromf+uGLUjQWDcU+Zv3aQNX6ITEmyl7HHcemhR4AbhDZN4Jpla3C3o6th4YJbxe47ekSAQSNxq/uZNeqY+OiG5pr6Cro6NM+gL0Bu9D11BuTpLbzlap4oDdx3NI8HXvwFlN6bLm+GhLN226Gl0ebyr/IdsNadSPEN2VxprfLwj9x3dI0Eg0EP2ueKn2ARA7dzt6PJ41KH/oEsnV93q6OrozW/u0I1H+0gQCIwabT4Cg8Y/jw5IsDbCzzoW6Q88k0xpovBdgNaAyFpPa3AkCKR2MJ+BSW8nohOSK0d6w2pxKs9D10yu3m+iq2Ojalvnbp4jwddi7ksyH4M5i1dzp5lS7TtF106Y9H2D0QUTq/460a2KLauLiZajShwJvvUn2buOGz6CDkiwot+gy+MZ76agiyXXiWR0dfTSlzp7/xwJvid8S+FzL6EDEux64Us2ZUiqE4MulFw9ZDcdsBLedXq1F0eCHw2RPXWcFfRxudGnWPoXOgH+wJajSpOlTxD0re14BhwJfpLaWHbT4638TqdU/3XhL3nBpt2KrpBcw6VPEFw1xoUUOBJcKqaO+ThM6ml+k7lvfCn9ex1QM1PHmfiR8PPNrdtfcCUGjgQ/11721HFXNilV2yZ7lyBOB04UK/Xojq6OXlmndpJdjiPB5YRvLhl5KzoguQY/LHuqByKJLxXVJrdDl0evayPXPk05EvzSHNmfJ5w6VptVC10daT7h06I0fAW6OjZecXEjEUeCEqReaz4Vk5zcauh1cSfR1ZHkuR72iUWtlcInCE4ucjMNjgQlqv2G+VxM2jwVnZBc5w6jqyNFQ04Uq10Ufo7QwK/czYMjgUJRA/PJGNT1rorohMTKaF4WXR4JFrv5bsFr4oV/XZj/aprLiXAkUMm4+L75bAzaf30GOiKxcp6dgi4PXNVEdBXkKjiKro5eQmPHWo4qcSRQq3al7M+Tw84cWeELtWtEd2O6w0XoCsjV+bcL0OXRe8OJM8nscCTQqX2n+XhMOlmATkiumlno6uCcOs3fiyrFB/egy6PXADOIcyTQ++wD8wGZ1Gk4OiG55rVAVwcj+YSv/gTNai77na9V9jQoGI4ENjKayD7ObsTK6eiIxJreSPg6QSe0PFaIzl2uzHLo8uj1rwD79ORIYKvaDvMZmdRiIzohucTvHTLuqmx05nIVnEVXx8a6XFw4HAmCECN8d8FvuI9UKVv4MhGz8u9A5y1Xbil0dWy0642MhyNBUJ4fbz4nk5Y737/csz6XvTPEoNHsT6g2Q/gRFmfAB0xzJAhSE+G7lXa4vwLZM3YJP5DKkA5OH2vlYU3WoKujt6cpOiGOBMEqniF79VnZ41w5qDJ4X0d0eRx3JBGdslzt16Kro7egHn47OEeC4BW+bj4sk253uVOJl6ReK/s8ukg1+DM6Yblq10BXx8a9ceiIAhwJQpMtvJ25u90LvSX39Zbo8jjm/b38PagSu0N2pwBrWSY6om9xJAjNHcvMB2ZSJzYpVcq+F10dZySMjUVHK1dd4fN7HdugE/oeR4IQLVk623xkBnVt2g0dkVyZXdDlMS/pyX7oWOUqEr6TrPyHYmb5ORKELLWx7FfOz72ETkiutLtlj+Ohq1QTnalciVXR1bFxi6CDRTkShCHmkPnUTOJOM7WU1ejqmLTmenSecs3ajK6OjbWPoyO6FEeCsLT/xHxuJtUQ9GVDmrbXoatjypSx0fC3FqYhsk8jt9Y0Ryf0cxwJwjRP+G6lxmJeQMqTeTu6OkYs5wSBkvQ/z4Td0j4mORKETfiXjo5z0AEJdtz7O81u4ytApdKfoKtjY528QZwjQfhSd8ieOh45EZ2QXDmN0dWJzPsX0QnKlbgVXR0bZyX2i+VIEIlJ68zHZxJbFKv9sy+6OuFLOBhFf2QhGvcKujo2xsvYSXY5jgSRGeNAgCat47ElSv/1Gro6YVp3AR2dXI26oqujd2YXOiEFjgSREn4MUt4X3ICq9LuB6PKEod0YdGxiZZwWfmDpaLn7PjkSRE54x9vqwpariXLcazvNOPmj9tVhdHVsdGiFjkiNI4EJE2Q3rB7PJqVKsQeFn2DyM6OHoPOSS3xbqb6iN/lwJDBiaifzOZo0tACdkFz1j6GrE7Ses9BhiXVB+tmUG6BnU9rjSGBIW9mnZS+o1xmdkFwFwqf9v/eG6O+UUMUV+qOrozftanREdjgSGCO80eWIRhXRCcklfNr/G5W4k0wlQ/hMndXwkcHojGxxJDAnrYzs6ccz1/M8E5WM+6ujy6O15VZ0QnKVFj5RvKCeFw4N4UhgUuq75c3nadDhInRCcsUKfsEwe8gSdDxixdyCro6NB2eiIwoKRwKzEo+YD9SkqhKOTBWq33J0dUqW8GwOOhqxUnqiq2Nj2b/REQWJI4Fpzwv/rcrzLdW+3ICuTglKyetWJkYb4Z0Em3mnDSRHAuMyjq83H6pBDe8Ru88R77Et6PJc5kW2jlLKFH6o+OJaHlr1y5HAATnXmk/VpO490AkJNkpSs/Hx59BxyFUwFF0dG08vQkcUCo4Ejqgi/HzLtVySqDSr1mJ0eb5X9jgXe6mMq7cAXR69w/HoiELDkcAh8R+YT9akQ4nohORadBJdnW8k3MjegUpzhbccXeO58yM4Ejgl47Ts7S7lH0hBRyQXfpdg0vJcdAhy9XgUXR69VTO89yHIkcA5xbtlNzfr2hSdkGBtsLsE/9AeHYBcYz6GlsbeJi92duFI4KT66/qYz9egkbeiE5IrtkIerC6PDkPfvVyFD8n+m7KOerPbI0cCZ4lcoX6JPwjvkIiUux1Tkzz+VlMqriD7d7bUsyntcSRw2s588xEb1KdUfXRCchUAWt73eWY4+rbluij8TLJTTTy72osjgfPmNDMfskHJC9EBCZbZwOVq3MQJAqWiSi4XI0SrVnr4s48jgQtmrTafskn7r0EnJNjGMy5WYs316NuVK0b4Hh3rWCE6okhwJHBFW+ENE7M4XaA0/YRbZ5NOuZF/Oyo5jRNcqkKYvH4sIEcCl0jfacbpArX6K1wpwaHa6BuVq0y6KyUIW75XWo4qcSRwzUXZO82SJ6ADEmzya47n/38e607gpt/DN/rppZdBJxQ5jgTuqdhohPm0DXruVnRCgu10tu/lSDYFVCp40dHoIzblgB/Oj+BI4KbOnczHbdLHX6ITEmyOc01KOy5F35xcuaUci92MOv9ER2QERwJ3xb1tPnCTvL3+wVmz6jmTecIOP3yndEas8I4t/mkLwpHAbUWyzzTb48HmWa6Z2c584C3XsdWcSsbx6uYDN+lR/7zU40jguoxd+82HbtCp057dJ+m8Yd0Np73BG+edQ2SWMxy2YV3vGYyOyByOBAAVJ8ieOvbaIRtumn6wv8Gkp21D349c2b8yGLQDFnzqqxPBORJAjNtkPneT3o5DJyRXv76mUl51D/pe5MpdZyplhxz12Y85jgQgcVXNJ2/Qgk3j0AnJNcbIssaWnXz1ndKo2CtN/vJyQP4gdESmcSSA+Wyt+ewNGjEXHZBgz/8r4nzfuRl9E3K1WW/gAXaQH3aSXY4jAdAu2T129+9CByRYj5ERZfvoRPQNyDVR+ESx9cAsdEQO4EgAtVD2aukGn6EDEiyCVjgN96EvXq7sqww+wE441BYdkSM4EmC51NwsbFsT0QnJlbMjzFBr+fE7pRmF0ieKb/8cHZFDOBKgudDcLCIdUtAJyTUpnGVERxehL1ss8TuKZ9dFR+QYjgR4f3W2uVmkmj3so/0zprUP9RittY+jL1msjObCdxT3rxCLzsg5HAkkGCL7fMuRw9ABCTascghJTrsCfblyDbrdqefXkHUX0BE5iSOBCKkdepkvhEFZY9AJyTX4fMcgU9zfJA19sWJJbz1ttctGR+QsjgRCtBV+Smtf9klTSm0cTIINuUFDqXC7089vhPJ9v+qXI4EYzzcwXwuDEsb6+CVppCY9aZsfFwwpFZ8QPlG83oc7yS7HkUCQurLPt5x9HB2QYPH6ZuNcMKTWpKxLD3CYEnxxJpkdjgSSFAtfRTfwHDohwcqozzRb9gL64uT6TPZPYctaPgkdkSs4EsgifWfN2QJ0QnLNUjSYZctRtUThZ/hZT0TLWgmOBNJkO3AulkEtj3HqWCmxTtIvA1vBlqMqKU/JXjJnbbkaHZFrUCPBf5y+MQ+bKHunWcKV0fDaNExjLj9e5arJ6EuS6+GukAc4aKObohNyEWYkGPSWdV0/52/Os+aE39zMDelz0AEJdsWl0/4NfNfG3pyQtuQhrI6qPiuIkaDg20Naku9y4/48KieoFeo4lbnrWKn4QML3KT03D30tcvV+E/oA2zsbZcf2uT8S/LSJpHv0vIQLXRAr1KGy2D9HqX69bxJqNgp9HXL1E74wwrr9K3REbnN7JCieseeS/5RNDDTaZ5mvjUk861jtfxv06RRV7xZCEltB+NmU69tkoDNyncsjwdLL9049xJUoarcKf5P6aWd0QnIloi9ALuktR62oXBLh6khQpoTTGhOejcbYg3VevVtJgryD7EBBoXn+7+in1sahGHREEC6OBD0eLfm/n9/G1Tv2llaK3UpSVG+CToi8JPEI+om1cVtpdEQgro0EmZpN5ex/r9G2qvkSmfTB8+iEyCtSH0A/rTbO7EJHBOPSSPDl5RtuLsOpY43MLuaLZNItVdAJkRekLQ32IAeQrnd1Q2eE48pI8L9v2P+rJ6Ojz1N4lso+08x6l3M9ZOeFcujH1MbqqG4L4sJI0O+ZBcH8s4TGqZAEPEH6mWbzX+VpXKSzyIFPGqOibSfZ5RwfCVr1DPofpi8FheAFbU+ar5RJA6NuKw4Fb6rwhQ9Wg3h0RGhOjwRzQ1oGOW0bKAYvODfQfK1MOhnlX6pIaVRD9MOpd+oiOiE8Z0eCbd1D/ccfc+pY7SPhM248oJFKsE2xfFyKvBlspO/sSFDwYDj/nEenq+UMMF0ssxruQydE0mRvQD+VNrZzp/w3nBsJOm+3/09LFB3HhoYp8ZDRWhmXPxGdEEmSWwr9RNo4OxMdkRBOjQSxM/LC/z+kl0HHItjn482Vygkb+H6Pvhe7O8H+gUHq8nt0RGI4MxK0OhFhk6mBPOFD7fTlbfyEYVdB+pb0VnNl2SrlJ46MBPevivz/8iKPTldbOSLygB2UcCUb09E54T9eV63kRPElHBkJzPx/akX1lj+9zsLXZ8/m+70oF3cW/Qza2MSJ4p8RPBJYDecORscjV9x1hlJ2yLJMdEKE07lTUH0FcKpy88tlJI8EljVyGzofweI13V0l4Pu9qNVI9ttL7igugeyRwLI2TEYnJNiuMwaTdsD2QnRCBNBE+IqGKG49rSF9JLCsdcPRGQk2V/Y2/uSDnJSLNo//C/3U6TWci05IJvkjgTViFDokwcZtNhu2aWu4UC+qxAk/V8nqNA4dkVAeGAksa9pj6JgEk77rmO9ko0fnTYvRj5ve04noiMTyxEhgWe9wT7ha0U3mAzeJZ5pFh+IZwieKu3A9m9LF+ebzdmIksKxjnH1Uu76FE5Gb04GHEPlf81Pox0xvdnN0QnJltnYicWdGAit5Nzeuqs1IdiR0Uzpyp5nPnTuMfsZs3MiPD5X6NZyJ3KGRwLLevz8DnZlc9V/v41DsZuSzk5SPZb+Ifr70kmrwmHSVlMb9HUrdsZHAsrq8gI5NsMlvOpa7EQ9yrsenctehny0bn7RHRyTXCecmdxwcCSxraDY6OcGunuZg8pFb0IlbQ3wo50qnvlMaUvkadERyDarsYPCOjgSWtY49j9WEHxg7oik6IDKtzXr0U6U3gjvJlP7H2Zd6Do8EVvJCdICCTQ33pDiX7N+ITohMemEZ+omycYy/Q1WmOr0r1emRwLLO8ONEbZEDW0RMWluETohMCe+kche9zC6IKsUOThB8z/mRwLJuK40OUrAXHFkcbE7VtuiEyIRC6WcUD/wKHZFcbVw4T86NkcCy3ohBZylYmY5ulCB8m9n8xfsWRnBSuRvW10UnJFfpD9yogDsjgTVlRw46T7lSD0xxpQjhati0Gzoiioj0jujJ/HhQGl4qyZUauDQSWFb6HHSkgk3q61IVwsQm8V72mfBTkqy+XGGodI9bP+ZcGwksa9kwdKqC/ddrrtUhLDdxrsejYm5BPzs22nEnmdIL5Vwrg4sjgWVljUEnK9gfB7pYiTDckohOiEKX2qE8+sHRG8nvh0oFbrYFcXUksKw6nDpWa1PW1VqEbPUsdEIUoqXN0A+N3ujz6ITkGn7M1VK4PBJY1rvseawUe1B2k9Jm+9AJUSjukL6TbDWXpSk1WuVuLVwfCaz0fYPRIctVuKKl2/UISevfoROiYEnftWgdSURHJFbaXtdXe7k/EljWyCvQQQuWPdT9goTinZvRCVEwWm1CPyk21v4NHZFcOwFzhoiRwLLaTUZnLVi8e+sFwtHyt2wOI96S88InCLguWa0oC1ERzEjAJcRaF9dgihIkNimVTnoLk1Ur0QnJ9euqmJqgRgIrb0YxOnO5ig/K7iL/XA90QqS26F7086G3oFNndERizfp0AagqsJHAslrwB6Jav4fc2WMerqze6ISoZLNqLUY/HHr3suWoStoQ3Es94EhgWf/3ODp6wXq3A1YmCMv7oROiEgyRffyRNf736ITkykS+1IOOBJZVpwo6fcE2dofWxk7CF7HohOgyL2xBPxV61ZujE5Ir5hC0NOCRwLJ6cuOqWlOXd5eEqCxbCYsy5h30E6GXXIHfHVRirwQXBz4SWOnnudNMafh22TvNysWjE6If5Jbqg34ctPo8U4iOSKyMuu+jy4MfCSxry9XoQgg2eQO6PHqc/5Mh51nZnUqsdtnoiOQqOoyujoyRwLI+ZmNatasfRZdHrx7XBOLNmY9+DPTy2aZEKfFtdHW+IWMksJKWT0LXQ67BD49G10drxISK6Iii3EThrebWl0lDRyRWas9e6PJ8S8hI8LUDPMBOaZzwJjL7N6ITimZ/Er7e2HqWf9pKYvqGyxkJrI5l0FURbNFRdHn0KhWhE4pWMXXQtbfBn/tq26ahq/MjQSOBZbU+h66MYJ+PR5dHb2siOqFolNIBXXcbb/KcQqXSb6GrcwlRI4FlnW2Lro5gwhvTWbV47ojbRkl5t6AwkssClRK3oqvzM8JGAst6l+8U1VbK3mnWcC46oOiyU867hRKNnoNOSK5xm9HVuYy4kcCa3yYDXSW5OtdDtSoMTuV56ISiR7bwieIFm9k+QKViU3HtoeSNBJZ1eya6UILFnUWXR6/BZ+iEokPn7ehK2zi6CB2RXLsEvueVOBJY1ttsTKeWKXzq+O1EdEJRYIbs94TWo39EJyRXe0kTxT+SORJY1gBOF6g1KYsuj95qTh07S+J3ykutugedkFy5fdHVKZnUkcDqeDe6ZIIVH8xD10drD8+3dFBpyDm3Iag3FR2RWLEHE9DVURA7ElhWF04XqHXuJHvqeP/1nPd3xqT7ZJ9mZ22YiY5IrIy98JajSoJHAss6yUkntYKh6PLoNXgenZAfxd6IrquNkY+hI5Lrbw3Q1dEQPRJY1qZW6OoJdk741PHRX6MT8p26wmeIuo5CJyRX26ro6mgJHwmshufRBZSsufAPhu256IR85VwXdEFtdOIEgcq41eji2CgOPIG+BBtbJqKLKFjslVInoL6TfJDnFZoSJ6KNvQYPLVKb2xVdHRt/+PoiXzqFvgob79yMrqNgF5ajy6O3vg06IX8Y1wldSRu3s32kUo/n0NWxsea73gDF7wnfptLydb5lUJPedaDLTnRC3jd4ruzDiqzqx7lWTKV9JXR1bKxaWPzDtQ6X/oUjgYddaOzMR9dHj4eTRmjbSHQJ9RLG8iWgSswhdHXsbB5+6fUm1uiDviC92UMGo2op35Kls9H10Urq2w8dkYdlC99J1qcUf7KrVDsgeyLP6vNk4uXX/KXwlwzWSPa5VEs9gC6P3pSxxfY3QSUoLIWunY0NX6Ijkkv6ql/riRKLd80Z9HXZ4BGJGtL3nq45zTfJoSv+QnZfEas1d5Ip1ZS8k+wb3V9SXHlxhSnoa7NRNc7VUnpLTeFvERrEoxPymoyLwtf1zZ6zBJ2RWP2EfzWz+n8xXX31teugL8/O9kL3auk5G1ugy6N3iN3GQ/GZ8E3kVuNUdERiFe+W/q16uc3c3WcfoK/QRvIX1dyppSdNEP4yYQA/O4IVI+uc21+qMQkdkVwX5baa+85vatrfxN716Ku0Ub2u85X0rOH10OXR6/gROiFvSO2ArpSNrNLoiOQS3zf8/V1B3Ue1K9EXaufvnztcSi/LfhBdHr1y/0Yn5AFzOqLLpHfmGnRCcolvCzLlYNAL+WpLn+ywrmvrZC09bpDwTmUvsoO9XuY0dIn0uq7sho5IrM6fLkaXRy/EzT1F0ndI9+o5y6lael/a3bJ3mi34lE0r1QqE/6hb8ClPJ1Upln7AtJXVO9R72iV8HYrVbB93HSulNpa9t7FrU36rLFnu6y3RxdE7ypXcKmnHpU8UV1btINApXim865WVz10talWELz15bhg6IYlynu2PLoxeOW4KUfrrQHR1bHScWzG8O2v1oewvlpb1Jne6q0l/w/fJn9AJibNU+ERxWS7bU2r/Mbo6NpKvjGAJd+529OXbKVXfXC19R/qqZrvNLVFmXmV0QfSSd7PlqEo/6e2hrE0R7smNOyR8GVHeDPY2Uyr+QvbLhv4VuE3wB9J/wrU8xu39KsW7Zf+dWX3uS4z8LqU/oVaLG9jbTKnfX2SP5O83YfG+ESf7vHPLOsmzKVXEt4cKY8FQyW6QfqMN2KRUjY3p5CvcvgBdBr21LJJSkfiWo+b6+ctvp8TeZhriG9NF+TbB4i+S0SXQOxNcc4KoVKUOujo2khcavd9+T8p+yWCV/5C9zZSmn9iDro9WrweiuHgZp9eg89dr9gj3fqjkCN+3Y/V5xviSmtLSpwvS55i+ZR/J7Ysuj170Fq9oLTp7G9zMr9Z8Pro6Nj5x5AjxXdKnC7r80Ynb9onewqcLWv8OnRBCbeH7//osZ+tppfhl6PLYUJ5JFqli8U1K37nZoVv3gyuEL1ePvuLl7EBnbuO1/0JHJNeio+jq2Eie4eDdyz/TbMVwB2/f6+4Sfo7NsVx0Qq5qI/wkkC38ja00bjO6OnZKXXA2AfFLplZN0JzOGe06b5LdMrf/jTnoiFwTL/xsyvQhPKNYZfAjDdHlsVHJ0A4CjYy9ZdF3aaM7T9FQi7sFXR692UOio8Ns2+vQSev1eooTxUpXCD8/wmrhzrLfnCuFb622soI4pDNqSV8ENrIHOiHnjXuqFzpmvaejfIuHTrbwtRfWHvca8OQ+0wd9t3pJT9Z2KwsP2paPro/eWp9vGa94l/B3C10y0RHJVSj9s2/Bbzu7mYf0w3Kt5BvZ20xpyd3C5yqf9nOTm+u7o+PVm18mDR2RWMUHhS+6APSHypS+mLb6/extppQzVvYT3XKFX5cRSd9JVv7d6Jm0D9kNwvu2WIcR/aHSmldH37eN8fyRqya96Vn/g37sNh53Fp2rjbfZwEuptPBB3GpxGvTlN/YL6Y3pznLiS61A+KfSqYvohEzr3AmdqY3bn0dHJNekO9HVsZH3HjCdC+JP6nkqinub2Xpe+OaQ3/hqDZj4d8yz96IjkitnALo6draD99T2fgKdgI1mH2EDkm2X8Befy/2zBqy58H04PJtSo0w6ujw2XhawxmLiFnQKNvIHoSMSbHqjVej6aCVf6Y81YPGH0UnqtVzHsymVxLeaWyZkRnSf8OXR1tFF6IgEG74CXR699XXRCUUu7m10ijauykZHJJf44glq6d5qNToMO5umojMS7MuP0eXRW/s4OqHIiJ8obn0HOiK5xkkvnnWtqGW/baWPm6vuQUckWQ/hm53ejkMnFIFGsg+Mk/SVUp6mXdHlsVFD3AES0tvZWFseQ0ckWLe7RqDro7V4k6tb6A26fj86O70pO0R9pZTlaulzoFmOnEkWqR4j0bnYeG0MOiLBhq9Dl0dvxEov7jR7XPr3ozrivlLKMWYDujo2lu1ER6QweEhHdDZ6LV/nAgm1ycIf/BZNvNY+JOYQOjMbWfxupNT59Zbo8uiVldwfKvVAMjofvbwKXDStNlF43/VyQhbLBSfn3QR0YHojb0VHJFfFE7JXV8v/JMstJbxpa/XmgkdStMGPCJ8ge9Ezqx3T7p6PDkuv4T3RcSZQWP4hfHZnwXYPvN0Y8xo6JhsDudNMrfN2dHlslPJGk9JzA9FB2ejEddVKRTehq2PjXgE7ioPxmPSp46Ge+WYJMPNldHn08jzQpDTuXnRKNu718rJchyUKP+DVyvfOS9JuK4W/ZOPUsc6gLuj66K0RPnU8bvNidER6yxBd7D1i3CvCDxZtOHcJOqNQ5EpvUpo8VviEC9TdzdD10Tt8Dp2QRlPhzVfSy6ATEqyR8Ikya4XnNtbUlL6SmlPHGqkDyqPro3dS6uuNf1RGR6OXMIA7yVQyTgtvzWtlTUZnFI4mwtvwcupYp8ob6PLYOCbxy5H4nWSH/oOOSK5zwvvFWqeuQUcUpmrXoqOzM3QmOiPBHhd+WN+IpuiELhdXFZ2JjUpF6Ijkyh6Kro6dsfKXSij9z9Po9OwcA5/0I9r1p9Dl0ass6juS+Jaj+zeiI5JL/umLWz1+aJP0EzqsVe9VRGckV/EM4QcuZvVGR/SDio1k9/Czuk7gg64yXfrBolal0uiMIrdR+HY96wy/Kqld6Isuj42+/dARfWuj9LnGThKnVYS45gy6OjYe7YGOyIiK0pfVWWt9MOA6Jrsdujx6/XfjX5+WFj6lYp2VutRKgN5Z6OrYSH/YN31Bxm1Gh2mnaiI6I8F25qPLo7emCTYf8S1HG3AnmZL4H71WzxR0RiYlbk1CB6pXvkMqOiO5lkhvN34Y+FGXc63wlqMtTsveko00faHwCYKkJ313gIT4M83Sz3tqF7e7Uj8UvtMM1ZMr7dX16FvXW7UQ//JMrGuEn9pqtfPlARLbhHe/t6ZJPQJIgirSX4GUugBIRXzL0WNssKXU/hN0dWyIPZMsYnOlTx2/48nN3C4p+g26PHrJV7rdR6HgKPqebRz9tcuJeEh96TsIRn+EjshB42qh47WzgjvN1DauQZdHb/0cN9MoXIG+Xxtb/u1mHB4zYw+6PDY6zEJH5KxF0ncdr5owHZ2RXBUnCN8+le9aK6nig8I/SjrO4byX0g3SdxAciUFH5LzM8eiUbXR/CR2RYJ3rLUDXR8+dVlIZ9wv/edTrAa6FUxK//eNwdPSHymguvUlpVk10RoJJfznespPzL/gyy6Hv0sZ1bR3PwLMS30ZXx8aavVGz7DfnRnTYdpbL6GEg01fCzzQbMcHZ+18k/WzK2z93NgAvS+mJro6NBA+czmpQ7RrCd5olV6iGzkiujCbC341UdvAF36xaws+mrH5/1HylDNngh4Wfxpf0l1x0Rm4r/Qk6dBvV66IjEqx4RjK6PnrtnFoPvE/4R4l1I7/CKA2TvqXp4/boiBB6CD/nj+1adMQvx17nRPPNr1qjb8tGDY93sXdS74/R1bExchs6IpSmwhfiWVsT0REJVvAyujx6q+4xfcdtpZ9J9klUfqUMTr916OrY6DoKHRHQuNXo+O3U8lUjQMMGCW9SuuwFk3eb8hT6fmycEXWEmyzFFaagy2OjQyt0RlhxwtckWqPPoyOSrK7wBcEnzfXlXyp8gqDrXGO36j/SlziwLf7XiqSfb/noMHREgsVW6I+uj9biemZasO1chr4TvcWbxhm5T18qaoAujw0elfWtjBukn/xXia9f1XLX9UHXRyvPQGO6AuHntpn87eM7Vd5AV8fGmV3oiMQQvybROhQFbUDCNuYddHn0Okb4gm/4MfQd2Dj8vJlC+lHOtejq2Fi1Eh2RKIXS/9isxuzjovaC8Db93S9GcHMrV6EvX696JDfnd83no8tj4xibH1+mQPoW/tkfsbejUtrx6uj66IXd02vXfvSl6/WvEGu0kr6SKbwvinWUb/VKEC+9rZd/jxAyILaC8BNhjySGcVfSu1a2fIZnkim1ld4BH3n8tmwX30fXxsabvjxW1JAL0ncdbw51xXai9J1k79zsSCV9YWondHVsrOFbPTX5U8cr6qMzEixb+K7jrk1DuZuUDujrtZHPM8nUGgnvX5A3I6pajoaucEVLdI309jTimWZq0hv3Pxr0Ntxu94xGX6xe9TZpTlbS2/4hvKdZy+1OdMXymZlD0WWywU39OtJ3Hd/2eFC30eM59IXqJXOiWK3oNnR5bLhzsJ73nZN+vuVtPNNMrdqz6PLYqGp/nlfRb9AXaaPUBRcq6VGJh9DVsTH+HDoiz8g4vh5dLb2kJ3mmmVrtO9H10St/rb6Ff+It6Cu08WC2S5X0oJSevdDl0Vt/nAcJhSCncXl0xfSSx/JAEDXpjV7W/EN97eNWC/8oKZfpXiG9ZvBc4X0Cyw+IvPdJlEk8gi6ajepN0BFJ1kT4TrNPvlRc+NyG6EvT41F6GtuEz+6Et6kl6n1+O7puNj5guxe1ajvQ5bFRI7GEq951Bn1Zelx7qNH+LXR5bNz+OToirxLfNIRDvEbtGujy2Oh0+f7cz4TvKLaOcUex0qQ66OrYmN8cHZGHiZ8uKN+BjenUalZC10dv1dxLW0klXoe+HhtPs0mNUuyNwvekln+XEwQRET9d0GwpOiLJrhd+VlSXHzu/jJPenOBfnyELKZz0XSx8e2CA+OmCkTzTTK34C+Hf1Y5817pnn/CJYp5movG59Jajt3O5lxHHZ6MraWMD13erXdiOLo+NUqmBIuHnK/CMYg3xb/XSj6Mj8o3YCsK/WHLPp072i+jy6FW/D30FNh4ItYlqFGn1FLo6NhJu5ASBQYWvC29M1383l/epSW9MJ9oRnpyqtGRfOro8en1K5aIz8hvpXyytNXu5i1wpo670oyekCvuwtWjw2DJ0eWy043tjBwySPi90mBtH1GLFHz0h0ey96LoJln0Vujw28v+IjsinMvYKX5NoVU1EZyRY4Xbhb/jESb6RraeVCtf1QddHrywPkHBO8ULpXyxfGYfOSLCZZ9Hl8ZS+k9AFkyt2rPBPguSDHMUdVXgMXWIbDbngT+PcYXR9POMmHoKhVld4g0MuJnRBwVF0lW1U5plmavLf8MnQXdM3O+rFS1+KxgMk3CH+TLPflEZHJFgxp45t5TVCV0mwAunvGLu8gI4oamScboGuto1DieiMBOPUsV7LYzzuXKlzpwXo+uhV55lkbio+sQpdcb1ePVPQGQlW8DK6PoJxDbpaxfeE/93nVeBEscs61xP+3WD0qG7ojATjrmOF/MfQpRFM+kFCLV/nARIAcU+jC2/jUTYpVcuoy6njX2r28BL76KJVkfDjLjhRDBMvfU1iJU4dqxUf3IOujzC9VvOVolLtO9HlsVGOraeBLp5C19/GoSroiASrXwpdHlGO8kwypWrPoqtjo3pddERRruJ7I9DPgF7CtWxKq1YwFF0fMcrF28cVrTLuF76TjBPFAgyXvuuYJ1nrDOLU8TfK8iulWvzf0eWxwdbTMszcgH4SbIznG0S1tDbr0fWBm7KDXymVqryNLo+NdpPREdEPfpePfhpsnG2LjkiwnBuje9dx0n1sNaeU8255dH30nuMKQUkGjxJ+InmvnrPQGQmW+5ckdIFw1rZHxy9XWpn56PLo7WnEXUPCTP1U+E6z9DlcKq42JgtdH5D9G9HRC5Yp/HCqPs/UR0dEvyR+uiB/EDoiya7egq4PwKoTFdG5yxV3El0eG1m90RFRybY9in42bBydiY5IMulv+MzbzlZzSimr0dWx0YK/5gR7RHiDKqveVHREgrV6AF0eV718MzpwwZoK/1qQfAKdEGlNrYd+RGysugcdkWRtq6Lr45rxX6HDFmxeZXR5bJTiBIF4M9uhnxIbI69ARyRZvPRjiMzofgO72CuJXz7ACQJvmCh9d0E7PkhqGeLPqI3c6KZce6hUWKoPuj56PFnUM5acT0c/LXpcfaZTzec7zRI+ZMtRpeIv8tD10RsxgaO4h6R2EL4zMe9gMTojwfo96d+dZn3+wh3FShmnhTcXXlBvHDojCk3MIfRDY6PFLnREktWU/qo4XL8ag45WsNLSDxy5l43DPaj0WvRzY6NSEToiyebtR9fHAdxcqJEovdUcG4d71UbpHyZ31kZHJNj0hcLfGIcsfQgbjiil9OyFro9e2TZc7uVZFRsJ32nGc2x06j8kfBVJSBY/xSaESoMfboauj17ys2wc7mmdOwlvTLe+TRo6I8F6+2e64CQbk6ttE950Kmk5z6LxvJln0Y+RjYH/Rkck2bwW6PoY0fr36CAFG/MEujw22rFxuC8MEt7b1vpVNjoiyU54f3dBs7vRIQqW+xC6PDZG3oqOiEy5KHyVsrWca8zVLvRFlydC3EmmFjs2AV0evdlL0RGRQcXv7UE/UTYap6IzEqy99F5SOjWqoOMTrHlZdHn0Eq7kkg6fGffKYvRTpdfx/GB0RoJdMQ1dnzBl8RWzWnw5dHn0+pTiRLEPJUrfdTyNZ2OrDR41Gl2fMORvQ+cmWNxRdHlsDOX8nU+VroR+tmxUKo2OSLCUp4RvPfqF2Ty6Wq1zPeHru8tloiMi51whfN2ydUsiOiLBEo+gyxOK5AN8xaxUsdEIdH30WjThjmJfGzxnNvoZ01u8mWfbqhVJb1H2oz4P8RWz2vXC+8CMeK8iOiJyWs4O4cvWRqxERyTZRukLgr+z4Ut0UII9Lv0tbSeeNh4VckuhnzQbLS6iIxKseIb0BcGWNXIiOiXBEreiy2PjUCI6InKL+HY2bFitIX1B8OyPOFGsJL7l6Hi2no4qL1VGP3F6SWxYrSF5QXBCY04UKw2eK7zl6PrjnCiOMtMbCX/JkMClJxpSFwQn1WDfELVhI9H10eMoHpXqvy68+z0bVuuIXBDMHcUa7aW/k72FfUGi1GTp7Wy6cHOL2pKP5qPrc5nneqAzEWzSfUno+ug14ARBFLu1O/r5s3F0EToiwXKeRZfnUnuaovMQLHUAujw21u9FR0RQ3VYK3+u4eDPXNqvVriHli+aC345DhyHXEun7ORMOVENnRGjDt7dEP4d6DeeySalaTRkvnx8sQAch2GPL0OWx8QYX6tHXJm9AP4k2HuX7Z42N+Dd8I/+IDkEw8WdTfvAZOiKSQnz3+4/ZvECjaVdocdJ5qpXapOXQ2th7nxv66SeD9wnf8dLnmfrojASbugnX4XgKT5tTy3lW+CHUebuL0RmRLK0eQD+UNpIP8plVK3gQVJa+fMWsVmY9qCrBWncBHRHJ0/Zt9HNpo8UudESS7US84Ws3Bn3bgmV2AVQkFFk8k4xKFN8A/WzaYGM6jW53rXK5HOV+h75nwdqedbkaocpnw1hSybhBevd7NqbTGP6Mm/1DqrMZiFrqh8Jbjjbbx7XZpFE8Iw/9jOqxMZ1Ob9ca0yXfGIu+WbkyXpXWCOQyvXqmoDMi6TzQmI6Nc9V2rXGjBklP8mxKtfjxbtQgAkcS0RGRF4jfaTaejenUYg86P11QiS1H1aoccTz/yBzmbBsFaaLEjseXerotOiLBhm9yNvwz16DvULAc6a3myp5GR0QesuQj4S2zFj81C52RYHEOLggesbIb+vbkymgufAfBHu7KodDkHJiCfmr1mg3hablqTp1p1uf14ehbE0z6BMGC7Z3REZH3/LMv+sG1seyv6Igku9WJkxLf4gSBWozg06W/dfbX6IjIm8ZIP9Nsw0x0RIItOW+6l9QpbvJWS+lZ3nDchpXjmWQUtsdao59fvQWf8hwbtVm1FhvMesqzfMWsNHiU8BaOa+py7TVFoo3wqeOuo9AJSbboRWNBH/kP+mYE2+bEqziD8jhRTJHK2SF86njkNnREkg3KNxJyVmn0jQjWXsa5cUqcKCYjxB+28SbPsdGYE/l7i4E70TchWO06kT/BjhrKiWIyRPrUcZ/XeY6N2qyekXVD29+Er5iVxK+25kQxmbRT+KHcPMdGJ+5k+Mk2m4u+esnaCG81x7MpybAlH3VEP9V6p07zm6tauKemsGmlzu+En0XTvwK/H5FxKdLPtzx8Dh2RZMfDGcm3/g/6sgXLvsr4I2zWun7oiMifqkjfRHmyAB2RYDm7Q21SyqaVGoWvt3TkGTYmiyeLkmPiP0A/3zY2cb2cWufVoUS5pgn6egUrnpHs1CNsxpl56IjI1zJ2tUA/43qr3uOrUbWYUsF+ke26siL6YuXKOC38lNeG97BhLDmseKHwb0Nl+V1Wo6BqUCGuHoe+UMGeF95ylNUjV+SuQz/pNhpwCbXGV+VsA6zKg4DU2gY3luIM5WwZuUT8+ZZV49ARCZa2VL+MKJ8DqVrK6si26TluGatHLto2Df3E2+DUsUbqU+rgut6DvjrJRnV17xEOx/wy6IQo2hhoZ+Oortwbq7HoQUVsfXkmmZr0lqPWgRx0RBR9WnVAP/c2KvNgFY2J3UuI7OzN6MsSbMzHrj/CoakRg46IolPMVvSzb+MTHraoMeHyNx1vcSeZmvh1EjxZlHBKr0U//3pJ901CRyRYyoBL+2ieegl9PYIVV+gPe4iD8hyrR1C71qD/Bmw05qtTtUk/fdEdUA19MYI1Lwt8goOwpyk6IYp6FVeOQP8d6M0vk4bOSLDsb6eOWz7EsynVig6jn2G9xa9wJxkJ0Lke+k/BRrl/oyOSbGd3K4unWqn9z9vo59cGN8+QFAVn0X8NNl7ktksNTjWqpfZEP7s2xv8ZHRHRT+LtWxhAteSh3hS6JefT0U+u3imeLEqyZOwVPnW8asJ0dEbkMdLPbM37go13SZzi3cLP9t5/DToi8pKb30E/sTZK5aIjIipJv75J6D8Ovaya6IjIK6b+VviZZO0moyMiUumdhf770Ev6C492pSB0u0v42uhHb0VHRKRzzX7034he/93cQUV2bn0U/ZzqjVjJM8lIuOkn9qD/TvTWXORyC9KZ3A79jOq1XMGGseQB9Z/pg/5b0WvATmukVH+d8Md3AycIyCOkTxdYh6qgIyKZxP+kHbkNHRFR8HpURv/F6JVnYzoqwbySTm0QpGvTweiIiEIyIQ/9V6PXcQg6IZKm91vop9JGvanoiIhCVbgC/Xdjo/VEdEQkSe5f0E+kjXd4ohx5kvQ1GFa7bHREJEXOjmT046i35Wp0REThmpiP/vvRa/l6IToikiCtzHr0s6iX/jAnCMjDlnw0G/03pMcmXhQIZApvNZfwbio6IqLI5BwQ3phuzV7uNItu2b9CP4N6SffFoCMiitykvsK36pSLR0dEOIWvC281l8WThMgnxkifOj7JAwCjVPEXwlc7529DR0Rkzu+En2m24FOeaRaFMuoKP19p9pwl6IyIjGojfHHGiJXohMhtmYfRT52NA5woJt+JHdsf/Yel1/0ldETkpriT6CdOr8/ySeiIiJyQu0763BzPNIsaKa8sRj9ueu3GoCMickr2UPTfl17Scp5pFhUGzx2Nftb0ujyGjojISYOE7zpOrsAzzfzv6i3o50yv40ecKCafW7K0I/rvTO/909xp5m/Zwhc19+rAiWKKAqkf9kL/rek14E4zHyuUfibZdW3RERG5o+3b6L82G7fwTDOfqjhD+Jlk4/k1hKJI/Hj0X5xe+QH8ge5Hu86gnyy96vfz1SRFl+Zl0X91eh3LoBMi0/67EvqpsvEslytQ1Kl2pfCjQZZloiMik2LeQD9Rekl1aqMjIkKoXSMJ/denN7QAHRGZkvJAefTjpFeJ2xopatUU/nO95XY2pvOFwQ83Qz9LemeuR0dEhDRvP/pvUG/ViYroiChit05DP0d6eTN4ch5Fu/eEN4g/1QSdEEWm/R/Qz5CNdRfQERHhdd4svBfY2tLoiCh8k+6TPhuVjY6ISIa4I+i/Rhu3JKIjovCkNk5APzx65bhCjehHRWvRf5F6vR5IQUdEoVsyZzb6ydFbU5c7yYguNU/47s9mo9AJUai2LUM/NXp5JzhRTHSZbtJbxm/Zho6IQjFzA/qJ0VvQiUuUiUogfvNPVnt0RBSs4b8VfkDe03HoiIikirlT9jqPpPt4tKwndFs5Av2s6B1my1EijfZZ6L9RvQQ2KfWAHs+hnxO9/bs4UUykt036yYLnB6MjIq3ewr9NdF3JfetE9s43RP+t6k0bhk6I1Po9hH4+bNSaio6IyBtmPSV81zGnjqUq3t0f/XDovbwIHRGRd8SdRP/F2qgTg46ISrBrDfrB0Gv9AjohIm85NxD9V2ujJ3cdS/OZ8J3q6TwHjyhUaW3mo/9y9WaXSUNnRJdIFN69qtcDXHZGFIYc6d3DurB7mBgpq3uhHwe9qm3RERF5VRXhR89aJzn/J8Jg6a1KxvNLA1EEihqg/4b1Fq+ehY6IxJ9Jtr4Nd5IRRSTjtPDlIM3OL0FnFOXGCN9JlnBtDjoiIu+rViEZ/best+x36IiiWe5y2b2qrDeqoCMi8od+fdF/zTaumomOKFrF7hC+qqDBZ+iIiPxD+guAlp3YQgAgrcx6dOX19m9ER0TkL8NGov+q9VY1QicUfSbmo6uut4fPBJFp4s+kZathd2W3Q1dcb/HmceiIiPwotfEU9F+33mEuGndN7kN90OXWq8ozyYgcMulJ4etEXsxGRxQdcp4Vvp7scBE6IiI/k36mWZ9nctER+Z/4ieIzN/BFIZGzrhY+TZi8g43GnPXXcuga6414j2eSETluyZCO6L91vY5DeL6lc6RPFC+o1xkdEVF0SB0gfDsRz7d0Sv1nhE8UP82JYiLXTKqB/ou38X9/Q0fkS+9Jnyjm6jEiV7WvhP6rt3GI7WZMm7cfXVS9NXs5UUzktluF7zou/y6njk3qLXzZWN7uYnRERNFo8Cjhx5N0XMqG1ab0+4vsrSR91hWiIyKKVilPCT+yMH8QOiJ/KN7dH11KvXbcUkgElPg2+jPAxoNsWB25G06hy6jXeic6IaJoV7QW/Tmg1/K3w9EReVxN4YsDZn/El4BEeNefQX8W6K1qNB0dkYdNulP2BEHCAC4MIBKhYqNV6M8Dve7z0BF5Vc4B2f1nk+pMQkdERD/o3GkB+jNBr1JNdERelHG8LLpwepXaoyMioksVHEV/KtioUxsdkedkdkEXTe/MLnRCRHS5QcI/NxIO5KAj8pTEs+iK6Y1Y2Q0dERH9UtqrwtvWr381DZ2RZ0jfKrKgE8+mJBIq54DwJqVduNMsKEv2paNLpTe0AB0REanFvIH+jLDxIj9C7N0h/DSi1hzQiYSTvg9pwadT0REJVyD8LJrZH/ElH5F887qjPyv0ujblVKNa5+0t0QXSYotZIo+YLn2n2XM90BFJ1a3RCHRx9A7FoCMiomAN/63sL5ZWVm90RCLNq4wujN7h0uiEiCgUMx9Ef2roJf2lHzoicaSfQ3fqIs8kI/KaP25Bf3LoTdldDR2RKLl90RXRS67AM8mIPGjJkGboTw+995vwO+YPYm+UfVh9Ut/66IiIKDytaqE/QGx88Gd0REKUqY4uhd5bf0InREThW3QS/Rli40hbdEQCPFYOXQa9/f9AJ0REkflK+KeMtXoWOiKwmh+jS6CXvBCdEBFFLO3ujujPEr2OS6P59MPEN2SfSdanFCcIiHwhtYPsvpZWftT2sen8ivDScOMHkX+0rYr+RLHx8iJ0RAjFC4XvKK78EjoiIjIpczz6U0Vvwaaoa0yXdnwNOnW9VY3YIIrIb44Lny5oeA86IXe9IH0qf0UhOiIiMi9nAPqzxcaj29ARuWeR9HOnn5iMjoiInFGljux1Kla7KPn4mbppATpqvfyJ6IiIyDn/fRP6M8bGulx0RC64pyE6Zr2u59EJEZGzrhF+jk3/sTnoiBy2bSQ6Y71ePVPQERGR06avFL50seyrfj4dcbLwsymtI4noiIjIDcPrCX9L3eWv6IicUn9dH3S4eoeL0BERkVt+LX7lyhh0RI44KLv1tFX2NDohInLToC7oTx29pOWT0BEZ94/96FT18g7yLBqiKJN2fD36k0cvoXEqOiOjamahE9Xrs447yYiiUM6N6A8fG+kfoSMyp99ydJo2XvsSHRERYdQWfnSuVe4cOiIziitMQUepN5I7yYii2BjhryysI1XQERlwwyl0jHqzP4rmEyKIKBCYuAz9OaSXcKAaOqII1ayEzlBvyrV+38tHRLaWfDQb/Vmk9/7FDHRGEYjZKrvXUx8fLtIiojDkHBD+FrtBTXRE4UrpWR4dnl6WPzduEFEYJi2X/cU16S+ePEy32z2j0cnpLeNEMRFdov0T6E8lveQKseiIQrZLeLO/9KXohIhImseETx2XLeOtBS5Fa9GJ6XGimIhKsGSp8Knj/CvQEQUvrio6LT0/dvMgIiNyDqA/oGz85m/oiILTahM6KRsf90ZHRERy1b5P9tSxVbUAHZG9tI/S0THpTfPQjysiQpC+D2rBCunnW8YLb/Pa8JHB6IiISLyNLdCfVXoJz0redVy7DjofG6vHoSMiIi+Y3mgV+uNKT+6u4+IrhW/SOxqHjoiIvGL49pbojyw9obuOpf+cWhaPToiIvGTyVehPLRvL+6Ej+oX2wg+rTy+DToiIvOavrdGfXHr9D05HR/QzicJbzSU05k4yIgrZkiHCF0PuvwYd0U86b1qMjkNvK3eSEVFYZq1Gf37Z+KQ9OqLvxH6Rh45Cr1IROiIi8q62W9GfYTYektCkdM56dAx6a3ahEyIibys6jP4c08v7ohic0Etb0BnorVpYEZwQEXlexg3Cl0aeugG5u6C38JOgW67oDEyHiHyjeOEe9OeZXgPYW/Dhz/RB37zegx7o00RE3lC4QvhOszeqIGLptlL4ZuxlmYhYiMivCl5Gf6rZGJDqeibbpJ9JNsf1SIjI5zKFn2nWcYi7LTYXbUDfsR7PJCMiJ8wRvtOs8jz3skh5BX23NmpwJxkROSLnWuGdNrNc2mk2eO5o9K3qVRKy5Y6I/GhSDfRnnI0aMS6kMKwy+jb1znAnGRE5qqbw9fNWz1kOJ/Dlx+hb1Gt43uEAiIgC26ahP+v0OpZJc/DuC4XvIOi1OsXBuyci+sGorujPO73WXzl157EzktE3p7c10albJyL6uZQPy6M/8vSqtnXittOOv4++Mb21bDlKRC6KuVP2uSy9PjS/0+x3A9F3pbf/euO3TESkVfo36E8+vY6Gz2r8L+E7yUasNHu/RETB6PEo+tNPr4vBrjuTlsueKF7w6ThzN0tEFLxu0jdYHV1k5karPSt8S93TcWZulIgodCnSz7esZWJ3QV3hZ5KNZ8tRIoJKPIT+HNQbPSrSxnRFDdD3oNeiCfKkHiKibxTdhP4s1Bs5LJK7q30n+vr18k6gT+8kIvrGNWfQn4d6b44J985yrkVfu41Nw00WkogofNKnjvv0zQ3nttLKCJ8gOMmJYiISJKVnL/THolbylbEh35P0s3kOxztQSCKiCCRuRX8y6pUNcadZwb3oK9Yre9qZOhIRRaJ0JfSno14o57sXrmiJvlytVQs5UUxEMknfdfyr7ODuI3Z3HvpStRZ06uxsIYmIIiC9YXWpC0HcRN2y6MvUe7HA8ToSEUWgcz3056Regu3U8bly6GvU2/KCK4UkIorATOFNO8u20Z1p1k/4nulm+5a4VkkiovA9Jvx8y9Y7lZd+UHiruU2tXKwjEVEk5q5Cf2TqvVbyruNdldEXpmeqtyoRkRumblqA/tjU6tN30i+u+Y4P0Fellz8IUEgioggUHEV/ctq4Nudn1yv9TLKGQ0CFJCKKwKB89Ken3vpXf5o6TvlU9k6yxUYOWiAict/5huhPUL2B576/0I86oi9FjxMERORdrTajP0NtHIn5+ip3PYe+DL3x52yDJiISTHpjuuSm7begr0Hv/b3oGhIRRUp6YzrZ9nzBVnNE5AfDRqI/T72q5YpCdPGIiMwY/HAz9GeqJ73MVnNE5CMpH5ZHf6x6TjmeSUZEPhNTJwn90eopa+pmoEtGRGRce04dB23PQU4UE5E/3Sq8w5sY2zlRTES+NXhfOvpD1gPu5UQxEflaKqeObXCimIj8j1PHOpwoJqLowKljlTzuKCaiqHGr8PMtMVoe40QxEUUR7jr+paGcKCaiKJPSgVPHlyqXia4IEZH7qhxCf/rK0fE4uhpERBjxXdCfwDL06pBjHxYRkT+lvSr82EhXHG2LrgMREVJqz8XoD2Kw/EHoGhARoS16Gf1ZjNRw1BJ0AYiIBBgUtWeatfztVHT4REQyDJ7bFf2ZDNFuMjp5IiI5pm5vif5Ydl33HujUiYhk+TLKpgv2TEAnTkQkT2Y59Keze3qtHoeOm4hIooyLZ9Cf0O5IujMGnTURkVQV72qI/pR2Qbv26JyJiCRL6ZCA/qB22MCd6IyJiKSLebIP+sPaQWuap6EDJiLygDFXoT+vnTLiBM8kIyIKzr9boz+zHfEKFwwREQUtban/mpS+uAidKhGRt6Q+0Av90W0UW44SEYWu7dPoT29zRu9jy1EionBk+uRMswWbZ6GjJCLyKn9MFwzlBAERUQS8P13ACQIiokjFeXq6YPQcdH5ERH4Q79kmpb1qpaDDIyLyh4y976M/08NyXSI6OSIi/4jd3R/9sR6yw0Xo1IiI/CX3GW81pjt1OgMdGRGR72S3Q3+6B2/PQbaaIyJyws5l6E/44LQ8VoiOiojIt0aloz/lg/ByNjomIiI/y9mRjP6gt1EuE50REZHfyZ46btGEE8VERM7LHor+vFfp2qgiOhwioiiRKXLXcS+eSUZE5J6Mi2fQn/u/cCgRnQoRUZRZOQL90f8zWaXRgRARRZ+pny5Af/z/6Lke6DSIiKLTonvRI8B3ujbtho6CiChqDRJwvuXiTZwoJiICSju+HjwQnIxDZ0BEFO1ynp0CHAfKxaPvn4iIAoHaNVDjwPq66HsnIqLv1GyAGAfKv5uDvnEiIvpBxt6yrg8ET1dB3zUREV0qZ0B5V8eBfLYcJSISp+3T7o0DDR9egr5dIiIqQWa+O+NAy99ORd8qEREpPDLahYHgtcno2yQiIrXUAU7vLhj/R/Q9EhGR3qS+Tp5pdqouzyQjIpIv+0GnxoER7xWjb46IiIKSediJcaBXLbaaIyLyjibvGx8IeCYZEZG3FO/ub3QcaFCEviMiIgpVv+VJxsaB6vdzopiIyItqVjIzDkw5UA19K0REFKaNZwwMBFtro2+DiIjCV3wwOcJx4IO/oe+BiIgiU79UJDvN1pzmBAERkff1zgp3HEgey51kRET+MOy5cMaBpOX90BdORETGTOga8kDwcU30RRMRkUkp14Y2dfwBW44SEflObr3FQY8D0/7BiWIiIj9KvC+4Xcfvl+HZlEREfhXMMqL+u7lgiIjIz+bt148DSU9ywRARkc9NX5inGQgqccEQEVEUuFBKNQ6s34W+NiIickfNBiWNAwk72HKUiChqZOxd/4uB4Loq6KsiIiI35VTY8/MJgnj0FRERkds6v9Lrx3Fg4ET01RAREULioe/Ggfebp6EvhYiIQEr/39cDwdhY9GUQERFQm6z/oC+BCOz/AzKAxre1C9EfAAAAAElFTkSuQmCC;" parent="1" vertex="1">
          <mxGeometry x="439.72" y="229.06" width="70.55" height="75.93" as="geometry" />
        </mxCell>
        <mxCell id="yIbgnXVg3pHGpFsTLpNO-5" value="Local" style="text;html=1;align=center;verticalAlign=middle;whiteSpace=wrap;rounded=0;" parent="1" vertex="1">
          <mxGeometry x="43.620000000000005" y="390" width="60" height="30" as="geometry" />
        </mxCell>
        <mxCell id="yIbgnXVg3pHGpFsTLpNO-6" value="GitHub" style="text;html=1;align=center;verticalAlign=middle;whiteSpace=wrap;rounded=0;" parent="1" vertex="1">
          <mxGeometry x="44.120000000000005" y="150.00000000000003" width="60" height="30" as="geometry" />
        </mxCell>
        <mxCell id="yIbgnXVg3pHGpFsTLpNO-12" value="Bronze Layer" style="text;html=1;align=center;verticalAlign=middle;whiteSpace=wrap;rounded=0;fillColor=default;strokeColor=default;fontSize=14;" parent="1" vertex="1">
          <mxGeometry x="215" y="160" width="90" height="30" as="geometry" />
        </mxCell>
        <mxCell id="yIbgnXVg3pHGpFsTLpNO-13" value="- Using incremental loading&lt;div&gt;- 2 piplines&lt;/div&gt;&lt;div&gt;&amp;nbsp; &amp;nbsp; &amp;nbsp; &amp;nbsp;-&amp;gt; move data from source to sql&lt;/div&gt;&lt;div&gt;&amp;nbsp; &amp;nbsp; &amp;nbsp; &amp;nbsp;-&amp;gt; save data in data lake as parquet&lt;/div&gt;&lt;div&gt;&amp;nbsp; &amp;nbsp; &amp;nbsp; &amp;nbsp;-&amp;gt; use stored procedure, copy activity, lookup&lt;/div&gt;" style="text;html=1;align=left;verticalAlign=middle;whiteSpace=wrap;rounded=0;" parent="1" vertex="1">
          <mxGeometry x="190" y="320" width="160" height="150" as="geometry" />
        </mxCell>
        <mxCell id="yIbgnXVg3pHGpFsTLpNO-14" value="Data Factory" style="text;html=1;align=left;verticalAlign=middle;whiteSpace=wrap;rounded=0;" parent="1" vertex="1">
          <mxGeometry x="225" y="200" width="80" height="70" as="geometry" />
        </mxCell>
        <mxCell id="yIbgnXVg3pHGpFsTLpNO-17" value="Silver Layer" style="text;html=1;align=center;verticalAlign=middle;whiteSpace=wrap;rounded=0;fillColor=default;strokeColor=default;fontSize=14;" parent="1" vertex="1">
          <mxGeometry x="430" y="160" width="90" height="30" as="geometry" />
        </mxCell>
        <mxCell id="yIbgnXVg3pHGpFsTLpNO-19" style="edgeStyle=orthogonalEdgeStyle;rounded=0;orthogonalLoop=1;jettySize=auto;html=1;exitX=1;exitY=0.5;exitDx=0;exitDy=0;entryX=0;entryY=0.5;entryDx=0;entryDy=0;" parent="1" source="yIbgnXVg3pHGpFsTLpNO-11" target="yIbgnXVg3pHGpFsTLpNO-15" edge="1">
          <mxGeometry relative="1" as="geometry" />
        </mxCell>
        <mxCell id="yIbgnXVg3pHGpFsTLpNO-20" value="" style="rounded=0;whiteSpace=wrap;html=1;fillColor=#fff2cc;strokeColor=#d6b656;gradientColor=#ffd966;align=left;" parent="1" vertex="1">
          <mxGeometry x="610" y="150" width="170" height="490" as="geometry" />
        </mxCell>
        <mxCell id="yIbgnXVg3pHGpFsTLpNO-22" value="Gold Layer" style="text;html=1;align=center;verticalAlign=middle;whiteSpace=wrap;rounded=0;fillColor=default;strokeColor=default;fontSize=14;" parent="1" vertex="1">
          <mxGeometry x="650" y="160" width="90" height="30" as="geometry" />
        </mxCell>
        <mxCell id="yIbgnXVg3pHGpFsTLpNO-23" value="" style="shape=image;verticalLabelPosition=bottom;labelBackgroundColor=default;verticalAlign=top;aspect=fixed;imageAspect=0;image=data:image/jpeg,/9j/4AAQSkZJRgABAQAAAQABAAD/2wCEAAkGBxMQERUTEBAWFhIVFxIZGBgVFhUXFRcWFRIWFxcVFhYYHCggGB0lGxUXITEhJSo3LjEuFx8zODMtNygtLisBCgoKDg0OGxAQGy8mICU1Ly8vMi0rLzAuLS0tMDUtLS03Mi0tLSsyLy0tLS0tLS0vLTItLS0tLS0tLy0tLS0tLf/AABEIAOEA4QMBEQACEQEDEQH/xAAcAAEAAgIDAQAAAAAAAAAAAAAABQcEBgIDCAH/xAA+EAABAwEEBgULBAICAwEAAAABAAIDEQQFITEGEkFRYXEHEyJygTIzNEJSc5GhsbLCI2LB0VOCouFDkvAl/8QAGgEBAAIDAQAAAAAAAAAAAAAAAAQFAgMGAf/EADIRAAICAQIDBgUFAAMBAQAAAAABAgMEESEFIlESMTJBcYEzNGGRobHB0eHwE0LxUiP/2gAMAwEAAhEDEQA/ALxQBAEAQBAEAQBAEAQBAEBF35f9nsbdaeQAnJgxe7k3+ThxW+jHsuekF/BpuyK6VrNlYaR6fT2mrIawxbmn9Rw/c/ZyHxKvMfh1de8t3+CiyeJWWbQ2X5MXR3TS0WOja9bCPUeTgP2OzbyxHBbMjBqu37n1Rrxs+2nbvXQtLR7Smz20UifSTbG+geN9B6w4j5KiyMSynxLbr5F9Rl13Lle/TzJtRSSEAQBAEAQBAEAQBAEAQBAEAQBAEAQBAEAQBAEBj2+3RwMMk0jWMGZcaDkN54BZwhKb7MVqzGc4wWsnoit9JOkpzqssTdUf5XjtHuMOA5n4BXGPwxLe37FPkcUfdV9yv57Q6RxfI4uec3OJLjzJzVtFKK0XcVEpOT1k9WcKr3Ux0FU1Gh9ZIQQQSCCCCMCCMiDsR6PZnq1T1RvGjfSPLDRlrBljy1x51vPY/wAaHiVV5HDYT3r2f4/otMfico8tm66+f9lm3VesNqZrwSB7dtM2nc5pxaeapbap1PSa0Lqu2Fi1g9TNWs2BAEAQBAEAQBAEAQBAEAQBAEAQBAEAQHF7wASSABiScAANpKJag0XSXpIihqyyATSe2fNN5EYv8MOKs8fhs572bL8/0VuRxGENobv8FZXte81qfr2iQvdsrk0bmtGDRyVzVVCpaQWhS23Ttes2YVVsNQqgM66Lpmtb9Szxl5wqcmtB2uccAtdt0KlrN6G2qidr0gjvv7R+0WJ1J46NOT24xu5O38DQ8FjTk13Lkf8AJlfjWUvmRFVW40CqAyLBb5IHiSGRzHja008DsI4HBYzhGa7MlqjOuyVb7UXoyyNGukxrqMtzdU5dawdk99ubeYw4BU+Rwxrer7Fzj8SUtrdvqWFZ52yND43BzHCoc0gtI3gjNVUouL0ZaJprVHYvD0IAgCAIAgCAIAgCAIAgCAIAgCA1jSbTezWKra9bMP8AxsIwP73ZN5YngpePhWW79y6kTIzK6tu99CqdItK7TbjSV+rHsjZUMG6vtHifCiu6MWunwrfqUl+XZd393Qg6qQRtBVBodlnhdI4MjaXPdgGtBLieAGa8lJRWrZ7GDk9EixNGujNzqPtztUZ9Uw9o994y5N+IVXfxJLar7ltj8M87fsWTYbFHAwRwxtYwZBooOfE8VUTnKb1k9WW0IRgtIrRHZPA2RpZI0OY4ULXAFpG4g5rxScXqj1pNaMrzSboza6slhdqnPqnnsnuOzbyOHEK1x+JNbW/cq8jhqe9e30K1t9ikgeY5o3MeMw4UPMbxxGCtoWRmtYvVFROuUHpJaGPVZGGgqg0Ni0PtttikrYydWvaD69Se8N/LtKPkVVWLn/s21ZUsfdP2Lhu6+mvAElGPwr7BPAnLxVHbiyhvHdFti8Vqt5Zcr+vd9yWUUtAgCAIAgCAIAgCAIAgCAICKv7SKz2FutaJACfJYMZHd1v8AJw4rdTRO16RRqtvhUtZMqnSbpDtFqqyGsEO5p/UcP3PGXJvxKuKMGFe8t3+Cmvz52bR2X5NOqp5AFUAqgNx0Y6PrRa6PmrBCdrh+o4ftYcuZ+BUG/PhXtHd/gn0YE7N5bL8lrXDo7Z7E3VgjoSO084yO7zv4GHBU1187XrJlxVRCpaRRKrSbggCAIDAve54LWzUtEQe3ZXymne1wxaeS2V2zresHoa7KoWLSS1Ks0p6OZbPWSzO62KvkuLWyNr8A/wAKHhtVzjZ6s5ZLR/gpcvC/4V209vqdNz6HgUdaTU+w09kd523kPmpEruhTzu/+Taoow0BrQA0ZACgHIBaTQ3qcl4eGdYb0kiwB1m+yf4OxaLceFm/cywxeI20bd8ej/Z+X6E9Yr4hldqB4EtK9WSNem8DaOKrraJ17tbdTo8XMqyFrHv6MkFpJYQBAEAQBAEAQBAY14W+KzsMk0jWMGZcaDkN54DFZQhKb0itTGU4xWsmVlpP0oOdWOwN1Rl1rx2j3GHAc3fAK1o4elvZ9irv4h5V/crq0Wh0ji+R5c92Jc4kuJ4k5qzilFaIq5NyerOuq91PNBVNRoTejmi1pt5/RjpHXGR9RGN+PrHgK+Cj3ZMKvE9+hIpxbLe5bdS2tGNBbNYqPI62ceu8CjT+xmTeeJ4qnvzLLdu5FxRh11b97NqUQlhAEAQBACUGuhEW+/Gswj7Tt/qj+/BTKsSUt5bfqU+Vxeuvlq5n18v7/ANuQFptLpDV7iT8hyGxWEIRgtIo5+6+y6Xasep0rI0hAdNrtbIW68rw1o2n6DeeAXqWvcZRi5PRGm3zpk51W2Yarfbd5R7oyb9eS3Rq6kmFCW8jV+vdra+sdetdap1q79bOvFbdtNCQtV3G+aMdJssNGWwGaPLXFOtbz2P8AGh4lV1/D4y3r2f4LKjiEo7Wb/qWldF7w2tnWWeVr27aZtO5zTi08CqmyuVb0ktC2hZGa1i9TOWBmEAQBAEB8e4AEkgAYknAADaSgNA0o6TYYassYE0mWufMtPAjGTww4qwowJS3nsvyQL86MNobv8FV3xfM9rf1lolc92yvktG5rRg0cla11wrWkUVNts7HrJmDVbNTWKpqDLuu7JrVJ1dnidI/c3IDe4nBo4krCdkYLWT0M66pWPSKLT0X6MI4qSW1wlfn1ba9UO8c3/IcCqq/iEpbV7fqWtHD4x3nu/wAFhRRhoDWtDWgUAAAAAyAAyVe23uywS07jkvD0IAgCAIDBt96MiwJ1neyP5Oxb6sedm/kQcriFWPs95dF+/Q123Xk+byjRvsjLx3qxqohX3d5zmVnW5G0noui7v7MNbiEEB9ArgM0PUm3oiXsFxOdjL2Ru9Y89yh25aW0Ny4xeETnzW7Lp5/1+voR2l3R9HbO3DIY5gKDWLnRmgyIJqzLNvMglYU504bS3RaT4bV2dK9io78uO0WJ+paIi2taOzY7i1wwPLPeArWu6Fi1iystonW9JIjqrbqahVNQZN33hLZ3iSCRzHja00w3EZEcDgsJwjNaSWqMoTlB6xZZ2i/Si19I7e3Udl1rAdQ99mbeYqOAVXfgNb1/YtaM9Pazb6lj2edsjQ+NwcxwqHNILSN4IwKrmmnoyxTTWqOxeHoQBAQWnA/8Az7R3PyClYXx4+pGzPgS9ChJbL7PwXSyq6HMRt6mK5tM1paa7zemn3HKKNz3BrGlziaANBJJ3ADElYtpLVnqTb0RYWi/RhJLSS3OMbM+raR1h7xyYOGJ5Kvvz4ravf6ljRgN72fYtK67rhssYjs8TY2DY0Zne45uPE4qrnZKb1k9S0hCMFpFGYsDMIAgCAIDotVrZEKvdTcNp5BZwrlN6RRovya6I62PT9TX7ffb34M7Df+R8dngrGrEjHeW7/Bz2VxWy3lr5V+f69vuRSlFSEAQGfYLqfLj5Ld528htWi3IhXt3ssMXh1t+/dHq/2X+RsViu5kPkirvaOf8A14KutvnZ3nR42FVjrlW/V95lrSSwgOi22OOZhjmja9js2uAIPgVlGTi9YsxlFSWjRWelHRaRWS73VGfUvOPKN5+jvirOjiHlZ9ytv4f51/YrW1WZ8TyyVjmPbm1wII8CrKMlJaorJRcXo0dQC9MTJisu13wW6NXU0yt6F1dFopYBT/JJ9QqHia0v9kdBw160L3NvVeTwgCAg9N/QLR3PyClYXzEPUjZnwJ+hRq6s5I4SMBGIXjin3mUZNPYvHRPRmzWOJroY/wBRzWl0ju1IagEivqjgKDBcnkXzsk03sdZRRCuKcVubAo5ICAwrwvJkPlGrtjRnzO4LdVRKzu7iHl51WOubd9CDnv8Akd5NGjgKn4n+lOjh1rv3KK3jF8vDpH8/r/B1svqYevXm1v8AAWbxan5GqPFMpPxa+y/gkbFpACaStp+4ZeIzCjWYbW8GWWNxlSfZuWn1Xd9jjb7+2Qj/AGP8D+17Vh+c/sYZXGP+tH3f7L+fsQkkhcauJJO0qcoqK0RRznKcu1J6s4L0wCAyLJY3ymjG13nYOZWFlsYLmZIx8W296Vr38kbBYLlZHi/tu4+SOQ/tV1uVKey2R0WLwqqrmnzP8fYlFFLQIAgCAIAgIu/tH7PbmatoiDqeS4YPb3XDEcst4W2q6dT1izVbTCxaSRQ9osrYpHsb6rnNqcyGuIx+C6ypLsp9Tk7vG10OK2GouDou9AHvJPqFzfFPj+yOm4Z8uvc25VxYBAEBB6b+gWjufkFKwvmIepGzPgT9CjV1ZyR8KHp6Hu/zUfcZ9oXG2eJnZw8KMhYGRh3rbhBGXbcmjeT/APV8Ftpq/wCSWhFzMlY9Tn5+XqaTJOXEucak4klXCSS0Rx05SnJyk9Wzjrr0xGugGugOccmxAdqHhzijLjRoJJ2BeSkorVmcISnLsxWrJywXDtmP+o/k/wBKDbmeUPuXuLwf/tf9l+7/AI+5NxsDRRoAA2DAKC229WXkYRguzFaI5LwyCAIAgCAIAgCA89Xp5+X3kn3ldjV4I+iOOu+JL1ZjLYai4Oi70Ae8k+oXN8U+P7I6bhny69zblXFgEAQEHpv6BaO5+QUrC+Yh6kbM+BP0KNXVnJHwoenoe7/NR9xn2hcbZ4mdnDwoyFgZGpaY2j9RjNgbreLiR+PzVlhR5XI53jVmtkYdFr9//DX9dTSlGugGugGugHWICYsMbHkdZJqNw2Ek8sKDxWqyUkuVam7HrqnL/wDWfZXo/wDxG1Xe2JopCW8aEEnntVXa7G9ZnV4kceMdKGvZ6v3MtaSWEAQBAEAQBAEAQBAeer08/L7yT7yuxq8EfRHHXfEl6sxlsNRcHRd6APeSfULm+KfH9kdNwz5de5tyriwCAICD039AtHc/IKVhfMQ9SNmfAn6FGrqzkj4UPT0Pd/mo+4z7QuNs8TOzh4UZCwMjStNmkTtdscwDxa51fqFZ4T5Gvqc1xiGlyl1X6P8As17XUwqRroBroBroB1iAmIxQAcB9F4YnMFAtnqjPst7yx+trDc7H55qPPGrl5aehPo4nkVd77S+v895OWG9o5cPJduO3kdqg2404b96L7F4lTfy90uj/AGf+ZIKOWAQBAEAQBAEAQHnq9PPy+8k+8rsavBH0Rx13xJerMZbDUXB0XegD3kn1C5vinx/ZHTcM+XXubcq4sAgCAg9N/QLR3PyClYXzEPUjZnwJ+hRq6s5I+FD09D3f5qPuM+0LjbPEzs4eFGQsDIg9LbtM8NWCskdXAbSPWaPDHmApOLb2J79zK7iWM7qtY963X7orjr1bHL6Dr0PeyOvQdkdeg7JmXbGZHZdluJOzgE1PGtFqTdUNQXgCAICWu2+XMo2Srmb/AFh/YUS7FUt47Mt8Lik6uW3eP5X8/r+hskcgcAWmoORCrWmnozpYTjOKlF6pnJeGQQBAEAQBAeer08/L7yT7yuxq8EfRHHXfEl6sxlsNRcHRd6APeSfULm+KfH9kdNwz5de5tyriwCAICD039AtHc/IKVhfMQ9SNmfAn6FGrqzkj4UPT0Pd/mo+4z7QuNs8TOzh4UZCwMggNQ0m0P64mWzENkOLmHBjjtIPqu+R4YlTaMvsrsz7ipy+Gqxudez815P8Ag0S32GeA0mheym0tOr4OHZPxU+NkJeFlPZj2V+OLX+69xiRSF5owFx3NBJ+AWb27zVGPaei3NkubRG0zkGRphj2l47Z7rM686eKjWZUId27J9HDbbHzcq+vf9v5LHuy747PGI4m0aPiTtc47Sqyc5Tesi/pphVDsQWx2S2Vj/KY08wEjZKPczyzHqs8cU/YjbVcDD5slp+I+ePzUmGZJeLcrb+DVS3rfZf3X8/khLZYXxHttw2EYtPj/AGp1d0LPCUeRiW4751t18jGWwihAZ91XkYTQ4sOY3cQtF9CsW3eWGBnSx5aPwvv/AJX+3NrY8OAINQcQVUtNPRnWRkpJSj3M5LwyCAIAgCA89Xp5+X3kn3ldjV4I+iOOu+JL1ZjLYai4Oi70Ae8k+oXN8U+P7I6bhny69zblXFgEAQEHpv6BaO5+QUrC+Yh6kbM+BP0KNXVnJHwoenoe7/NR9xn2hcbZ4mdnDwoyFgZBAEAQBAEAQBAEB8e0EUIqDsOS9TaeqPJRUlo1qjXb2ufUq+LFu1u0cRvCsaMrtcs+85zP4X/x62Vd3mun9EMphSnAvQ9OxtreBQPcANgcQPgsXCLerSNiusiuypNL1Z2w3pKzKR3idYfNYSorl3o3V5uRX3Tfvv8AqTl2X8HkNlo1xyI8k8OBUK7Ecd47ousPisbGoW7Pr5P+CaUMuQgCA89Xp5+X3kn3ldjV4I+iOOu+JL1ZjLYai4Oi70Ae8k+oXN8U+P7I6bhny69zblXFgEAQEHpv6BaO5+QUrC+Yh6kbM+BP0KNXVnJHwoenoe7/ADUfcZ9oXG2eJnZw8KMhYGQQBAEAQBAEAQBAEAQGlaQajZnNjwApUbA440HDJW+M5OtORyPEa64ZDVfv6kZrqQQRroBroBroDbtGbxMrCxxq5lMdpbs+GXwVXl1KEu0u5nT8KynbBwl3x/KJpRC1CA89Xp5+X3kn3ldjV4I+iOOu+JL1ZjLYai4Oi70Ae8k+oXN8U+P7I6bhny69zblXFgEAQEHpv6BaO5+QUrC+Yh6kbM+BP0KNXVnJHwoenoe7/NR9xn2hcbZ4mdnDwoyFgZBAEAQBAEAQBAEAQBAVnaLRrvc72nOPxNVexj2YpHD2T7c3Lq2zr11kYDXQDXQDXQErovPS0sHtBzT/AOpd9WhR8qOtTLDhc+zkxXXVfjX9je1UHVhAeer08/L7yT7yuxq8EfRHHXfEl6sxlsNRcHRd6APeSfULm+KfH9kdNwz5de5tyriwCAICD039AtHc/IKVhfMQ9SNmfAn6FGrqzkj4UPT0Pd/mo+4z7QuNs8TOzh4UZCwMggCAIAgCAIAgCA+OcAKk0A2nJepa7I8clFashrffoGEQqfaOXgNqmVYbe8ylyuMRjy07vr5f3/u80KQ0JG4lWRz5x10PRroBroBroCZ0Rj17U0+wHuP/AK6v1cFHy5aVP6lhwuHayU+mr/b9ywFUHVBAeer08/L7yT7yuxq8EfRHHXfEl6sxlsNRcHRd6APeSfULm+KfH9kdNwz5de5tyriwCAICD039AtHc/IKVhfMQ9SNmfAn6FGrqzkj4UPT0Pd/mo+4z7QuNs8TOzh4UZCwMggCAIAgCAIAgI633uyLAdp24ZDmdik1Y057vZFdlcTqo5VvLov3Zr1ttz5T2zhsAwaPDb4qxrphX3HOZOZbkPne3TyMVbCKRN8wkfqDL1uG4r02Q6ET16GfZHXoOyOvQdkdeg0LH0Nul0ERfIKSSUNDm1o8lp3HEk8wNiqsq5Tlou5HS8NxXTDtS73+F5GwqKWQQHnq9PPy+8k+8rsavBH0Rx13xJerMZbDUXB0XegD3kn1C5vinx/ZHTcM+XXubcq4sAgCAg9N/QLR3PyClYXzEPUjZnwJ+hRq6s5I+FD0vzR68orRAwwyB+q1odTNpDcnDMZbVyORVOubUlodfRbCyCcXqSa0G4IAgCAIAgMa2W5kQ7Zx2AYk+C210ys8JGyMurHWs3v08zXrffD5MB2W7hmeZVjVjQhu92c5lcTtu5Y8sfp3/AHI1SCtCAICSsVyvlxeNVh3jEjgP7Ua3KjDZbstMXhdt3NLlX5+38kdfWgZ8qyP/ANJD9rwPkR4rVXm//a+xYXcJ86n7P+TVrRo/bIzR1lkPdGuPiyqlK+t/9iBLCvj3wf6/odtj0Ytspws7mjfJRgHgcfgF5LJqj5nsMC+X/XT12/s3XRzQ1lnIkmcJJRiBTsMO8A+UeJ+AUG7Kc9o7ItsXh0Kn2p7v8I2pRCyCAw70vSGys155AxuyuZO5rRi48lsqpnbLswWprtthUu1N6FB22UPke4ZOe8iudC4kLroLsxSZyNklKba6nSszWXB0XegD3kn1C5vinx/ZHTcM+XXubcq4sAgCAg9N/QLR3PyClYXzEPUjZnwJ+hRq6s5IIDvsVskgeJIXuY8ZFpoeR3jgcFhOuM12ZLVGyuyVb7UXoyxNHOkcGjLa3VOXWsHZPfYMRzHwCpsnhTXNV9i6xuKp8tu31N/s87ZGh8bg5hxDmkEEcCFUSi4vRrRlvGSktUdixPQgOuaZrBV7gBxWUYuT0SNdlsK49qb0RBW+/icIhQe0c/AbFPqw0t5lDlcYlLlp2+r7/sQrnEmpNScycSpqSS0RSyk5PVvVnxDEIDKsVgfL5Iw9o4D/AL8FqsuhX3kvGw7ch8i26vuNisF0sixPafvOzkNirrcmc9u5HRYvDaqOZ7y6v9l/mSCjliEAQBAEBwmmaxpc9wa0CpLiAAN5JyXsYuT0R42orVmhaR9IzWVZYm67suscDqDutzdzOHNW+Nwtvmt2+nmVOTxSMeWrf6+RXNvt0k7zJNI57ztcfkBkBwGCuq641x7MFoikstnZLtTerMdZmsIC4Oi70Ae8k+oXN8U+P7I6bhny69zblXFgEAQHCWNr2lrmhzSKEEAgg7CDmvU2nqjxpNaM0TSPo5Y+r7GQx2fVuJ1D3Tm3llyVtjcUlHlt3XXzKnJ4XGXNVs+nkVxeFgls7zHNG5jxscM+IORHEK6rthYu1B6opLKp1vszWhjLYawgJK5L9nsbtaCQgHNpxY7vN/kY8Vovxq7lpNfySKMmyl6wft5FnaN6ewWmjJv0ZjQUJ/Tcf2u2Hgd+1UWTw2yreO6/Je43Ea7dpbP8Etb78a3CPtO3+qP7WqrElLeW36mjK4vCHLVzPr5f3/tyAtFodIavcSfkOQ2KwhCMFpFHPXX2XS7U3qdSyNQQHZBA6Q6rGknh/J2LGU4xWsmbaqZ2y7MFqyesFxNbjKdY+yPJ8d6gW5je0Ni/xeDxjzXbvp5f3+hMtaAKAUChN6lykktEfUPQgCAIAgNV0j05s9lqxh66Yeq09lp/e/IchU8lPxuH2W7vZEDJ4hVVst2VhfukNotrqzydkZMbhG3k3aeJqVfUYtdK5F7+ZQ35Vlz5nt08iKUgjBAco4y4hrQS4mgABJJ3ADNeNpLVnqTb0RvOjnR1JJR9sJjZ7DadYe8cmfM8lVZPFIx5at318i3xuFylzW7Lp5llXdd8dnjEcLAxgyA+pJxJ4lUdlkrJdqb1Zd11xrj2YrRGSsDMIAgCAIDEvO7IrSzUnja9vHMHe0jFp4hbKrZ1S7UHoa7KoWLszWpWukfR3JFV9kJlZnqGnWDlsf8AI8CrvG4pGXLbs+vl/RSZPC5R5qt108zR3sLSQ4EEEggihBGYIOStU01qipaaejJK67ilnoaarPadt7o9b6cVqsujD1MXJI2+7Lnis/ktq7a52LvDd4KHO2U+81OTZILUYhAfWipoBU8M0b0PUm3oiYsFxOdjKdUeyPKPPcoduWltDcucXhE5812y6ef9f7uJ+CBsYoxoA4fzvVfOcpvWTOgqphVHswWiOxYmwIAgCAICIv7SOz2JtZn9o5Mbi93IbBxNApFGLZc+RbdfIj35VdK537eZWGkem9otdWMPVQn1WHtOH735nkKDmr7G4fXVu92UOTxGy3aOyNXU8rwgCA2bRzQm0WujnDqoT67xi4fsZmeZoOagZPEKqdlu/oWGNw+y3d7ItC4dGrPYh+iyr6YyOxefHYOAoFRX5dlz5nt08i+oxa6Vyrfr5kwoxICAIAgCAIAgCAICLvXR+z2lwfLE0yNyfQa3CvtDgVIpyrKtovboRcnDrvXNs+q7yFt11vixI1me0P5GxT6siFm3czmsrh1tG/fHqv36foYK3kAICKvW/wCKCoB15PZacu8dn1W6umU/QzUGzF0e08MDz18LXMcc2CkjBuFTRw4Yc9i8yeH/APJHllo/r3Fng5UMd7x1+vmWbdN7Q2pmvBIHjbTymnc5pxB5qhtpnU9JrQ6Oq6Fq1g9TOWo2hAEAQGNeF4RWdhkmkaxg2uPyAzJ4DFZ11zsl2YLVmFlka49qT0RXGkfSM99WWMajf8jgNc91uTeZx5K7xuFxjzW7/TyKXJ4o3y1bfU0OWVz3Fz3FzjiS4kkneScSrZJJaIqJScnq2cV6YhAStxaO2i2upDH2dr3YRt5u2ngKlR78qulc79vMk0Yltz5Vt18iz9HNBbPZaPkHXTD1nDstP7GZeJqeSosniNluy2RfY/D6qt3uzalXk8IAgCAIAgCAIAgCAIAgCAirfcjH4s7Dv+J8NngpVWVKO0t0VWVwqq3mhyv8fb+PyVlpdPbIXGOSMxRnAOaah/KQfbgd6vcV02LtRer/AE9ijtxJ0PSa9/I1NTjUEB32K2SQPD4XuY8ZFpoeR3jgcFhOuM12ZLVGddkq32ovRlh6OdI4NGW1uqf8rB2T32DEcx8AqbJ4U1zVfYu8biqfLbt9SwLPO2RofG4OYcQ5pBBHAhVEouL0a0ZbxkpLVHJ7w0EuIAGJJwAA2krxJvZBvTdmj6R9IscVWWQCV/tmvVjltf8ATiVa43C5S5rdl08/6KvJ4pCHLXu/wVted5y2l+vPI57uOQG5oGDRwCu6qoVR7MFoUdt07XrN6mIthqCAybvsEtoeI4Y3PedjdnEnIDiVrsthWu1N6I2V1TsfZgtSxtHOjljKPtjg92fVtJ1B3nZu5YDmqXJ4pKXLVt9fMu8bhcY81u76eRvkMTWNDWNDWgUAaAABuAGSqW3J6stkklojmvD0IAgCAIAgCAIAgCAIAgCAIAgOq02dkjSyRgcw5tcAQeYKyjJxesXozyUVJaNbFf6R9HANX2J1Dn1Tzh/o85cnfEK3xuKvw2/cp8nhSfNV9ivLZZHwvLJWOY8ZhwoefEcVcwnGa7UXqilnXKD7MlozpWZgEBJXJfs9jdrQSEA5tOLHd5v8jHitF+PXctJr+SRRk2UvWD9vI77/ANJ7RbT+q+keyNlQwcx6x4n5LDHxKqPCt+vmZ5GZbf4nt0IZSiIEByjjLiGtBLjgAASSdwAzXjaS1ZkouT0RvOjnR1JJR9rJjZ7Ap1h7xyZ8zyVVk8UjHlq3fXyLbG4XKXNbsunmWRdl2RWZmpBG1jeGZO9xzceJVJbbO2Xam9S6rqhWuzBaGWtZsCAIAgCAIAgCAIAgCAIAgCAIAgCAIAgMC97mgtbNSeMOGw5Obxa4Yhbab7KnrB6Gq2iFq0mtSs9I+j6aCr7NWaLd/wCVo4tHl+GPBXuNxOFm1mz/AB/RR5PDJw3r3X5NMIVmVbWgQ8CAIDZtHNCbRa6PcOqhPrvGLh+xmZ5mg4lQMniFVOy3ZYY3D7Ld3si0Lg0as9iH6TKvpjI7F58dg4CgVFkZdlz5nt08i9oxa6Vyrfr5kwoxJCAIAgCAIAgCAIAgCAIAgCAIAgCAIAgCAIAgCA1/SLRGz22rnN1Jf8jMD/sMn+OPEKZj5ttOy3XRkTIwqr92tH1Ku0h0TtFiJL268WyRlS3/AGGbDzw3Eq+x82q7ZPR9GUGRg207vddUY9xaPWi2upDH2dr3YRt5u2ngKlZ35VdK537eZhRi23PlW3XyLO0c0Fs9lo+QddMPWcOy0/tZl4mp5KiyeI2W7R2RfY/D6qt3uza1Xk8IAgCAIAgCAIAgCAIAgCAIAgCAIAgCAIAgCAIAgCAIDptnm39132lZQ8SMZdzMDRX0OD3bVuyvjS9TVjfCj6Eqo5vCAIAgCAIAgCAIAgCAIAgCA//Z;" parent="1" vertex="1">
          <mxGeometry x="657.97" y="230" width="74.06" height="74.06" as="geometry" />
        </mxCell>
        <mxCell id="yIbgnXVg3pHGpFsTLpNO-24" value="&amp;nbsp; Databricks" style="text;html=1;align=left;verticalAlign=middle;whiteSpace=wrap;rounded=0;" parent="1" vertex="1">
          <mxGeometry x="439.72" y="180" width="80" height="70" as="geometry" />
        </mxCell>
        <mxCell id="yIbgnXVg3pHGpFsTLpNO-25" value="Azure Synapse" style="text;html=1;align=left;verticalAlign=middle;whiteSpace=wrap;rounded=0;" parent="1" vertex="1">
          <mxGeometry x="650" y="180" width="95" height="70" as="geometry" />
        </mxCell>
        <mxCell id="yIbgnXVg3pHGpFsTLpNO-26" value="-Transform data&lt;div&gt;&lt;div&gt;&amp;nbsp; -&amp;gt; Handeling Nulls&lt;/div&gt;&lt;div&gt;&amp;nbsp; -&amp;gt; Renaming Columns&lt;/div&gt;&lt;div&gt;&amp;nbsp; -&amp;gt;&amp;nbsp;&lt;span style=&quot;background-color: transparent; color: light-dark(rgb(0, 0, 0), rgb(255, 255, 255));&quot;&gt;Casting Columns&lt;/span&gt;&lt;/div&gt;&lt;/div&gt;&lt;div&gt;&lt;span style=&quot;background-color: transparent; color: light-dark(rgb(0, 0, 0), rgb(255, 255, 255));&quot;&gt;&amp;nbsp; -&amp;gt; Saving as Parquets&lt;/span&gt;&lt;/div&gt;&lt;div&gt;&lt;span style=&quot;background-color: transparent; color: light-dark(rgb(0, 0, 0), rgb(255, 255, 255));&quot;&gt;&amp;nbsp; -&amp;gt; Was Cleaned before locally&lt;/span&gt;&lt;/div&gt;" style="text;html=1;align=left;verticalAlign=middle;whiteSpace=wrap;rounded=0;" parent="1" vertex="1">
          <mxGeometry x="395" y="320" width="160" height="150" as="geometry" />
        </mxCell>
        <mxCell id="ii2s9qY_NflXiKq1x3v7-3" style="edgeStyle=orthogonalEdgeStyle;rounded=0;orthogonalLoop=1;jettySize=auto;html=1;entryX=0;entryY=0.5;entryDx=0;entryDy=0;exitX=1;exitY=0.5;exitDx=0;exitDy=0;" edge="1" parent="1" source="yIbgnXVg3pHGpFsTLpNO-20" target="ii2s9qY_NflXiKq1x3v7-1">
          <mxGeometry relative="1" as="geometry" />
        </mxCell>
        <mxCell id="yIbgnXVg3pHGpFsTLpNO-28" value="&lt;p data-pm-slice=&quot;0 0 []&quot;&gt;&amp;nbsp;- Built external tables using OPENROWSET over Parquet files in Data Lake&lt;/p&gt;&lt;p&gt;&amp;nbsp;- Separated data into dimension and fact tables following a star schema&lt;/p&gt;&lt;p&gt;&amp;nbsp;- Prepared clean, business-ready data for direct Power BI reporting and ml clusetring&lt;/p&gt;" style="text;whiteSpace=wrap;html=1;verticalAlign=middle;" parent="1" vertex="1">
          <mxGeometry x="615" y="270" width="160" height="305.01" as="geometry" />
        </mxCell>
        <mxCell id="yIbgnXVg3pHGpFsTLpNO-30" value="" style="shape=image;verticalLabelPosition=bottom;labelBackgroundColor=default;verticalAlign=top;aspect=fixed;imageAspect=0;image=data:image/jpeg,/9j/4AAQSkZJRgABAQAAAQABAAD/2wCEAAkGBwoQBhENDQoRBwgNEA8NBwgIDxAIDQgOFREWFhUdExMkHCgnGxwlJx8VJjEjMSkvOjAwJh84QDMxOjQ5NDcBCgoKDQ0OGg8PFSslICUrKzctLjItLTE3NystLS04Li0uKystKy83LTctLi83MC4uKysuNS03NysrKystLTItN//AABEIAOEA4QMBEQACEQEDEQH/xAAbAAEAAwADAQAAAAAAAAAAAAAAAwUGAQQHAv/EADcQAQACAQEEBAwGAgMAAAAAAAABEQIDBAUksgZyc7EHEiElJjI1UXGBg8ETMUFSYZEzNDZDgv/EABsBAQACAwEBAAAAAAAAAAAAAAAEBQECBgMH/8QALREBAAECBAYBAwQDAQAAAAAAAAECEQQFMTMDMnGBscE0IXKCE0FSYRJR0SL/2gAMAwEAAhEDEQA/APcQAAAAAAAAAAAAAcZZRGMzM1jETOU+6GJmIi8sxF/oxe8N562tqzM5Tho/9ejjNREfz75cNjMw4uJrmbzFP7R/X9/7lb8LgU8ONPq6VoD2LAsCwLAsCwc45zGVxM4ZfpOMzjMNqaqqZvTNiYidWn6Pbyz1InS1J8fUxjxtPUn888fym/5jyOqybMK+PE8LizeY0n/cf30VuK4MUf8AqnRdL1DAAAAAAAAAAAAAAAAAdfePs/V7PU5ZR8X8fifbPh6cLnp6wwVvn67c2BYFgWBYFgWBYLbovPnT6eXfiuMj+V+M+YRMZt92udgqwAAAAAAAAAAAAAAAAHX3j7P1ey1OWUfF/H4n2z4enC56esMBbgF2WBYFgWBYFgWBYLjorPnT6eXfiuMj+V+M+YRcZt92vdeqgAAAAAAAAAAAAAAAAHW3l7O1ey1OWUfF/H4n2z4enC56esPPrcCvHNgWBYFgWBYFgWC46KT51+nn34rjI/k/jPmETGbfdsXXKoAAAAAAAAAAAAAAAAB1t5+zdbstTklHxexxPtnw9OFuU9YeeW4JeFgWBYFgWBYFgWC56Jz52+nn34rfJPk/jPmETG7fds3XKoAAAAAAAAAAAAAAAAB1t5+zdbstTklHxexxPtnw9OFuU9Yec24NelgWBYFgWBYFgWC76Iz52+nn34rfJPk/jPmETG7fdtHWqkAAAAAAAAAAAAAAAAB1d6ezNbstXklHxexX9s+HpwtynrDzfxo97g16eNHvA8aPeDm2QsCwLAsCwXfRD2v9PPvxW+S/J/GfMImN2+7bOsVIAAAAAAAAAAACu23acvxJwxnxcY8mUx5JylTY3FVf5zw6ZtEJPC4cWvLp2rrvYtgLAsCwLAsCwVO+t36c7Plq4Yxp6uEeNn4sVGpjH53HvR+PwomP8o1e/C4kxNpZ2MkGyW5thksCwLBedDvbH0s+/FbZL8n8Z8wh43a7tw6xUgAAAAAAAAAAAKPaJ4jLrZd7mcRu1dZ8p1HLCO3jdsWXCy4WXCy4WXCy4WXEO1zwmp1M+WWKtJbU6wxWEq1PSRLVlzYFgWC96GT55+ln34rbJfk/jPmEPG7XduXVqkAAAAAAAAAAABQbTPEZ9bLvcviN2vrPlPo5YR28mxYFgWBYFgWBYItrnhNTqZ8ssTozTrDE4Sr09LEtWSwLAsF90Lnzz9LPvxW2S/In7Z8wiY3a7t26pUAAAAAAAAAAAAM9tU8Tn18u9y2I3a+s+VhRyx0RW8WxYFgWBYFgWBYItrnhNTqZ8sk6M06wxOMoKeliWrLmwLAsF90Knz19LPvxW2TfI/GfSHjtru3rqVQAAAAAAAAAAAAzm1TxWfXy75criN6vrPlY0csdEVvFsWBYFgWBYFgWCHa54TU6mfLLE6NqdYYrGURNSxLVksCwLBoOhE+e/pZ9+K1yb5HafSHjtru3zqVQAAAAAAAAAAAAzO1zxefXz5pcpiN6vrPlZcPljoht4tywLAsCwLAsCwRbXPCanUz5ZYlmnWGLxlGTUkS1Zc2BYFg0HQf239LPvxWuT/InpPpDx213egOoU4AAAAAAAAAAADLbZPF6nXz5pcnid6vrPlZ8Pljoht4XbllxzYwWBYFgWBYIdrnhNTqZ8sjanWGLxl4JiWJaslgWBYND0Fnz5PZZ9+K1yf5E9J9IeO2u70J06nAAAAAAQbXr+Jp+T159W/0RcXiP0afprL04dH+Uq3LVzmbnOZn4qWrjcSqbzVKTFMR+zj8TL90/3LH6lf8AKS0H4mX7p/uT9Sv+UloPxMv3T/cn6lf8pLQfiZfun+5P1K/5SWh8zEX+UTP6zP6tJ+rLio90f0x9AqPdH9H0HzqaOGUflU/plHkmGJpiW0VTCuziYymJ/OPJKNP0mz2j6uLYZLAsCwQ7XPCZ9TPlkZjVjMZeSWkiWrZzYFgWDRdBJ8+z2OfNitMn+RPSfSFjtru9DdOpwAAAAAFfvP1sfhP2VGZ81Pf0kcDSXSVl3uFwLgXAuBcC4FwLit2ueIy+XdCNXzS96NEVtWxYFgWCLa54XPqZ8sjMasXjLRLSRLVlzYFgWDR9Ap8/T2OpzYrTKN+ek+kPH7Xd6K6ZTAAAAAAK7enrY/Cfsp805qe/pI4Gkuiq0gAAAAAAABW7XPEZfLuhHr5pe9HKhto2sWFiwsWFkW1zwufUz5ZZZjVjMZYSkkS1bObAsCwaPoDPn6ex1ObFaZRvz0n0hY/a7vR3SqYAAAAABW719fH4T9lNmvNT39JPA0l0bVV0gsuFlwsuFlwsuFlwsuFlxV7ZPE5fLuhHr5nvRyobatiwLAsEW1zwufUz5ZIZjVjcZbJSSJaslgWBYNL4P/b89jqc2KzynfnpPpCx+13ekOlUwAAAAACt3t6+Pwn7KXNeajv6ScPpKvtU3SCy4WXCy4WXCy4WXCy4WXFXtk8Tl8u6HhXzJFHKgtq2LAsCwRbXPC59TPlkjVmNWNxl6JKSJatiwLAsGm8H0+kE9jqc2KzynfnpPpCx+13elOkUoAAAAACs3x6+Hwy+ykzbmo7+krD6Sr7VF0gsuFlwsuFlwsuFlwsuFlxU7bPFZfLuh4V6pFHKgtq2LAsCwRbXPC59TPllmNWY1Y7GXtKS+4lqy5tgLAsGm8Hk+kE9jqc2C0ynfnpPpCx+13emOjUoAAAAACr3z6+Hwy+yjzfmo7+krD6SrrU6SWBYFgWBYFgWBYKjbp4rL5csPGrVIo5UFtWxYFgWCLap4XPqZ8ssxqzGrHYykJCSJaslsMlgWDUeDufSGex1ObBZ5Vvz0n0g5htd3pro1KAAAAAAqt9evh8Mvsos45qO/pLw2kq21NdJLLhZcLLhZcLLhZcLLhZcVG3TxeXy5YeNWqRRywgthuWBYFgi2qeFz6mfLLNOsEasdjKVKQ+4lqy5tgLAsGo8HM+kU9hqc2CzyrenpPpBzDa7vT3RKUAAAAABU779fD4ZfZQ5zzUdJ9JeG0lWWpUksCwLAsCwLAsCwU+3zxeXy5YeVWqTRywgtq3LAsCwRbVPC59TPlltTrBDHYyly90kSwyWwyWBYNT4OJ9I57DU5sFnlW9PT/iDmG13j29RdCpAAAAAAFRvz18Phl9lBnXNR0n0mYbSVXakSSwLAsCwLAsCwLBTbfPF5fLlh5VapNHLCC2G5YFgWCLap4XPqZ8ss06wQx+Mpz2fcS1bObAsCwanwbT6Rz2GpzYLLK96en/EHMNrvHt6m6FSAAAAAAKffv8Akw+GXfDn875qOk+kzC6Sq1GlAAAAAAAAKXeE8Zl8uWHnVqk8Plh17YblgWBYItqnhc+pnyyzTzQzDH4ysJeqSJYZLYZLAsGr8Gs+kk9hqc2CyyvenogZhs949vVHQKQAAAAABTb/AP8AJh8Mu+HO55zUdJ9JmF0lVKO6WFwLgXAuBcC4FwLik3hPGZfLlh5zqk8Plh17YblgWBYItqnhc+pnyy2o5oIZDGVk9X3EtWzmwLAsGr8Gf/JZ7DU5sFlle9PRBzDZ7x7erL9RgAAAAAKXpB/kw+GXfDnM95uH0n0m4TSVVaiulllwsuFlwsuFlwsuFlwsuKPeM8bl8uWGk6pPD5Yda2Ltyy4WXCy4i2qeFz6mfLLajmjqyyGMrR6JIlqyWBYFg1ngyn0lnsNXmwWOWb09EHMdnvHt6wv1GAAAAAArd9bLlnoxljHjZ4XeMeWcsZ/OlPnGFq43DiuiLzT+39Sk4biRTNp/dQW5W6wLAsCwLAsCwLAsFFvGeNz/APPLDSdUnh8sOtZduWXCy4WXEe1Tw2fUz5ZbUc0dWWRhbN31EtWXNjJYHjA9G8GO49bDPPbtbCdHHPD8LYsM48WdTGZicsq93kxr3+X+F1luHqpvxKv30VGYcembcOmer0BaqsAAAAAABnN8/wC5Lkc331lh+R0FUkAAAAAAAKLeP+7n8uWGs6pPD5YdZhuAAAi2r/Wz6mXdLajmjqQycLZ6uYByAC36Ke3dLrR3pWC3YR8Vty9wdI5wAAAB/9k=;" parent="1" vertex="1">
          <mxGeometry x="1070" y="352.03" width="107.97" height="107.97" as="geometry" />
        </mxCell>
        <mxCell id="ii2s9qY_NflXiKq1x3v7-6" style="edgeStyle=orthogonalEdgeStyle;rounded=0;orthogonalLoop=1;jettySize=auto;html=1;entryX=0;entryY=0.5;entryDx=0;entryDy=0;" edge="1" parent="1" source="ii2s9qY_NflXiKq1x3v7-1">
          <mxGeometry relative="1" as="geometry">
            <mxPoint x="1060" y="395" as="targetPoint" />
          </mxGeometry>
        </mxCell>
        <mxCell id="ii2s9qY_NflXiKq1x3v7-4" value="Clustering" style="text;html=1;align=center;verticalAlign=middle;whiteSpace=wrap;rounded=0;fillColor=default;strokeColor=default;fontSize=14;" vertex="1" parent="1">
          <mxGeometry x="860" y="160" width="90" height="30" as="geometry" />
        </mxCell>
        <mxCell id="ii2s9qY_NflXiKq1x3v7-7" value="Visualisation" style="text;html=1;align=center;verticalAlign=middle;whiteSpace=wrap;rounded=0;fillColor=default;strokeColor=default;" vertex="1" parent="1">
          <mxGeometry x="1058.99" y="270" width="90" height="30" as="geometry" />
        </mxCell>
        <mxCell id="ii2s9qY_NflXiKq1x3v7-8" value="" style="shape=image;verticalLabelPosition=bottom;labelBackgroundColor=default;verticalAlign=top;aspect=fixed;imageAspect=0;image=data:image/png,iVBORw0KGgoAAAANSUhEUgAABgkAAAZ/CAMAAACBUeeHAAAAAXNSR0IB2cksfwAAAAlwSFlzAAALEwAACxMBAJqcGAAAAv1QTFRFAAAA7j0s7j0s7j0s7j0s7j0s7j0s7j0s7j0s7j0s7j0s7j0s7j0s7j0s7j0s7j0s7j0s7j0s7j0s7j0s7j0s7j0s7j0s7j0s7j0s7j0s7j0s7j0s7j0s7j0s7j0s7j0s7j0s7j0s7j0s7j0s7j0s7j0s7j0s7j0s7j0s7j0s7j0s7j0s7j0s7j0s7j0s7j0s7j0s7j0s7j0s7j0s7j0s7j0s7j0s7j0s7j0s7j0s7j0s7j0s7j0s7j0s7j0s7j0s7j0s7j0s7j0s7j0s7j0s7j0s7j0s7j0s7j0s7j0s7j0s7j0s7j0s7j0s7j0s7j0s7j0s7j0s7j0s7j0s7j0s7j0s7j0s7j0s7j0s7j0s7j0s7j0s7j0s7j0s7j0s7j0s7j0s7j0s7j0s7j0s7j0s7j0s7j0s7j0s7j0s7j0s7j0s7j0s7j0s7j0s7j0s7j0s7j0s7j0s7j0s7j0s7j0s7j0s7j0s7j0s7j0s7j0s7j0s7j0s7j0s7j0s7j0s7j0s7j0s7j0s7j0s7j0s7j0s7j0s7j0s7j0s7j0s7j0s7j0s7j0s7j0s7j0s7j0s7j0s7j0s7j0s7j0s7j0s7j0s7j0s7j0s7j0s7j0s7j0s7j0s7j0s7j0s7j0s7j0s7j0s7j0s7j0s7j0s7j0s7j0s7j0s7j0s7j0s7j0s7j0s7j0s7j0s7j0s7j0s7j0s7j0s7j0s7j0s7j0s7j0s7j0s7j0s7j0s7j0s7j0s7j0s7j0s7j0s7j0s7j0s7j0s7j0s7j0s7j0s7j0s7j0s7j0s7j0s7j0s7j0s7j0s7j0s7j0s7j0s7j0s7j0s7j0s7j0s7j0s7j0s7j0s7j0s7j0s7j0s7j0s7j0s7j0s7j0s7j0s7j0s7j0s7j0s7j0s7j0s7j0s7j0s7j0s7j0s7j0s7j0s7j0s7j0s7j0s7j0s7j0s7j0s7j0s7j0s7j0s7j0s7j0s7j0s7j0s7j0s7j0s7j0s7j0s7j0s7j0s7j0s7j0s7j0s7j0s7j0s7j0s5N3JPwAAAP90Uk5TAB2dTwmA/7k0Zea4I03T+H4GO8jdVB+uCoX3rSdY5aMgM8aPDByl/lqB9cUqX5QWzA6q7nYNhl1y7C4CYeH8EFDV62MBx9FGIsAwiqbqlRM/1O9zBd5SjPnEL2b9nxn0h9JDBGq2KVGWFPBx2rNu7QssSBd/pGCLEdB1t0waniv2Em1w29lLOL2iB3rzjSgPQrDpnIJp12/cVTzo+0R5JrVTtCX6kANn1mS7oZh0mqjxjuO+y5vC56u8V5K6kdinTpeDiEpZfRXywXdHN15s3zGECHvkqc09z6yymWJ4ibGgSWi/4lzD4JOvQGsYOls+Oc58Vi0bNTIhyiRFQckeHeewTgAAwPVJREFUeJzs3Xl8FkW+LvA3ENoQESQgYDxCkANx4rBECIRhUSAqATEhBiTIJmhYRBIMyiIIKLhGGFEQBEEFAQdUVtlkVZYZESXgiCA6KiPiNkfP3DnnnvHczwVchiVd9S7V/fy6+/n+PRO7nl93FW9XV1UoRBRscRUqoi+BiIiA4itZlnVBAvoyiIgIpXKiddqFVdBXQkRECBdVtX5R7eLq6KshIiK3JdWwzlTzEvQFERGRq2rVts5Vg9MFRETBUefS5PMGgpMu+zf0hRERkTsur1veOHBKvRT0tRERkfPqX2E3DpzS4N/R10dERM5q2ChVNRBYVuKV6EskIiIH1flNmnocOOWq36Ivk4iInNLYdoLgbE2aoq+UiIickNQsvHHgpLRL09FXS0REptW6Ouxx4JTmLeLRV0xERCZltIxoHDglsRX6oomIyJjqma0jHghOuup36AsnIiIj2rRtF804cFL7JtegL56IiGJ3bYcox4FTOnbKQl8/ERHFJum6GMaBU66/Ad0EIiKKQefLYhwHTsnugm4GERFFKaNrNQMDgWWl3piCbgoREUWjcjcj48BpN+WgW0NERJHK7W5uHDgp7+Z8dIuIiCgSnc8/kyxWPXqiG0VERGHLuKWX8YHgpILe6IYREVFY2txqcILgLH369kM3joiI9AxPEJyt/8XcmI6ISLha5icIzla3bRt0G4mIyF7GAIfHgVNuG4huJhER2Rh0u1MTBOe4oxDdVCIiKs/gmu6MA6cMGYpuLRERnatLgXvjwEnD7hyEbjEREZ0p7sZUVweCk4ZzuoCISI50Q1vNReiuzuiGExHRT0YUIcaBU24pRrediIjcnSg+T7fK6OYTEQXeSHcnis93293oCIiIAq2kbx/wQGDxTDMiIqD4UWnoUeC01Hvi0FEQEQVS1r110UPAr6qNHoOOg4goeAaORXf/Z2k+Dh0IEVHAFN6H7vrPM3w8OhQiogCZcL+AieLzZU9EB0NEFBAZLSeh+3wb7W+ajA6HiCgABj3g0tbTUcl7kBvTERE57JIp6M5eY+pD6IiIiHzt4Wbojj4Mj3ClGRGRU5o+6vrW01FJbcSVZkRETnjs8VJ0Fx+2ak9wpRkRkXHQLUcjlzeuOjoxIiJ/mZaN7toj1q5VFjo1IiL/mN4A3a1Hpfvv0cEREflEm9tbo/v0aD3J8y2JiAwY2AHdn8didAY6PyIiryu8A92Xx2hG5TboDImIvKzkqfbonjx23XPRMRIReVbx0zLOJItZbU4XEBFFZWZHdA9uzuh0dJpERN5TcRa69zaq9TP56ESJiLylSwG66zZu9hx0qEREHhJXD91tO6LZs+hgiYg8onhAMrrPdkrtKuhwiYg8oM2tc9H9tYPmNclBB0xEJN1z/pooPl/pfHTERESiLXge3VG7oMdgdMxERGKNaTIP3Uu7I3siOmoiIpHyb85D99CuaT9kMjpuIiJ5XpiN7p5dlTdiEDpxIiJZutRAd82uGz4QHToRkSAT7klF98sILy5EB09EJESGf1eSaSx6aQw6fCIiARbPnIHukIGa38mN6Ygo8B7y9NmUBsx+AV0CIiKowmx0RyxAjS7oMhARwZRU6IPuhUVIbTQBXQoiIoj4UUGdKC5Hywx0OYiI3Fc5yBPF5ytagi4IEZHLcpeiu15xZnGlGREFSeGF6G5XpOenoQtDROSSkqc4UVy+eU24MR0RBUF8pf7oDlewvEyuNCMiv2vzciK6sxVuCs+xISJ/u/s2dEfrAdm90WUiInLMyD+gO1mPWMaVZkTkT0OXt0f3sJ4x6VKuNCMi/8l/ZRi6e/WUbrfzTDMi8plrp6C7Vs+Zei26aEREBk3klqPRqJGALhwRkSFDX+VKsii9loIuHhGRAfktVqD7Uw/rtZLnWxKR5/Wsie5M1VbNvBF9CWrNM9ElJCKKycTV6I5ULe/BUxe5Bn0ZajXnoMtIRBS1krXoTlSj5fSfLvSZUvSVqL3O8y2JyJviKwk/k6xRw1+vdaj0MatRHLCSRERRqrwO3XuqrT57d59/W4++II0BxaBCEhFFafwsdM+pVvP8HT8TXkdflFrHmYA6EhFFa+QGdLep1nxEuZe9sR36wtSGj3e5jkRE0ZqwDN1lamyy/UZ/vvCp4zcK3SwkEVGUMi6dhO4v1V5cqLj6nM2L0NenxPMticgDZnZDd5ZqW57TNKDzVvQlquXd6UodiYiitW0quqNUs5kgOFtCDfRlqg1/yPE6EhFFq0sBupNUa789zFcrV65CX6pa9kRnC0lEFKW4eugOUmND+P1nnR3oi9VYPtTBShIRRSfjTXTnqDHrrYjaI31cGzbOoUISEUVrRGt016g2o1PETUoQ/q6r5k4H6khEFK3BwieKS3fFR9OsS4TvqF2DG9MRkRRdhG/TYG3fHW3TWuxBX7tavQkmC0lEFKW4rano/lCtIJZ1uWOe6IW+fqXklhnGKklEFJ300dXQnaHalm0xtjBF+Eg3Y8liE4UkIorWg3nojlAtz8TRj13+iG6GGjemIyKgt4RvPV1tdLqZhg7ugW6KWjY3piMijGkXojtAjXoGz/maL3xbvbVNzbWViChMkzfNQ/d+atkjjba336Oypwv2/Okxo+0lItJZ/EARuutTu/5t423e2wzdKLUeLxhvMhGRvbeXors9tRltHWn2O8KPZs7urW8DEZERC+9Ad3lqaU9HtaI4DHV2JKMbp9SnAqcLiMgN0zfLniBIfbTEwdY3fA3dPrXS+ZwuICKnLd4nfILA8b14ksaim6j27iUOB0BEQSd9gqBmTxdCaNwO3Uy1gvdcCIGIgqowG93JqTXPzHclh+p3yt6DO7VvP1dyIKLg2f1qe3QXp9TrCUMrisOQsT8N3Vyl/hfXcS0LIgqOsgOyN2hO3WpwRXEYSobInjg/2CrL1TyIKABaJaK7NrXXE1yPpMr76Ear/fkD1yMhIj/bewjdralNvRYSS5LwVccfdobEQkR+lFIb3aWpNX9mECiZrHcOohuv1Gv0dFAyROQv6Q0WoTs0pXmbJgPTqVNJ9tRxx9t5jg0RxSxT+Fk0hxeCA+q3DB2B2pbB4ICIyOvmzEZ3ZGpbbkAndFL9AnQMahvM7s9NRMGSUAPdiam13ifk1ccc2Wea9bnfya2YiMjPUraiezCNJwRNh84vRaehlLzDqe1ZicjPcjbLnii2aqegIzrL0COyV2AnftQGHREReUzZ0WHorkut6l50ROeZuAEditrSXHRCROQpbVehuy21Ge+gEyrXRVPQwag9vwCdEBF5Rm5VdJel1n+U1Jfeg0bIPr2h/fLd6IiIyBNGXoDur9T69JX8Iczkl2RvTLfngNRRlIjkmNAX3VdprJZ+avuCw+iI1Oq2RSdERLJlDJiE7qjUZo1HRxSGgd3RMalV5dQxEdnb1xHdSakV3Y5OKExLZJ9pZt1XiE6IiIQaOAvdQaklD8hARxS2jFt6oeNSar9W8mQLEaEsfB7dO6ml3jMBHVFEOj+JTkyt/6hidEREJMzkTbI/ebFqdEFHFLFc4dMFiS9z1TERneHO5uhuSa2mN3dWvlX4dMHSt9EJEZEYDwmfIOj4AOpMslhldJU9XWDdMQ0dERGJME34djnJH3tnovh8KVtT0QEqYU98IyIZJg+RvYVmaqM4dEQx6iL8HBvcKdBEJEO+9LMpC7w3UXy+i5aiY1Tb8hA6ISICqjgc3QmpbamITsiMxbeuQ0eptmEiOiIiAhn5CLoDUms+Ap2QOcU70tBxqi0fio6IiABK1qI7H40Ggs6mNGD3dnSgaqXj0AkRkdviKyWjux61w/47VKXwRXSoajV7ohMiIjdlta2L7nbUhg9ER+QI6UcAFUjf8ZuIzEkS3iHlPejX7xqzGh9Eh6vUp0JTdERE5Ioqn6D7G7X2Q/y81qnsQCk6YKXSA2XoiIjIcWM2LUJ3NmrZft//YPdy2Wv52l2OToiIHCZ9Jdlwn6wgUCq8Dx2zWo2H0QkRkYMumY3uZNRmzFyMjsgd0s+3bNQQnRAROaT+VegORmO/l7eai1Dluei01XbwHBsiP4q7UfammH3+4q0zyWJVvF/2io51twbk9xlRgKR3rYbuWtSyR6Ijcl3DRrLH5lkXoRMiIpMGjRB+eFbVT9ERQdSvgQ5erUYCOiEiMmbOFHSXojajEzohmDnt0OGrra+CToiIjEgQ/g/P/pXi0REBPTZ/D7oASos256AjIqKYxb0m+2V0+7Ul6IjAmj7VB10EpRXzueqYyNvSbxE+UXxfIToiAXoLP9/yYNs26IiIKHrSVxR3fw6dkBAbhU8XzHobnRARRUn6iuKDbbPQEYnxWIsV6HKo3ef37aCI/ClB+IritF1Bnig+39Ah6IpoNOH5lkReI31Fcfsju9ERiVN4B7oqasNeyUdHREQRKG4peycD6w7/nU1pgvQzzWbzfEsiz2hzq/DdzZbmoiOSSvyxojzfksgjcpeiuwu1uh/xm0R78Rf3RxdIKfUv/dAREZHWAuEvm/uP4kSx2u61ss80639xHXRERKQ09Ai6n9BYxn9R6o38A7pManVboRMiInvVxw1DdxJq2VxRHJ67O6BLpdZsLzohIrIxpwe6g1DrHsytp6Oy+PaO6HKpvV8LHRERlaOL8M1rim5FJ+Qt14xGV0zjTZ5vSSTNhHrojkGjZYDOKDakc2100dS6fYZOiIjOlDFA9kqy1Bvj0BF5UtJYdOXUunNhCJEYi2fOQHcJamt4CGKUstomooun9slCdEREdNrgWejuQG3VHHRCXlankuyfe1aD6eiIiCg0MhvdFagNe6U6OiKPK6kg+0yz1vsWoyMiCriS+2X3EvOa8BTc2BUKH+2X3o1OiCjI4qW/OeCWo4bcIHyl2RtcMkgEkvWR8NlEbjlqTpuX16HLqTSvyWR0RESBJH0v+xlLuOWoScW/SUOXVCnvwUHoiIgCZ5rwLUetllyBalq/Zeiiqs2uiE6IKFjEn3m7lSvJnND7c3Rh1R6ZiE6IKEAyhW85uuZhdEK+VXE2urhqa3k8NZE7BgvvDI79NQsdkY/l35mHLrDSngNl6IiIAmCi8G/L++9iT+CsyU3moYustKox/yVA5KymFdDPuUaFEnREATDtPnSZ1bo/h06IyM8eO7oH/ZCrFfRGRxQQA4XvNXUHV5oROWVjO/QDrtZuIzqhANlXhC632lr+OCRyQm/hZ5KVPv4YOqJAyXizGrrkSv1HxaMjIvKdpn1T0Y+2Uur9TdERBU7cjbLvicROXGVOZFLZAdk7DVhfvIeOKJAShP9O7DAenRCRj+w8hn6k1Y5fgk4osHrWRBdf7Q8j0QkR+cTeNejHWY0TBEj5dzZH3wBKfbjqmMiAKuvRz7LGWk4QYI1Zib4F1NJ2ceqYKDY5X6KfY40T/HAcr0pt9G2gVrctOiEiLys7Kn2ruSR0RHRarvCVZlV5oxBFKauV8JVkw+egI6JfLP6sI/p2UDvMg0yJovHVIfTDq9ZtCTohOtM1m9B3hMaRoeiIiDxnwYvoB1et/294Jpk0C+9C3xVqw8bxIzOiSOxe3h792CrN285PAyWSvjFdDy48IQpb/K5S9COrdlkVdERUvsVft0bfHGoF9dEREXlE40T046rGsyklGyN9uqBeQ3RERB6QVBX9qKqt4tmUwi08jL5H1CY9zSkmIrWUJ9HPqVraKJ5NKd/A7uj7RC2xLf81QWQvvcEi9EOqlPpoP3REFI42lWeg7xW1sbnoiIjEGiH8GCrO9nlH+gD03aLxZGd0REQijRf+BeBxnk3pKbWuRt8xar1uyUBHRCROYTb6yVTj1tPek9QMfdeodfuMZ5oRnSnnCPqp1KjwDToiisI769A3jlrVgeiEiARpIXwl2ee90QlRdOrsmoS+edRqc7qA6CdzeqAfR7Wp16ITouj1q9AHfQMpLXpiOjoiIgG61EA/i2pFzwxCR0Qx6S18CqrjzMXoiIjA4hqhn0ONzdegI6KYVRyOvo3UOjyHTogIKf3jZPRDqPZhCjoiMmHQPuEb0z3Pc2wosPJHCH88D+1FR0SmTL+lF/p2Umq/PQcdERHEztnop08t8Up0QmRS563oO0qt9AA6ISL3JaxBP3lqex7nVnN+s1f4eajtdnJjOgqWKrXRT51GBZ5J5kcbj6FvLLU136ITInLPmM2ytxzl/J1vVT+6An1zqfEbBQqK6i2GoR83tarcMdjHcobIPiK71xPp6IiInJf1XTv0s6a2qjFf1vrbgufR95ha0Z356IiIHJYkfNKOE8VBkLsUfZ+p9djIf42Qny0UfjaltYkTxcHwkfAzzdbwDSX51nThZ1Nan3CiODDiR/VH325qvBnJnwY9IH1FcRI6InJTyVOyNyltv5w/UMl/3pJ+NuV3fDUbNOLPybs4Hh0RkVHTNqCfKrU986ujIyKAt7uj7zy1xMrcsJr8Y+h22Z9w93mVv8MDanHluei7T6373eiIiMzIHyd8JVl2IToiwil+Wvj5lrw9yRc21kQ/Smo1L0InRFgT+qLvQY21/MlKXte7AP0YqbUewbMpaaTwu7T0ANc7kpf16yv7Q71FDbjHC53ykPBVx6ta8dM28qr4UcLfwK6vgo6IxFjSEX07qh36Gzohomi0+agu+uFRq8qVZHSG4v3C/+Fygv9wIe95TvhKshmV0QmRNOKnjhtMR0dEFJHC+9APjVrab7h6k84nfeq442dcaUbesXst+onR6NsPHREJdVEP9M2p1mEgOiGi8Ijf5bFgJDoikiv/ZuELIT/pjI6ISE/8RPGWbeiISLahrwr/9vmWDHRERBrST4Nq/QBXkpHOROHTBd1ubYOOiEhB+kRxr1u4kozCccm76HtVrTvPNCOxdq+VveWodXUcOiLyiscOCJ/t+mQhOiKi8sSPSkM/HGrN/gMdEXlJv2XoO1aDqwtIoLbCjwhf1QqdEHlN/avQd61a8zvRCRGdLakq+qlQGzaOZ5JR5F4QvqX6lvHohIj+ZcFd6CdCbd6XY9ARkTfl39kcffeqZU9ER0T0k5yb5qEfB7UnuXMXRW3MykXoG1ipz6tN0RERnfTKCvSzoPY9txylmFSpjb6H1dIeRydEtPM4+jlQO/ZXnvBBsdq7Bn0fqx3fybuckKQ/IXvm89Q/MmGj8JVmh/aiE6LgStmKvv81tuegIyLfaFGKvp3VtqagE6JgSl+Jvvc1Di9AR0R+krMJfUdrdOVWKuS+TOFf1225AZ0Q+c2CE+i7Wq0oE50QBc21w9F3vVrRPp7tROZJX0E5tSI6IQqSkZ+j73iNBlxJRs64V/iuKtld0AlRUJT0lX2Qh/U8d2kkx8RfLHuT0tR7uOMuuUD82ZSzeNArOarkKdn/FEp+k2eakdOkbznafB86IfK/wg3o+1ytaAQ6IfK3vcInzOZt5pbt5Ia3hJ/Syqljck6K8P1XOEFArll8e0f07a5Wg1PH5Ij0l9D3tsYsriAgF00fjb7jNRo1REdE/jNoRBH6xlZLfLkNOiMKmM5Xo+96tUm/qYOOiHxmm/CVZGk/xKMjogBK+jP6zler2xidEPnJROGfSrRfuxsdEQVT1s526LtfrVl9dETkF0OXo+9mjRcL0RFRcJXNT0M/AGrL+qEjIj/IHzcMfSurVc1FR0TB1lT4SrP+P/CUDopVxZro+1iNL0IJr4vwjbiO7UQnRN7WOxt9D6vtOcB/7ZAEFaegnwW1NTzNm6JW0hd9/2oc4UQxSZGZh34c1A7/Gzoh8qbH5u9B37xqd/FMMhJkcpN56EdCqf12/sOJIvef0o/w5s9dEmaa8K+tS0cVoyMij6n/BfquVUtshU6I6HyfzkI/GWodZ6ITIi8pWYa+Y9VK/8SJYpLpZeHbtm/Zhk6IvKJ4h+ylMvO+zEFHRGRH+plm1oZp6IjIC9q8nIi+VdVOVEFHRKRScqQ9+iFRan/TZHREJF6u8BM41uxFJ0SkU/g8+jlRy3twEDoiEm3Bi+h7VO1drpUkT8gVfrrf1PHohEiunCbo+1Ot9GZ0QkThekf4W9Y3OF1A5WshfKu55VwYQx5SdrQU/ciocbqAyrGxB/rGVMueiE6IKDI522VPHTd/htMFdLaENei7Um32YHRCRJFbIHzqeMun6IRIkritqehbUmnFuHx0RERRkf4xHlcX0C8yPk5G345KfV4dio6IKFptPpI9dTxvE6cL6JSvW6PvRbXP/45OiCgW8ZVk/1Or+Qh0QoQ3eDj6PlTjBAF5X8n9ss+3HN4TnRBhdamBvgfVOEFA/iD99D+u3Q8y6RPF84ZwqznyC+nnW9bmfl4BlT66GvrmU3uRZ5KRj+QLP99y3k1cuhlEXxeh7zy1sV+hEyIyK2c7+qlSS7s4Hh0RuewF4T9VD96bhY6IyDjp51smdmqDjohclCB8orh0F/9tQv70dgf006VWlauOA6PWVvTdpvEq31eSf+0TvoBnQ290QuSGjI+FTxRfWIiOiMhJ01+ah37IlFKXTUBHRI6bKXyieNYN6ISInLbwAvRzptGyDjoictQNwlcUd6yMTojIDduEbwK/rjE6IXLOgvvQ95fapB3F6IiI3JGfKfxgqBo8EMSncobIPjYj9VG+naQAGXpE9mZEfYZwk1Ifyh8n/J8gBSPRERG5q3cB+qlTK/qMqwv8Zue76LtKrea16ISI3DfnOPrJU7ttPDohMkn6lqNFPE+Vgin/gY7op0+tgJuU+saEerK3HO21Mh0dERFKxv409BOo9iQX+PhC8f5J6FtJ7bIUdERESCVrZX/L0advHDoiilnldej7SG1sEjohIrTCE+jnUOOJDHREFJPcpehbSO3YX7nlKFEolLQG/Syqzf2IT6p3Fd6Bvn/U0naVoSMiEqLnbPTzqPY9f717VM5y4W8f7+eWo0S/yh+3B/1Mqm1tiI6IIld2oBR946h9zr1vic5SUgH9VGrs53YwHpP1XTv0TaM2/Fp0RETy9Ba+8mfurYvREVEE9h5C3zFqze/MR0dEJNLOVeinU63DW+iEKFyda6PvFo2buLMVkY06T6OfTw2+1/WG9AboO0XjxAJ0RESS1Xof/YxqVBiKjoi0MpujbxO17gPRCRFJ97dm6OdUbcU4dEKk9oLwb5IPtuX6FCK9jTXRz6ra7IrohMhegvAPD0p3xaMjIvKG/Gdao59XtYIu6IiofHGvoe8NtfbLuZKMKGwZA2TvHZl6Ywo6IjrfNZvRN4bGHdPQERF5y/9Zhn5qNTaPQUdEZxs0QvhPyarctIQoYoX3oZ9ctY4831KUOcInihNboRMi8qaBHdBPr9ptf0MnRL/o8jr6blArPcotR4mi9VE39BOsdnUKOiE6RfwylCNchkIUg+Id6GdYY/M16IgofTT6LtDgimKiWDUUPnXcOhOdUNB9LXyi+Pqv0AkR+UH9AvSzrHasEzqhIHthCrr+aok88Y7IkMHCPwv58+/QCQXVP65A114tuRJXFBOZk7kC/UyrNYlDJxREKVvRddfoW4KOiMhfhgo/06wHOqDgSe+KLrrG6pHoiIj8p7fo6QKOBC7Lv7MIXXO1qdyokMgRks8040jgrp3H0RVXyxuBTojIt+rIXV3AkcBN9YVvPb1o5XR0RER+1vBq9ENugyOBeybUQ1db45Mq6IiI/C5pDfo5L1dNdC6BUTYqDV1ste656IiIAiBrYw/0s14O/iZwyXfH0KVWm7GEW9QSuSL/QXmfjXAkcMXe69CF1hidgY6IKDjkfUrOkcAFDRulouusdllndEREwRJXT1anwJHAcXV+gy6yxqFn0RERBU+Xz9FP/pk4Y+y0VnXRNVZb1xadEFEwVRS0MR1HAmc93AxdYY0dxeiIiAIrcxi6A/gFRwInpXyIrq9a6j0T0BERBdnQ7e3RvcBPOE/gnDGbF6HLq1ajCzoioqCbuAHdD5zGkcAp1cfloYurNvsFdEREFApdNBXdF1gcCRzTSvhWc3ueQSdERD95EH+ODecJHLH3ELqwaos2j0FHRES/mPzlPHCXwN8EDqiyHlxVnfXcao5IlGmHsX0CRwLjcpqgh3eNqknoiIjoXANnIXsFjgSGlT2Of+WnlPgOOiIiKs/tzXH9AucJzGqViKtlOEoPlKEjIqLyTR8N6xk4EpiUJHyieN5NOeiIiMhe3P19MH0D3w6ZswA856P1JCeKiYQrxHQjHAlMyRkifKL40F50RESkl4Q47pwjgRllB0oB1YvAqivRERFReK4d7noHwXkCI9qucr1yEdlzMzohIgrfrd1c7iI4EhggfaJ40UtcUUzkKcUDqrnaSfDtUMwWPOlqxSLHFcVE3lPrfTd7Cf4miNH0TcInirmimMib9rp4zhV/E8Rk8det3atVNBI/ykJnRETRyfqraxOQHAlikQvdKURv0n6eTUnkYWW7+rvTV3AkiF5n4RMEqY14NiWRx/X7S6obvQVHgmgVD3CjPjG4imdTEvlA/S9c6C44EkQnq+06F6oTg+OXoyMiIjMuedfxDoMjQVS+/d7xysQk7Sg6ISIy52iaw13GbHQLvahhI4erEqsju9EREZFJTSs422c0QzfQezIGTHK2JrHKLkRHRESm9S5wrs/o8wTPLYlQ/oPCVxB0fxsdERE5wbHpghdHopvmORt7OFQLQ7p1QidERE454MR0waFn0c3yHOlbzSW3zEBHRETO2f3lIsOdxoyXuQ1BhArvMFwDw1JvjENHRETOqmJ0Yzr+4zFiE/qCDhgN15oEdERE5LwEY1PHqfW4DUGE0qWvKD4+Bx0REbnjoSlGOo3X66Mb4jn7hH8wtCcTnRARuScz9qnj4y+gG+E5by810Fk7aeVkdERE5KZvlsXWZ7R+Bt0Cz1kofKLYqp2CjoiI3LZ3bPR9xrAf6qAv32umv2Suy3bEWH4MTBRIlTtG2WmM5kuECA0aUWS02zbu+JX8GJgooIr3R7PzzYf82jxSbwk/k2zF0eroiIgIZ0K9SM+xObQXfc2eM+1CR7pvczbloCMiIqwuqyPpM2a0RV+v54xp4lQHbsiJKuiIiAhvfNVw+4zkXfHoi/WcFnuc7MVjNzYXnRARybBxdlidxrIS9IV6zk7nT4uLyarv0AkRkRxLhmk7jesfRl+k5ySscaEzj8GwP3GimIjOkHNEvS/ajI/4lWGE4l5zqUOP0qIvOVFMROf4rz/bdxqt5/87+vK8JqNrNfc69WjU5kQxEZ0v697E8vsMjgORk76SrBlXFBNR+YrL3TL5pnT0dXnO4Klu9+yROX45OiEiEiyu77mdxlROFEcq4Y+I3j183HqaiDR+e+LMTmPdPvT1eE5no4fCOWDzGHRERCRf7m2/9BnrbkVfi+eMWYns5MOwNQUdERF5w5JupzuNITyjOEJlf9Kvy4D64h/oiIjIM+IPWNYFnCCIVNtV6J5erWZPdEJE5Cn/za9LIjXwenRPr7aCx8wRETlqwYvonl6t/U08XoiIyEk5N81Dd/Vq2dPQERER+Vr1ccIniqdUREdERORv/9kD3dOrrRiXj46IiMjXpG893WftUHRERES+1rAeuqfXyJ6IjoiIyNfKKk1C9/Rqw7mCgIjIUZcfQ/f0ah0fGISOiIjI13oXoHt6tWofc7cQIiInDV2rPu4TLbVRHDoiIiJfG3TzCnRXr1bQBR0REZG/zRmO7unVal6LToiIyN/2Cp8gKPoanRARkb9VqY3u6dU4UUxE5Kzd22VvNZd6IyeKiYicVDyqFN3Vq9XgRDERkaM6rUP39GrHuaKYiMhRudeje3q1okx0QkRE4tw73eAf63wC3dNrNLjGYGuJiHwhd7g1t7GpP5YxGt3Ra6xPMdVUIiK/aNjodAc59W4jf+2zjth+XmfsB0aaSUTkI5P/9U/4yybE/NcGdgd28mFY9U6WgcyIiPykZGXaGf1k6bjYtmZe8Dysiw9L8sXxhnIjIvKNo+f2lbN+H/0fm7xZ9kqyPveXmEuOiMgfvt1STn95x8go/9ozwrccze5tNDwiIh8osTtWuG800wUbhW852uMF4wESEXlc/Kg0215z0sVlEf618VVd7NSjUDrOkRCJiLys8gxlz3lwZyR/LCHbpQ49Wmt3O5UjEZFXDbxN23nWeDjcPzbtQxf68lhsmOhklkREXlT4Ylgd6NaUcP7Y5CYO9+Oxqsmt5oiIzrF7e9idaNd07V+7U/gHQ0UjXIiUiMhTynbZTxSfL2+f+q9tE/7BkLWfZ5IREZ2j7cEIu9Klz9n/sYUXONJ7mxPV57BERL72wdgoutPaNkc8Zrwke0WxlR3tEjkiIt9KuSy6HnXS0fI2I7q1tdl+27Sl410PmIhIuGu6Rt+rTv3buX9tTnn7VAhSdDsiYyIi0TKLYupZ7/nmzD+W+38NddhO2WzyBDYiIl9o3C7WvnXF0X//5Y8tkH425VabmQ0iouAaP8tE/9r8wdN/bMwRE3/MQc2+BcdNRCTOwwWm+tg1XU7+ubqm/poz2n2HzpuISJr/Mfoq58VQyOSfMy4vE503EZE0GU8Y7mrLRI8Em8egAycikqZyN9N9reCRIPUeThQTEZ0jqbv57lbuSLC6CzpvIiJpar3vRH8rdSSoOQedNxGRNMUDnOlxZY4Eze8sbz8MIqIgW7xEfTZl9CSOBPM2caKYiOgcb3VwrNcVOBKcqILOm4hImpEbHOx2xY0Eh5LQeRMRSVNyfx8nO15hI8G7O9F5ExFJU2dUsrNdr6iRoPkz6LyJiMRpm+h05ytoJJj3JbeeJiI6R1I0Z1NGSM5IsGEaOm8iImk6O7KS7FxSRoKag9F5ExFJk9G1mis9sIyRIO0oOm8iInEqd3SpDxYxEjzVFJ03EZE0/3RuJdm5BIwE2RPReRMRSVN4gYvdMHwkGH4tOm8iImlKnnJ0Jdm5wCNB0TPcao6I6Gzxlfq72xVjR4Ku16ADJyKSprLjK8nOBRwJUm/kmWREROfIXep+d4wbCR7hmWREROeY9iKiP0aNBGPfRudNRCTN0JswPTJqJFhWgk6ciEiYccMwHTLu7VDy/gx06EREgvScDeqOoTPGRSPQuRMRSdH7c1hnDP6KdGpFdPZERBI0dXcl2bnAK8u++C90/kREcPPToD0xeiSwUpc1RJeAiAhq53FsP4wfCU7aUQddBiIimG+boTthESOBdbBVFroUREQQcVeje+BTJIwElvXn/0BXg4jIfeld0b3vT2SMBJZ1Yz90RYiIXDaiNbrr/ZmUkcBK++ExdFGIiFy0bQu63/2VmJHAso5fgq4LEZFboCvJziVoJLCs1SPRtSEicsOEvuj+9iyiRgKrz7IJ6PoQETmt+NJJ6N72bLJGAsua1JIb0xGRry2eOQPd055L2khgWd328WhjIvKviwBnkunIGwksa8o2dKWIiJwxcjW6hy2PxJHAsjZMRFeLiMi8CY+morvXcskcCSxr7W50xYiIzCrej+5Z7UgdCazS+eiiERGZ1Kkbul+1JXYksKzjV3JjOiLyi6Sx6D5VQfBIYFmHctG1IyIyoXNtdH+qJHoksKznC9H1IyKKVUbXXujOVK0s1Bx9CWprueqYiLztVilbjtoqC03/En0Nasn7eaYZEXnXj7ehe1G9spPXWXgh+irUEtty6piIvKnzk+geNBxlp6/1n93R16F26CtwMYmIojCmAbr3DM9PI0Eoa2dN9JWoneiMrScRUaSqj8tDd51hKvv1mvetQF+LWoPpwIISEUWqVTt0txm2f40EoclN2qOvRqnomXxcSYmIIpJ7CN1nRqDszCufWIC+HLXZL6BqSkQUicI70P1lRMrOvvo5wn/NXJWAqSoRUfhKnkL3lRE6ZyQIPTZ/D/qS1K5OQdSViChcxfvT0B1lpM4dCUKhb2QdtHy+myYDSktEFJ4lcrcctXX+SBAK9f4j+qrU9rQo76qJiPC2bUH3kNEov0/tKXx1wbHGbVyuLhGR3rQN6N4xOjb/un6shfDVBdff7W59iYh0hg6R/Sm+Pdv3LEOP9EFfm1p2FzcrTESklv/KMHS3GDXFG/e/v4i+OI0bU1wrMRGR2kbhL9WVlHOvf/tf9OVpcAcKIhKhdza6O4yJ5iucbR3QF6jW+oFB7pSZiMhWv76p6M4wNtrvMRsfQ1+i2tSH3KgzEZGdsosnoTvCWIXxZf4rpeiLVNsw0flKExHZ+G4VuhOMXThrtIa+Kvszoj5rmzpeayKi8uxthu4BTQhvte5E4ZMhpQe46piI3FfrNXTvZ0a4PWjPHugrVUts62i5iYjOUzwA3fOZEva/pcUvmjiU5GTFiYjO1ubluehuz5gI3qqIX3V8oopzNSciOktud3SXZ1BE79eln2m2aPMYp4pORHSGhZ+g+zujIpxplT5dkHdzdWfKTkT0q+kNFqE7O7Mi/ebmsaPCVxf0+E9HCk9E9LP8zCJ0R2da5F9fNq2AvmaNZt86UHoiop/sPI7u5MyL5jv8/xK+usBan2K69EREp32wBt3BOSG6FVkXzUJft1qvBpw6JiLzqjyJ7t2cEeXa3MUzhZ/Z3Dwz3+wNQESBlzNkHrprc0jUuzRkXCp8972anDomIoPKftiD7tYcE8N+PROWCd+Re81ec/cAEQVbm48Oors0B8W0c1uXz9GXr/FhLVN3AREF2g23obszR8W4h+e2KegGaAyoY+Y2IKIAK7wA3ZU5LNbdnAfta41uglrdVllG7gQiCqqS+4XvuRa72Pf1n35LL3Qj1JpxuoCIolb8dBq6E3OeiRNeOn+IboVa6j39DLSSiAJo8a3r0D2YG8yc9ZUk/Py2tF0804yIIveQn7aeVjDVQ7YS/oHVscsNNZSIAqP3anTP5RZj/1YuOyr8TLMaCaaaSkRBMOEvvp8o/pXBtyY5m4Xv2H11irnGEpG/FUvfRsEoo+/Pq9RGN0dj82STzSUi31oifGs1wwzPpCbUQDdIrXkmzzQjIp1c4dstG2f8m5prp6KbpNZjo+kWE5G/dPbXGcXhcODryhHCf1U1SzLfZiLyi/TR6D5Ko9275v+mE9/ZZzxh/jqNWv8/DrSaiPzgVuEb6BTNDL1o/q86s+Jq4WHzV2rUlzmOtJuIvO1vh9Cdk0aFk32XZ0aCUGjgcPPXatKwFpw6JqKz1RK+c471xnunLtNDI0EoNG6F+as1adWVjjWdiDyoeD+6V9L4369+ulBPjQShoU8JX6B3iJuUEtHPsu5NRHdJauve+eVSvTUShELvXWf+go06vNDJ5hORZzwsfBtNa1P6r9fqtZEgFLpS+oauTTh1TERVLkN3RRonpp1xtd4bCULxFws/5GHYKw4nQETC7T6C7oc0rjt7EZQHR4KTIS9vb/6yTTp+Oc+3JAqu+B/2oDshtakvnHPFnhwJQqEF0lcXcOqYKKjavFwX3QGprchcfO41e3QkCIWSpK/W+DDFlRyISBbpZ5KlPtr0/Iv27EgQyrryuPlrN6nXyjHuJEFEYnQpQPc8Gt3LfV/h3ZHgpBbC38XtyXQtCiISIKUeutfRKNpX/oV7eiQITb7J/OUbVbOne2EQEdbkzegeR2fzdJtL9/ZIEAp1ln6m2Rdd3IyDiGDG5aG7G42tKbbX7vWRIBRKGmu+CSalNmrobiBEBNBzNrqv0ViToLh6748EoVBj6auOBxS7HQkRuar3anQ3o1HzcuX1+2EkCNWpJHzV8dzKbVwPhYjc0lT63phzvx6kboEvRoJQqN+yVPMNMan7QEAqROSCx45K/4rxYu1rCZ+MBKFQfelf8d4xTd8IIvKcOT3QnYtar81hbIrpm5EgFLpEeD2sIUNByRCRU3q/ju5YNN5PCacZPhoJQqFxwn+jlc6HRUNEDmhaAd2raGz5MbyG+GokCI3ZZL45RrXbiAuHiMwqmy/8W5UVNiuKz+evkcADm5Rep/qml4i8Y+cxdHeisX1y2G3x20gQCuUK3wjQepQrzYi8L+EqdFei8fnICFrjv5EglPXOKvONMmnS03XAERFRbOK2ovsRjSmR7Xnmw5Hg1IFBpeabZVLde3mmGZF3ZbyZjO5E1PIy8yNrkS9HglDom7Xm22XU939DR0REUZrZDd2BaGwKYwXB2Xw6EoRChdnmW2bUZZ3RERFRFD7tgO48NF6sEnmjfDsShEJvzTLfNqOeyEBHREQRKrwA3XFozIpqZxsfjwShUOWO5ltnUscR6ISIKBK7X0X3GhozPoquYb4eCULFTwtf+LGlIjoiIgpX2ePStzHYFR9l0/w9EoRCJfcL3y22Bs80I/KErCvbobsLtfbLd0fdOL+PBKHQSOFTx6mN4tAREZHW3kPovkLj8IIYWuf/kSAU+lT4quNqH6ejIyIipSon0P2ExqGkmNoXhJFA/tRx60x0QkRkL+dLdB+hkXhljC0MxkgQKt4hfElgzTnoiIjIRgvhmxYk74q51w3ISBAKTVhmvqVGfcFNSokkaiV9y9G1/WJvZGBGglCofg3zbTXqNU4dE0mTJH2iuEYkW47aCtBIIH878WpvctUxkSRVPkH3ChqzXzDT0ECNBKGyXf3Nt9ekbjMXozMiop/l3DQP3SWoDXslwi1HbQVrJAiF+j2aar7FJnX4FB0REZ1SNn8FujtQm/dlxFuO2graSBAKJVxhvslGvVGIjoiI5E8Un4hlJdm5gjcSyJ8uaP9q9GvGiciEBOkTxVVjW0l2riCOBPKnC0oPyA+RyL/irkb3ARqr3jF87GEgR4JQaEI98+02atV36IiIgir9FvTzr5H2g/FeNqAjQSjUpcB8y42KcRsRIorKYulnU7Y/4sDr48COBKHQQ0vNt92oT0xOCBFROHKnoh98jeyJTjQ7wCNBaPGSueZbb9K8IZw6JnLTgvvQT73G7GudaXiQR4JTG9OZb75RaT9EewQREUVq6BH0E6+xwrFdi4M9EoRCE/oKP9Ps4L1t0BkRBUL1FsPQj7tan6eGOtb4oI8EodDvNpiPwKjbbkBHRBQAPd9FP+oaBU6edMuRIBS6u6r5EIzKNrLZIBHZSpC+VfHx/3S0/RwJTqk8w3wMRq0tQUdE5GNx0hcYlf7gcAIcCU6LHyX8TLPk/Zw6JnJGxpvo51tnk+NfEXIk+FnJU8KnjhM/4tQxkXmLvxa+ksy6rIrzKXAk+FXhheazMGppLjoiIt8ZPwv9YGvU2OtGDBwJzpArfdXxXVx1TGTSyGz0Q60xtac7QXAkOFObj+qaz8OkeU3MHU1BFHQl9wt/Jzzj9kEuRcGR4GzxFwvfsHrYuOrojIh8Ib6S8Ic9bUexa2FwJDhXydr25jMxqcccdERE3pcl/QVA6l/6uRgHR4Lz/fYN86EYdd0/0BERedyP16MfY42C91zNgyNBeZ6T/jnBjXHoiIg8bIEDHZ9R7S5xORGOBOVq00n4quNqo9PRGRF51O4jwt8Arxj3mNuZcCSwkT7afDJGFTm2Py2Rn5VdnIZ+eDWWO7flqC2OBLY61zafjVFTXPrSmMg/su49iH5wNTY4ciaZDkcChdzu5tMxqkYCOiIiT0mSvvHwrLcwwXAkUGlTWfqOJO+noDMi8gzxE8WtH3BrJdm5OBKoTV9pPiCzNo9BZ0TkCbuln01pbb4GFg5HAp3OT5qPyKiiO/PRGRGJV3ZgD/pR1TiRAoyHI4HeQOmvFo9z1TGRWqtE9GOqMRa71TBHgnBU7mg+JqMK6qMjIhLs4WboR1QjsTE4IY4EYbmmq/mczHrUzT1KiLyk1tXox1OnEvxIQo4EYUpZbz4po9Iq1UFnRCRQcUvhR9Om3jMBnRFHgggkjTWflVHwH5hE8nRah34wNQpErAriSBCBjcfMp2XU98+iIyIS5dlD6IdS47iQnQI4EkSi+lHpH6Jd1hmdEZEY4neMWXFUysFTHAkik7Nd+C6GvUZnoDMiEiFjdC/046jW/oicw2g5EkRqwR3mIzOq48zF6IyI4Np8Jn2rmOxCdEZn4EgQudyl5kMzqsOn6IiIwAZK3z5y1nh0RGfhSBCNmdJXmv1B0r82iNy24DD6EdTIG4GO6BwcCaIi/hNla20JOiMikN2b0I+fzkvijhzkSBClkrXmkzMqbVcwCkF0trLHS9EPn8b6FHRG5+NIELXC+8xnZ9Sqv2ahMyJyWVbjVegHT6NqEjqj8nAkiEGu9E1KD+1FR0TkKvHP5LqXZf77jCNBLLL+2s58fkbVTkFnROSaQumfeCdfWozOyAZHgtiUtZC+6niluLkpIkeIn7uz6gnYas4GR4JYjZF+vmVeJjoiIufF75D+PV+zh9EZKXAkiF3K++ZDNGrKYHRERM5qU1n6mWTtrkRnpMSRwIR/fGE+RqNe74KOiMhB46Wv+y99XHi/yJHAjG3DzQdp1Pv/Dx0RkUN++wf046VzZDc6Ix2OBIYMeqa5+ShNSh7ATUrJj4ZK3x/YerIKOiM9jgTGTP5ynvkwTerGTUrJd/LHDUM/WBprPLGqhyOBQdM2mE/TqFkPoSMiMqrnbPRDpdHjcnRE4eFIYNTd0ieuCkaiIyIypncB+oHSKMrMR2cUJo4EZi3eV2Q+UZP69OUmpeQPTe/vg36c1Krd4p1lnRwJTJv+0iLzmZqUtkPqgnei8JUdEL7laOqNceiMIsCRwDzxp2TMnYmOiChG3x1DP0YaBfXREUWEI4ETBs4yH6tR3Xm+JXlZ/RroR0ij3UZ0RBHiSOCMma3NB2vU6t+hIyKKUsN66MdHY5L3joniSOCQ6Q3MJ2sWp47JkzJaoh8dnWX90BlFjiOBYzrXNp+tUcn7OXVMnjOiI/rB0bjCWxMEP+NI4KCkZubTNWpuJ3RERBHZNhX90Gis8shKsnNxJHBSlvgPHDh1TB7SRfpKsrRRXu3+OBI4q2xXmvmEjdrAVcfkDXHSJ4o9OUHwM44ETmtawXzEZnHqmDwgoyv6QdFp5omt5mxwJHDeROkb03HVMUk3aIT077Lf9egEwc84ErjhU+kb081dwg2rSbCe0k+CGvan6uiMYsORwB23S/8XzSyedUxSJXyBfjx0Ng1FZxQrjgQumT7afNJmPcKpY5Ko4Y3oR0PnxL+hM4odRwLXpGw1n7VZyyagMyI6R5396MdCZ9bv0RmZwJHARQnSt82adCnPOiZJsu6ti34oNBI7tUGHZARHAlf1nGI+b6N41jEJslf6Kv20p+PRGRnCkcBlXws/08yaug0dEdFpca+hHwadRv55n8qRwG3po6uZz9yogi7ojIhCdS5NRj8JGgW90RkZxJHAfSnvmw/drEZeOnaPfKlVIvop0Hj3EnRERnEkQBA/dZz8JqeOCUj8Nr4rxuWjMzKLIwHGYOlrJjt+PQidEQVVravRt79G++2eX0l2Lo4EIIMekL7qeGpFdEYUSMUtpU8QbJiIzsg8jgQw6V2lTx3X4NQxua3Ny+vQ973GrIfQGTmBIwFQLelfyaXeyKljclWu9M0aWz/gz9emHAmgvl1jPn+zuqajM6LgKHSgPzKrwXR0Rg7hSAC286D5ChjV7TN0RBQQOUfQN7vO+oXojBzDkQCtbP4e8zUwqnsuOiMKgLLHpT8Ih7x8JpkORwK8pq/2MV8Fo2p3RmdEPpf113bou1yj3XdZ6JCcxJFAAvHnW/b6mCvNyEF7D6FvcY0V833er3EkkOGtWeYLYdQMn2y+SwKl1Ebf3hrzhuSgM3IaRwIhFn/d0XwpjOJ0ATliTINF6Htb464F6Iycx5FAjGvEn295ohY6I/KfzObo+1qj+4/oiNzAkUCQzh+ar4ZR1d4sRmdE/nKt9A24Dt7r64niX3EkEEX8SrO5ndARkY/0zkbf0Bppu/xyJpkORwJZsq6U/jFd1bfRGZFPlPQV/vl0n/t3ozNyDWgk+P393NzMRtnRUvM1MeqCQnRG5ANlo6RvObraT2eS6UBGgve+OPk/G80v1G3kLDdfFLPWfoPOiLxO/Jlks+egI3IVYCSIe/Sn/x1fOduadsJ8WYxKqxSU16fkiGeln0m25xl0RC5zfSTI6Pqv/2Wzv7nUSu8ZKH2lWWJldETkWSnr0bevzqbJ6Izc5vZIsOTs9VMnqrjVUM9pLP3X8/VfoSMiT5q+GX3r6twRgJVk53J1JMhfct6HMYsajHGxtZ4SXynNfHGMCsLSSzJM/mL6pYFcTO/mSNC43A8k84L2Qi58/ZaZr45ZR4LzlR0Z8dYW9D2rEdTpS/dGgvG32f0fjrdyt80e8rtHzNfHqLRRnDqmsI1cjb5hdfYHdRW9WyNBgvIWWMOpYzsVp5ivkFHrZqIjIo+Y8Cj6ZtWpF9xzu90ZCX57l+7/dJivnO2MyDNfI6OmbkNHRB6Q0RJ9o+oU1EdnBOTGSPD/wnrdvcn3O4BHa3IT80Uyq8DPx/qRESOK0HepRs1grSQ7l/Mjwe5wvxkrfZw7FtmY9ob5Mpm1nr/pSGFwTfQdqpGXiY4IzOmRoPjiCHbR8flJobEQf6bZvO38jIhsdClA354avZ5IR2eE5vBI0GldZP/f7wP5KW9YnllhvlRGpe0I6mcXpBR3D/rW1Nn63+iM8BwdCepHsbnIk1x1bGPypnnmi2XU3JmD0CGRNBkfS99ydE0COiMJHBwJ4hpF9//fzFXHNgoPGy2UA/gZEZ1thPQVxasuR0ckg2MjQcabUf+BvBbgUOS6QfoKTWvDRHRGJMdg6fdr6SvoiKRwaCQo+7p1LH+iZk90LmLNlP4xnrW2BJ0RyfB38SuK1/Izh184MhLEXzos1j/yepAXeSiNWWmiSE5KexydEQmwuwL6RtR5ZCQ6I0EcGQmOmfgzj05AZyNVymsm8nXScb57DbqyH6TvpDulIjojURwZCcz8nbRKddDpSJVQw0zEzqnB33RBltVqFfoO1MjL5HduZxE8ElhW3cboeMTqKX3NpnVjQ3RGhPKB9LMprSbc2+YcokcCy/rzs+iAxBoR05y8G37DlWaBVEX82ZQXTkNnJI/wkcCy3q+Fjkiq9K769LC68azj4EkX/0XDlk/RGUkkfiSwrP2cLrAhfxn/rH+iMyJ3id9DvWgfOiKZPDASWImcLrDzXrbhrI27sBCdEblnzmz0/aazkjsYlM8LI4FlNXsYnZNY26YaT9uwZf3QGZE79l6Bvtd0DnNXMzuvm0/bgZHAshpxusDOzG4O5G1S8ihOHQdAylb0jaYz9it0RmJtdOIflI6MBJZ1S+B3ELeTcakjgRu0jlPHfpfeAH2T6cxoi85IrCrObAvi0EhgFX2NDkysWuJXHXd4C50ROemZ5ug7TOc38eiMpMpxahB3aiSwrCncmM7OXvFrebK5yYtv/af0dY6p9bh3jY1/r7THqdSdGwks6woenW5H/Pp+axmfRl96WPzeJ1dx7xM7bR2cZXRyJLCs91PQ2UlVdvEkJ4M3ILkSf6H7TpXa6NtKpwdfJdj5rzVOBu/sSGBZozPQ+UnVb5mzycduBqeO/UX+HumlPPfKTskRZ6N3eiSwOrI7sfPeFw5nHzN+yecnX4ufKD4yFJ2RVBlPO33AtOMjgWVtuQEdo1gbeziefoxOcHWPT8yRPlFsnViAzkisEc4ffujCSGBZL3I3QTs3l7qQf0yacMW/D4wUfzblrIHojMTq6cY/GF0ZCax5TSaj05Rq6JD2blQgBnk356NDotiU3N8HfRdprHu5DTokqTpvcKUC7owElrWCU0F2pjmwnZRZx3eiM6IYlO1y+h1zrJJ3cIsTG3UGuFQDt0YCy3p3IzpUsQZe71YRonVFAjojitZ3ddF3j04jrl2xc4lrC4/cGwks61ASOlepst6RvtIs9cY4dEgUjb2H0LeOTgHXs9vp4uIyQDdHAn6JYq/scceWkRtSbTR3FfSclA/Rt43O8MHojMSacGOqi4VwdySwrE270flKlXOTu5WIXN4z6IwoIteIPzK1KBOdkVjF+90thdsjgVV6oAydsVQLTrhci4j14FyPhzzQGn2/6LzEL5TtLHH7IBPXRwKeb6nwt7GuVyNCzZ5FZ0Thkb+SbGsKOiOxdrpfPMBIYFljOXVsI+vydwH1iEhtzvV4QJcC9H2is4Y7FdvJdXSrORuQkcCyPuyMTluq6jfnQSoSvnlf5qBDIrUJ9dyca4wGl6jYGnkfpCKgkcCyRk9HJy7VmJdAJQlb6VHO9QhWvAN9g+iseBydkVgN64FqAhsJrNb70KGLlfI+qijhSmyFzojszOyIvjt0NvFHpY2yXbCi4EYCy+pwNzp4sZLETx0f4mtekd7qgL4zdO7ilqN25hzHlQU5EljWBm5SaiPrHfF7BHyYgg6JzlWYjb4rdKryaxE7E6Gz/NiRwLKOcKWZjTqVsJUJwxNcdSxK0wroO0Jnxr3ojMSaDF5Zih4JrLQfOPtoo2EjcG20ikagM6J/eTwNfT9opB3g0dh2MtEHysFHAss69tcsdBmkqu/iDlTR2bINnRH95BLp59/1eYq//+1sm4qujoSRgJuUKmwEziGFh1tJStBb/Eqy7EJ0RmIVSiieiJHAsp7kwlUbZfOln2/Z5/4SdEhB17SC9DPJqvI7QTu7nxJRPCEjAReu2msq405R6M+5HqTH5kvf0XxdZZ5NaaPsByH/0pMyEljWsFfQRRGry+fo4ugcuxydUXBdIn6rqqd5NqWd746hi/MLOSOBZb17CbouYlWcjS6OznX10RkF03sS3jErLePZlHa+EnSgnKSRwLIKeqNrI1X+g0Xo4mik/qUfOqTgaXq/9DeH/KDAVuGL6OKcSdZIYPV5dSi6PlKl39ILXR2N/o9zusBV8aOEvGO2NesidEZilbzaHl2dswgbCSxrxTh0icRK2Youjs6x79AZBUnlRHS9NZp/jY5IrOJK0pYBihsJLKtHT3SZxEq4Cl0cHb7fc8v4Weha6zTgxvN2bp2BLs55BI4ElvX539GVEqun+DMJ+36DzigI5H9O9jy3HLXz1W3o4pRD5Ehg9TnC6QIb+XdKnzruP4ofDTpM/plkwweiMxKrymF0ccolcySwrBV/QhdMrDGb0cXRmbsEnZGvTb8FXWCd5tyZ0M4Y8JajtqSOBJb17kZ00cT6b/FTx1sGozPyr8zW6OrqNJmMzkisTLG/6OWOBJZV8B66bmI9fB26ODoF/0Bn5E89xa8x/AO3mrPzFn7LUVuSRwLLqsfFSnZ6St+E2KrNXQWNSxD/L4DhD6EzEuvvG9DFUZE9EnBvM3v5mXno6mgs2sxdBY1q2Ej6RHHenYPQIUlVInw5uPCRwLJWcbGSncnip45XHOVAbkydp9Hl1BrCod9G/KhkdHE0xI8ElrXmYXQZxfqfE+ji6BzkwbWGtF2HrqXOXdPQGYnVVvpy8Ko/huSPBJa1NQ5dSbH+NhZdHJ3vv0Jn5Ae5gnatLF/336MzEmugxJVkZyo6vS0I+irCspnfpdn5bhW6ODqf/A86I6/r/Am6hjqJjdEZiTXtDnRxNJJbpp++UPR1hCevBd842yibL20zq/O8xIE8BhlPoOunk/xDPDokqSYPQRdH59Vfzo9AX0i4uM+lraYV0MXR4aLT6M3siK6ezjJ+7G1nhPQP/Nb/a3so9KWEr/unwJLKJuvQi/Jwh9novL0FXTmdDVxJZmfbFHRxNDp8cMbVoi8mEm/wACQ7/xS/SXE2N6yO2LT70FXTGT4enZFYCy9EF0ej+a1nXS/6ciLTl58R2ak8F10cHZ5oG5mcJuiK6XSbic5IrDEN0MXROff8CPT1RKprOqay8hUPQNdGJ3kHN6wO37gV6HrptMxAZyTWvubo4mgcXnjuJaOvKGJFnH20E/caujg66zqhM/KKiuK3mnufv8/tPNcBXRyNDs+df9Hoa4rC8Iru19Yj5G9RVrWce5DO1eV1dJ10rktAZyTW399AF0ejdbkv9dBXFRXOPtq6RPwmpffxYxONpsJ3K7OsmnPQGYk1oa/w4i1aWf4B0+jrik6fp5q6XGDPeGzcMHR1NNof2Y0OSbKyH0rRFdLIeyUfHZJUGQMmoauj8Ulnm0tHX1i00nZx1bGNocvRxdFh8ey1Ooiujs6mMeiMxBoh9kyyn3X40fba0ZcWvYPc68SO/O/QE9uiM5LpR/FbCp7gCUR2dh5HF0djhuqDDfTFxaLZs64V2WtuEL829RA3KT2P/LXi3e3/TRl0H/xfdHE09hxVbg+FvrzYrLd76UVLxJ98fniBvhVBUvIUuiI6M/hLzk5n8WeFdNW81ENfX6xGlz8RTqGMN9G10drOqeNfFVeSfqxV8g5uOWrjGvEritdqF/ijrzBmrfe5UWpPqvU+ujg6pY9z6vgn8rcc7VuCzkgs8SuKa4fx8xt9jQYs5SaldpLET0Aea5WFDkmAweKndWpw90c7by1FF0eje244zUBfpREbJjpdba/Kaiz9CFWrahI6JLSEGuga6Mx+AZ2RWNM2oIujMWNJm7Aagr5OM9of4UozG3V2SF/rYt0V6KnjhuJ3i8q7mSvJbAzd3h5dHbVeXcPdJhB9paakPe5oxb0srhG6OFrLAzt1XGc/OnutTTnokMQSv56/dvgfV6Iv1Ryeb2nrP/6MLo5O2sXBnDqW//LuRKB/sCntlL7HV4dI1uygL9akGv/hWNG9rtU6dHF06gbwW/Vnv0enrjOLW8faEb9fbOtb9Y04A/pyzdpay6Gye16dSuKnC64PWK9T62p04jodK6MzEqtkGbo4OpGutEJfr2kDeCyWjX7i713rxQBtWC3/iDk+S7bid0hfBhjBBMHP0Fds3Fz+O8aO/HNsrArfoENySVvxr+s+5O9rO9/VRRdHo7wzyXTQ1+yADgPN194nNrZDF0cneVcQtjT46np0zjp/5u6Odj6QvlyzKKptF9BX7Yi7zjuumX4i/xwbq67vVx0vOIzOWKduY7/XIGopl6GLo5H8ZrgrCM6Gvm6HNJls+AbwjaFN0LXR+vPD6JCclLMJna/WjjrokKTK6IqujU497VZzNtAX7pTmD3JdpI1pz6OLo5N6Tz90SE4pe3wFOl2N1EYN0SFJtfh26fsEFnSJunHoS3fO8IoG7wF/GdgdXRwdn55vmfXOMXSyOjXqo0MS69MO6OJozNoWQ+vQF++kz6MfIP2u8lx0cXSOXY7OyLzcQ+hUdfyYuiGFf0AXR6Pbkpjah758R/V5ihvT2SiWvzFdjd7okMxacBc6UZ3+/vwlZkLOEOFbzSXHuvoD3QCHpR01cyP4UMN66OJo+Wl1we7t6DS1+vp2diZmN5eii6NxY1ysTUS3wHH8vWurfgG6ODppF/tldcEr0ieKrc999hPMoJ410cXRuO4fsTcS3QYXXMU5MDsbj6OLozPDF0vGW61C56gzfDA6I7HEbzW3aqeJZqJb4YbUevwuzkb+g0Xo6uhUDevsPcn2rkFnqNPt9sXokKQqWZaKro7aihbVjTQU3Q53pFXiWhkb6bf0QldH5w5Pb0yXsh6dn060q1IDIL5SGro6au2HmDpHCN0Stxz8K9fP20gRf3xi+1c9e6aZ/IE2tVHMk41+lfXOQXR1NA6bO0cI3RT3NAv8yem25B+pXurNjekGjWiNTk6nBhfd2NkrffnHIZNdGroxbrqa//ix84L4qeNED04dbxuOTk3neE90RmLFST9I6LjZryLRzXFX13Sj4flJZh66ODrdf4/OKDITpS9KtfIy0RmJldESXRwN47VDN8hlRbz37VwjfptF6y4Pna4+dDk6La2VY9AhiTWzG7o4Gl2vMd1kdItcN5u/h+2kvI8ujtYRr0wdZ4pfSXa4CjojsQZWRRdHo9H/M99odJsAvkgwH6NP/EP8quPSA17YGkf8olSr+1fojMQqvA9dHI0v3nOi2eav849txe+8u5VTx3Yu6YEujs6xVuiMdHpnozPS6fgROiOxSiqgi6OxzsiK4vOZv9JHQqFd5v+qYZuNv2bzjUzx51uu+Q90Rirf9EXno7Ujxm0r/av46WR0cTSedmqNrPlLXX3yr6Z8aP7vmsXPJmx54HzL92uhQ7ITv0t6VxL9+Yb+N1P6mWQO3vjmL3b16b+b8IX5v2zWlBccC9Xrpkl/U2pV+1jkBgltXk5EJ6OzhivJ7FSchS6ORncnF8eav9xHfv7Ln04x/7fN+oIPhZ0btqCLo9NxHzqj842X/s2JtYp7tNvp8kd0cTSa3+5o+81f8Opf/vSgcdKPd0iN/XwHv1r8mfQvqq0Od6NDOluh+IniPfPNbFvpQ3GvCd9ytH2T6c4mYP6SN/zrj/e7x/yfN+xSkW8ZJEi/BV0brQsmokP6l37SvzmxrOVeWYzhuukr0bXRuc/x/XjNX/MjZ/7591ab/w+Y1a2T0xF7lvx5f2uZkNnPOpXETxTfMQ0dkliVpU8UXz/Q+RDMX/Xqs/8DN0jf0M/qLuwtgyBJzdDF0ZnUUsBWUln31kXnoOP9834ck9sdXRyNVY3d2FHf/HU/cu5/opX4lWYX/NaFpL2psfhzF/OeQWf0wfXoDHS8uJGrS6rURhdHw61V9eavfPX5/5EWe8z/Z8zazleoNsp2CT+1ybKOQ1cddxa/W1OaNw93cEPGaHRxdDaZOpNMx/yllzMShMa8tMj8f8ioPY97YT8biN2vtkdXR+cQ7N1HRlfpZ5L1Wct/5dhoc6v0D+SedG+bQPMXf97bodPE/wizVn3nWuheM1L8Tvuos47FzzVafxgJCcYLvroNXRyNNW4es2j+8ssfCUKhb8XPPvJ8S1tviT99ywL80/cG6XON1ix+DWGn8wl0cTRWObTVnA3zDbAbCUKhVu3M/9fMkrufDZz4szustB/cfR3+2xfRLdaZ6+yqVC9Llz5BkPaDy4mYb0J58wQ/q35U+vkd1QZwpZmNjAHiP5lP7NTGtTjkz54kD+CWozYWS/93DWByx3wj7H8TnJRzxPx/0KzWt7oVvefENUIXR8uttyHxB8R/UcXft7Yekv6ucwNg1st8KxS/CU6ZKH53lu5chGMnoQa6OFobXFhKm3XvQXQzdZrtdT4GjxK/P9SWixCxmG+H8jfBKRVnm/+PmvX8Qjei96Se4s80c37q+Kux6CbqHBR/rhvMN9L3hyr6GhOM+ZZofhOcIn6TUquBwxv/eZj8ZYKl45xsf6H4ieJJu7g2xob8dZIrUbunmG+K9jfBSUPXmv/vmtV8hOPRe9Xkm9DF0Xr3Eqca/3+WodumVa+fU433vO+kv9U77N5KsnOZb0w4I0EoNO0O8/9ls4Y/5HD03iV/maB1RX0nGj79Y3S7tArec6LhvpD0Pbo4GoeeBaZjvjlhvB06Tf7bVsQMvkc8K36ZoFWhqfFWZxahG6XTbqPxRvtFlfXo4mgktoXmY75B4Y4EoVAr8ftcri1xMHpvk1+8NMPTBRuPo1uks6eF2Rb7yPQG6OJopKEnd8w3Kby3Qz95Js/8f9+o5FHcxtHOK8PQ1dGZbfAFX/0CdGu0jri1baX3zJT+a67CN+iIzLcpkpEgNFn6UM2t3e3lbEIXR+tCQ98D95M/UXxigZmm+tC2qejiaLwhYJtA862KaCQIhRaKn328/vfORO8DC6W/e7WsTQZWF5SNmoRuhk73H2Nvpk9NuwBdHI3hb6EjOsV8uyIcCUKhr643fxFm3fFvTkTvC89K/x7DSns61q2k5E+JJDY2Ukw/Ev/BupSD1M23LPwZ4191Er4flIsnB3lPq0R0cXSKMmOZjEsS/41b8g5OZtkRv4i1pZQtL803LYqRIFS8Q/rP7xV/qm48e58o+5P0HWatYx8tjrJxcVejr12nT19+4GbnhZro6qil1puAjuhX5lu3IarraHij+Ssx69iVhqP3j6FN0MXRmhXVrl7Tb0Fft9YjvU1X0zfek77V3OeSVgGab150I0Eo9K34N85rkEsAZVsg/QCoqB6728WfTbmlogPF9IcJfdHF0Zh6LTqis5hvYDRvh07Luned+asx62ru+W4n6RC6ODqp98RF1KLxS9FXrNPt9mhfevle8dPCt5rr+PUgdEZnM9/EqEeCk+WTfqScZY2WMsEjj/xPbKyu4Z/iNfIR9MVqiZlslKey9F9z8mpnvo0xjAShUOcnzV+QWTMqu3dCosdUbyF+1fHctllhNaXkL33Ql6qR+qicyUZpcoX/mkttFNmvU1eYb2bE6wnONrC7+Usyq8NzZqL3oZwv0cXR+vPD+mYUVxJ/ZPMjAlalCjVS+gESf+yCjqg85tsZ40gQCrWVvom4dZgL++1UEf+jzlqm27//VumvFqwtg10pphd9I30lWc056IjKZ76lMb0dOq1M/rFYDSYbyN6fft8BXRwd9Zle46Ufd24VzXStmF4TL/1MMmfP04uF+bbGPhKEQmO6mr8us1bcaaCZPvVZa3R1dA5+Z3ftIzegr01L3mSjGG1noIujsXwoOiJb5hsb89uh0+Kkfw1sDd9mpKF+lC7/G7CCcs80m/AX9HVpLWvodjU94/fS9wVZ/Xd0RAoONNfQlY0Uf75l9kRDTfWfzuJ3mE2957wutXi/9D1PrBqOHMrpC1XuQhdHY7bsyR3zDTbzm+CUr8QvVqrALV/sfHUbujha+89eXdBpLvqCdI5dDiqmfJNvQhdHY0UmOiIN80029ZvgpCzxi5VKD4DPnJOrzcvie9a5S/61Rlf6N+iW1f8H3ms2Bt3ZHF0dtT6vyp0g+Jn5RhscCUKhMunfAliJrUy211eKB6CLozX851/snQ+jr0Srgu7j1+CaI3zLUetzD7xHNt9qc2+HTtt9xPwlmjWWG9PZqSX/TLM//iMUim+Jvgqt17nlqJ3frUYXR6NmT3RE4TDf7mj3IrVV+Lz5izRrfWfTbfaND5qhi6N1Wavj6EvQefcSdB3F+qYCujgazaVPEPzMfMuNvh36ifh3uL2eSDffan/I2im+n5Vuz9HH0FWUquwH4WeS9WowBp1RmMy33fDboZ98JP18y6IRTjTbH8aJXzIu2nZ+oGan1TF0cTS2eudtgfnGOzIShDJWmr9Ss7jSzFaO9E/8BPtc8mokrIfXoIujcV0Yux2KYb75DrwdOk3+YqUC7g9pp4r44sk0dRu6cmKlSD9herbQreZsmA/Amd8Ep3xV1fzVmqXd5jK4vpX+DziBmn+NrppY12xGF0ej6Bl0RBEyH4FTvwlOEb+3WfKO8E/FChrxywSlWemVyUb3Zeahi6PR1XOfkJjPwMmRIJTxxCLzV2xU4kc808xG9ZulP7+S3FUFXS+xBkvfOPz9FHREkTOfgnNvh05bKH416Kx/OpuAh415CV0cr6g6EF0rser/EV0cjS8S0BFFw3wOjv4mOCVJ/MZ0FxY6nYFnpXyILo4XzFjCH5Y2JtyTiq6O2hSPrgI0n4TjI0Eoa2MP85dtVPtXdzueglft5dSxRrU3eRaNjYyWwk+YLnowH51RlMxn4fxIEArlP1hk/sKNKt0V70IO3iR+IMd6Pw5dIKkWfyb8TLJqt3huovhX5tNwYyQIhdLFn285o7IrQXiS/IOqYcZ+iy6OWNukTxRv9fIYbj4Oh2eMfxXXyPy1m3Xbjy5F4T3iDxYBWWV7wHLgFb6BLo7GFf9ARxQT84G485vglJHZ5q/erOcXuBaG11S5DF0cefrv4lk0NibfNA9dHTWvThT/ynwkbv0mOOXuLeav36zl4s8qgkmSv2G1u9Z+gy6JWHcKX4mS5/0NKM2H4t5vglP2SV91XDrO1Tw8hauOz/A5d62y03MKujga3ltRfD7zqbj5m+Ck6aPNN8EsbxxZhDFO+Pbyrqk5GF0KsSZuQBdHw4sris9nPhd3fxOc1Fn8YqUCHj1oJ6eJ8Pe/rph7+yB0IaQa+mofdHXUxiahIzLDfDIu/yY45dnvzTfDrL58BWxnwR3o4qClVeK2hXb+tAJdHbW5bdEJmWI+G8BIEAq1SjTfEKPSfuBnIXa+GouuDtQR/ivBziXvoouj8bF/xnDz4bj+dui0OjsmmW+KUQf5qbitysLXjjpoPT80tjNS+lZztb1zNqWe+XggvwlOmrDMfFvMuqI+KBr54g8I30/GIf/rk5fMDiiR/jx3+AodkVHmA8L8JjilfoH51hiVek9DWDjSlVQQPjPogOEvoFMXK75SGro6at38tl2s+YhQvwlOuUT83mY76gDjke3vj6CL467Wt6MTl6ttXXR1NEZPR0dkmvmMcL8JTsp/ZZj5FhlVt3EWMiDRxotfMm5Or9HcetrOXukHln/ipwmCn5lPCToShEJDm5hvklnX/w2bkGR3NkdXxyW+mmw0K2U9ujgas3x5npz5nJBvh04rfN58o8z6kN2AnTGb0MVxw/fPonMW65rN6OJozO2EjsgZ5pMC/yY4ZeAs880yiq8G7C18El0dp9W9ly8IbSyWvo/YpEv9s4LgbOazEjAShEKfCb+hrNb70BHJ9eP16Oo4ih8N2Bos/SyavhPQETnGfFgiRoJQhviN6bZ8is5Irk7d0NVxTCN+SGyn8A/o4mi83gUdkYPMxwWfJ/hZravNt82sC3+Lzkis4v3o4jijgIsL7ZSsRRdHY/YcdESOMh+YjN8Ep4g/CqX9EJ5jY6fhVnR1zGu3E52qWGW7hO9P3jwzH52Rs8xHJmckCGV9J/0olGGv+Pz+isFe6QN5hEq5CaGdrHeEP6iLNo9BZ+Q086FJeTt0WtnF0jem6+H1808d1Fj6DrORuL8pOk6xPpC+Ge2JKuiInGc+NVEjQSjUr6/5Jpp1xcPojMSq8zS6OKYUvIfOUqwqh9HF0TiUi47IDeZzE/R26Ce9s8030qz1AfgnR5T8MV3Qw9+TjbFIb7AIXR21dq2CsfrDfHLiRoJQaPxS8800atHmHHRGYnl/umDP0cfQIUo16MEidHXU8lpUR2fkEvPZCXs79BPxR6EMe5zTiXbeWYeuTky2l6ADFGvObHRxNFZORkfkGvPhCfxNcFL8LuH7nVuJvjkR1bj4Hd49x+YEzySz00X6a9utKeiIXGQ+PpkjQSi0+6Z55htrVNVAzExFpaSvN8+xOcQzyexMqJeKro5ajQR0RK4yH6DUkSAUqiJ9u1vrxUJ0RmKNXI0uTuRWtUKnJlZxS3RxNIYHbZLffIRyR4JQaG8N8+01qs/9fKls5yKPnWMzLDCTjRFrs2QuujpqM25fjM7IbeZDlDwSeGC3w0n7uWG1jUH7OqKrE74ArEqN2qfd0dVRS9vh162nFczHKPLboTN8Lf1YrG6foSMSa3pXdHHCVZtLROwUXoAujsbafuiIEMznKH0kCF2z0nyjzerwT3RGYqXURhcnHB1+ROck1jcV0MXRWD0SHRGGA0mim6TXWfyxWHdMQ2ckVoL0uR6r+YjAvWQOV/zFwrccnXItOiIU81l6YCQIhXKFv6m02t/EDavtVBQ9ddx+e3BWI0Uo696D6OqoBXlrYPNpemIkCIU+k34sVuk4dERyjZA7dZw9ER2OWD9K/+fX8iD/68t8nB4ZCULFA8y33aweG9EZiVUsdNXxQZbMzoIT6OJobAj2GG4+UPEzxr9K+dB8680q+C90RmL1EzjzmDyKm0fZGHoEXRyN4Q+hIwIzH6lXfhOcIv58y9RlgfyiLSyFz6Orc7Z5R7gq0Eb1oyvQ1VHLyxyEzgjNfKheGgk8cCzWpB110BmJNbADujpnWM+t5uy0En42pdWEk/yBHwlCZQf2mM/AqLqNg3FURhTafCRlw+qCvegsxNp7CF0cjQ38ZDsU7HmCnzWV/grT+v5ZdEZiFe9AF+eUpdvQOYhVRfpSwKlBnyD4mflkPTcShELTpH/WYH3YGZ2RWA2XoYuT2AmdgVhjNqOLo5G3Dx2RFOaz9eBIEAp9Jf0XrLVyOjojseoXIAsz6Qd+MGTnmTxkZcKw+Rp0RGKYD9dj8wS/aCt96rg1//Via2MPWFn4cZetjcdhVQlPoM4k0zEfr0dHglDZfOlTx7MGojMSK78FpnjNOFFspzf0l1oYDrF2ZzIfsFdHglAoR/z5lvfxKwc7Tfu6fxjiunv5VZeNpk8JP2702F9Zu7OYj9i7I4EHVsRbTYK8NYpa/etcrsWAAJ5nEqb5aS7XIkJpuzi5cw7zIXtyxvhXX401n4hRwzLREcnVys25nif5OZedijVdrEM0ln2Djkge8yl7+TdB6NTOuXXNZ2LU7J7ojMSqc2k1l4pQNQndVrEmZrtUg2hlF6Ijksh8zt7+TXBS/CiZ+1z+yxfvoTMSK8WVQ4jWNUa3U6yha90oQAymvoWOSCbzSXv8N8EpJdLvZqveBHRGYrmwq+COeHQjxRon/EyyohHohKQyn7UPRoJQaKT0X7jJAzLQGYn1wnAnk0+9h6OwnYpTnEw+dskf86mxYz5tz78d+slboo9IPKn11+iI5Fri3IF0V9RHN06skasdS92MRnHoiAQzH7cvfhOctPh26edbDr8WnZFYGTuc+YxxKmfr7exe296RyI0p6IKOSDTzgfvkN8FJ028xn45ZV/0DnZFYTpxp1nEJulVilf0gfAXB8G3oiIQzH7lffhOcUutq8/mY9VoKOiOxTH/NOKklXzLbyGos/Cyajg8E/kwyHfOh++c3wSniz7e0No9BZyRWxdkGc17GiWI7udJ38r2FG/lqmU/9/7d35+FVVef+wE8wboFGhoCAsUIoD0SjDBHCcMMgISqDQECmIPMQCiKEBhUQBFQcIEJFCSJIVBBQQAFBBGQUCLUBShDLKK2CyCC21t7f7a23z89ZxKy1z7D2/r57n+/nb/HZ+/vunHXOXmu9y18jQSDQRMqxWCoNuetYqampRY1vfom+FbHipLdoqcGJ4iCYz91Pb4e+VW2s8FegVuV/oDMSa/h2E/OYj96Kvg+xxn0qvG0jJ4qDYz55v/0m+Fo/+LFYdv71ODojscZsiDTcvLvQ9yBXoxEmHl/nVL4VnZBXmM/ehyNBIPAn6c3WrTdqozMS67HIdpqtK0TfgFgb9xt6eh0ymou9gmY+fV+OBPIfesu6sho6I7HuaRh2qhsmoy9erL9JX03xSgo6Ig8xH7/v5gm+122C8B/C1hoevqEydVN4b7Pzr0ZfuVgx0ldYn01ER+Qp5gvg098EXxt+zHxaZq3lgXwqBS+GHid3kinN2mz+6TXqMNuGh8Z8Cfz6m+AbBUfN52VUUh1OF6jEVwoty/IPcCeZwpJ96c48v6ZUb86fxyEyXwT//ib4xrku5hMzawenC1SuyA8hx62J6MsVa9g0x55eIxLGsm14yMyXwc+/Cb6W0eSU+cyM4nSBUtrp7kGGWKk0+lrFkt6xPenJXHREXmS+EP7+TfC14hPSd5qt5e4CpUdWBREgV6Er5TrQ2c+ot9g2PCzmK+Hz3wTfKNxuPjazOF2gNLWeXXgNea6VSuxu4Se7ntmFjsirzNciCkaCQKBAeq8Va0cOOiOxZr6jTa4e25WpNJ/t0tMbprxG6IS8y3w1NqBvyR1fjTcfnVHrj6Mjkutq9SmLn/RGX5xY4luOdhqOjsjDzJfD9/MEP2he3Xx4RuUPQkck13slz/Wcqou+MLHi3nb58Q3V0QJ0RJ5mviBR8XboW9Uq9Dcfn1Ev849DpX7fpF/ElX5PRfRlSZVSazHg+Q1BOe4ki4z5kkTNb4Kv9etrPj+zjvEHs0rpjy/L6lnuJFM5Pxry9AatLH/Lqf0nqP/KfFGi5zfBN3oLX1zNSTSNv166TfAIzzNRGVYZ9vgGJWEHd5Ip1b/FygrmNbH5skTJjPGPbjV5RKIT9s9DRyTXxR+2Cea/gL4Usb6M+IAHhz3UDx2RYE2/3T9z9n9t/0PzdYmmt0PfmdDVfIpG3fTf6IjkmrHn64C6t0Ffhli569BPr40nxqAjEuynRXKb7F4Tm69MtP0m+Fpn281KaHcG964wGl2oMaIM+hrEKp4hfD/9NLYNV+v9xCVJjbA5ec98baLvN0HAA01KrXe500xlKvoCxJLeY2v0eXRCgk26fDnLfu0vX/PVicqRIBB4oZz5KI2azW++FJLH16KfWRubuRtcKWdHCYFVbqL+B+bLE4Vvh75TZr75MI0a+Ht0ROQdMVvRz6uNWxLREQm2tGPJobXeqfoX5gsUXatIL1XiMCzK0UXojMgbxD/Lt/8ZHZFgw0aqg3tC0W/dfImidyQIBCYt/+XGVVEW1+IParKV0bws+knVW3+cZ3Aotc/SZpd0S4mdB8wXKUrnCb7X/vKNq9KMvgcdEUn3+d/RT6mNA1z+oBRTwz6/dZN++e/MVymafxN8Y+IW85kala98VUgUCFS5Dv2E2rilCjoiuVI/DOoAiYQHxl3+L83XKdpHgkBglPAmLdZrk9ERkVSpD6CfThsfsNWcWvAfPXtmFP/8n5qvVHS/HfrWrJ7mYzVrXSE6IxKpjGLNiRRlNesgo962aaFEeeriz/6x+VrxN0EguJd1UHkT0BGRPL9vjX4ubeyoho5IrvYhN8OsdOmRz+aLxd8E3yr9iflojVqzER0RyfK/VdHPpI2tPJ1bqXZYDfJLXfjxf2C6WBwJftRDepPSSo+jIyI5pnZCP482GvBxVQp7+0fy7h+mC4zW6lt8O/Qj8VPHWxPREZEQjfagH0Y9nkWjMSc9gmCbf/f/MFeqH/A3wU9mNTafr1lPpaAzIgF27Uc/iHp5J4rtbyJa/TvClmddjn/zfzFTqEtxJLhUTB3zCRvVjO0co17Rbein0MYxLnVTKhgaeb7dB3EkcJ74Xccjt6EjIqTEQ+gn0MbRErsj0DemHjOTcTHnCVyws4t9alBZ7dEREUrKA+XRj5/eYe4kU+rW1NRxiRwJXLGkzHrzOZuU9GQJjUjI/waPaoZ+9vRanGarOaVhj9oHGCQnRgK+HSpBztig2oEADWBTr+gzT9O9WALuf9QoHfJOMg2OBK7pJ/1k8NkfoSMid40x+VHihE2d0RHJFXeL0ag5ErhozDvmwzaq3CB0ROSe3L+gnzcbb/8vOiK5On9qOGyOBK56bJn5uI16kWeaRYlY6a8r136Gjkiu2C/yTMftxEiQvhcdlGBDhE/QWa/8om85+VCT6ugHTe/M9eiEBHvVgQPlnBgJLCufJ6crzZLe/r0hzzTzvecboJ8yveQT6IQE+3ygE5E7MxJY1tYL9ncUrdoecSZzY0Y+ho6InJQoveXoulx0RHLFOPTp4dRIYCUPaIXOTK544V/JrA0808y3UqXvJGvHh0+p+MYpDqXu2EhgWXv4C0+t7vuO5W7GiuHoiMgRc4S3x+3eA52QYBed+9hwcCSwrMpclKhUvLu/g8kbsKrRdHRGZFxmSMcbuq/rPd3QEck1OcvB5B0dCSzrZBV0enJdKOVo9JHbvwsdEZmV/SD6mbJRjzvJlCY942j0Do8EVvnVXJSoNMbJMd6EtaXREZE5hcdaoh8ovaEz0RHJlTLAqQmC7zk9EljWCB4xoTYx3+n4I5O0NQYdEZlRbH4zkln5fJesVLGp47M7zo8EllW9DTpIwZZK32nWk2ea+cFF4TvJ0uegExLsYgvnC+DGSGBZrXeis5Rr1mY3KhCBjkvREVGkzh1GP0U2Vs9CRyTXHbe7UQF3RgLLerM3Ok+5xG/0yedA7mkmjjd01KFEdERy1XTpxEO3RgLLqlMbnalcj1dyqwph2jAGHRGFa7ih4w0dcxPXJShd6OtWFdwbCayEa3kUitLG/a7VISx9XueR4p5U8cQq9LOjN20YOiK5pi90b5bfxZHAsmZz6lhtpfC/2OQvuAbMey6eQj83eunn0QkJdkVlFyvh6khgWcvuQKcr1/BNrpYidGuaoyOi0PxtLfqZsdGYC9OUJj/hailcHgks6+VsdMJyFRx1uRihGp+JjoiC95866OfFxpOT0BHJ1bmey8VwfSSwWnaaik5ZrvhybpcjREcL0BFRcHKuFX4mWRZXISgNfqSr2+VwfyT4psvUYHTSYmVIb1K6oBNbw3hAWpv16CdFr/VEdESCvQToE4gYCSxr5DZ01nLFHkxGlCR4eQc5dSzdV44ca2VO+t3ohAR7/jZESTAjgWW9djM6b7nENyldcxEdEenEnUQ/IXpTbuR6cqVfgyYLUSOB1fIYF6grZbcDVSVYh+PREZHKrNWL0Y+HVlKNfuiI5Mp9HdUvFjYSWFb/sbHo3OX6YxdYXYLDqWOZluwT3tKwUk10RHKl7sC9GQaOBJa1nv0H1cqkAysTDE4dCzRsC/qx0GtxPTohwUZ1BFYGOhJY1jJuNVfKuRFaGnt5M9AR0c9lv4Z+JvSSebS5Wo/noLUBjwSW9QSblCr907X2U2HavxEdEf0kV/pKg1K56IjkmokexOEjgWX15QSSUnvpU8dZ/w8dEX0ntoLwnWQft0dHJNe47ejqSBgJrP67uUBdSfz5ln/hQC5Axv3CdyQ+x/fASmlDBMzySxgJLGvN6Qx0NcRaMgc5jxQEDuR40ruUjFjZDR2RXJki1gnKGAksqwEXqCul9ERXx8aaJuiIotsi6Z0Ltw9HRyRXopBtgFJGAss6VAVdE7liaqCrY+ODv6Ejil7jVqOrb+OdmeiI5Ko2AF2dH8gZCSxrQDV0XeSq+Ra6Oja28nBSjEaud60MDQ/B1ihTFl2eH0kaCazqnC5Qu2Ikujx6CTvYTMZ9G7uj6643/+40dERy3XE7ujyXEDUSWFYDbkVXGvywgBUGOuvvXoLOKMoUCT+TLJnfDtSENRcTNhJYFttTqbWSfr7llm3oiKJJ26roettYzjPJlCYtR1fnMuJGAmvKbnSRBBO/SuQPpdERRQvxE8VP8EwypZwd4rYByhsJLKvFXk4XKA0SvtPMeiMRHVE06LZS+ETxssfQEcm1ZM5sdHl+SeJIYFkDud5Abc5odHlssEmp4zbuRxdZr+NSdEKCbRPZL1bmSGBZb/Itg9K4Wujq2Bgxg7uOnRRfCV1hG5woVuv9Mbo6JZM6EljW1jh0zeQSP11Qtjk6Iv9q+za6ujb6cqJYqb7YfrFyRwJr8ac831JpkPDdBdb4f6Mj8qfUDr3QpdXL4kSxUvHBPHR5lASPBJaVzPMt1eauQpfHxlWT0RH50EfC2xFWvhWdkGAXT6HLoyF6JLCssnXR1ZNrKr6nuY11/FFn1lfCW442O49OSLDSt6HLo1Uc+PNA9DVoDRyErqBcM19GV8dGMs+3NGjR0+h62ujQCh2RXLWfRFfHxjeLPIbIXpZ4bwG6inKJ311w5iI6Ir+YJX3F2NZEdERyVduBro6tb5f7pV6Lvgy9UnzLoFRXTjfDklUqQkfkC3OEN5361+PohARrUh1dHnvfL/ye9HpL9JXo7FnIBeoqsWP7o8tjYytPnoiU9N9+Z3ahExIsU/jsznd+/IQtOIK+FK2yPBZLKfchdHXsXMudRpGY+SC6gHqrOB2k9l/Ci/eDS75rx4s4TlOJDavVxshqcPtL88uwTX24xnVagC6f1oLfsruI0qTlfdD1CdLP3rrsa4i+HK3lbFitNEz6TrPW3GkWnkZ70KXTO8sFHUopHdDVCd7P37/Pqoe+Hq0puzldoCS+Md1RHmcbunln0GXT68JF3mpNhfeL/ZnLP1pnbkBfkVaLjZCSekLqtVPQ5dFbUG84OiOPGZOFrpne+lfZP14l4wbhB4te5pdfsq9+FH1NWlm9AVX1iJga6OrYGDEBHZGXFEpfCXAjFwIoffV3dHVCVNLrllGypwv6XnC9rJ5R8yZ0dWzsvwYdkVcUf5GMLpbeodroiOSaORRdnZCV+OJ96qeiVyvkVeB3EaUesn/Sff2jjmvAgiG6W9nX1rZHJySX9NVeJVJMwWbLXgS7fo67pfWUucIXm1hP8suknb/9C10kvTWcr1NrNAJdnnAoF+P8exn60rS2bHOxtB4ztRO6OnZ4ppVWzCF0gfRWrUQnJFiPyujyhEezLHNfOvritP7A8y2V4qQfa9WxDToiuXIao6tjYzt3kim1fwtdnXDpFujn7Jb9nuGNRLfq6z1Fh9HVsTE+Ex2RTGll5qNLo9cuGx2RXLlPJqHLEzb9Vq3OtUQfldfrFX47UclosgZdHhsnF6EzEihe9ktZa9lOdEJyxT4rfLWXlt2m3Zi+6CvUylvoSo09qXi39Aez1ix0RsLEnUWXRG/0KHRCgpWZjS5PROzbN9wsexnRGa5iUMqVfr7l6HvQEUkybjO6HjYe4MitlDkeXZ0IBdPIR/gyots4daz066Po6tgYeQU6IjHOy97QaZ2MQyckV5z0vzN7QbV0W7JPdHezpBpcoK4UvxZdHhvtJqMjEmHjc+hC6HXhDL9SSq3F6PJELsjmnrNeEb1rbsqz1ZyttZfNE/4Z02ddfXREcNLH645Leb6EyuBRor8nByvoNs8Fsn//lOUCdTXpj2ryQXRCWNmy/7Ys64EUdERyDZuGro4ZITT8v2ML+mK1/s6fr0qzpG9WanERHRFO7jPo9G1UbYuOSK5s2V38QxDS0S/7VqEvV4tPrNok2auBLeumKG1Ml9o4AR293u3n0BHJVbgOXR1zQjsEbKrwZYmrWzlUch/48h10dWxE5bz/edktXaz5zdEJyVV8UPqGnVCEehzkzKvQV6zV8LwjNfeHF6Qveb4y2ub9/yH8bErrXbYKVLqhLLo6RoV+MPBjsmdI8rkdXinjfuEP7/tNouk0xJqV0HnbOFIFHZFcpYWv9gpZOEfET5DdmO41LlBXytmBro6ND55HR+SW2svRWdsYHzWlCJ34c2JDF85IIH5b/LpC05X3j5g30NWxcSQRHZEbqt2IztnGmihezWUn51p0dRwQ1kgQCCTegr5wrT0npputvZ8UNUCXR69Xz3HoiJyWUbc6OmW9vC/C/GCIAuL7hocn7IIX3Ya+dK0z15ssvs9cL7xhdcO56ISc9fzf0QnbWH4BHZFc5waiq+OMCIb+a2QvfLipyFz1/ab4iyno8ujt34WOyDltpR8ot+FLdERy+aDVnEJEPwLPy+5i8EaMqfr7Tz/pU15r49EROWPWanSyNqZx8Z3SOPEnhIcvsteBs3qKPtNsygEuh1aqmYUuj42qPuyCnPZRR3Sseunnl6AzEmvwI8L7hkck0omhtteh70BrfRv2UFR6qTu6PHoLPvXb4aSDuqAz1evFVnNqPUaiy+OoyJcIPC97KcrArww8BH61cgS6PHp5M9AJmbToRXSeNqomoiOSq+g36Oo4zMRisSbvo+9Ciyenq3WW/uLzzDXoiExptQmdpY21f0NHJNf/VEVXx3FGlg1LPzu91lQTd+lPcdJXsvjkTLN9wt8xr2mCTkiucdJn+U0wtIHkQin0jWg1bGrmNn1J/FncK4ajI4rYH2UfBW7tWYlOSLBGXdHlcYOxrYRjXkbfiha/8mg0F96YLu8edEKRKXgQnaCNTb7f1R2+JsK3YZpicFN5Zjn0zWgd9ukCdROKF8puKmiNHISOKHyFr7dEx6d31ofLdU2JP4yujltMthfJ2HsKfTtaL2cbvFmfKdwu/OPqZY/O+8eO7Y+OTu8w9+IrFZxEV8c9ZhtNFc+QvSxx3SSjt+srBbJf71nWA7PQEYXh1dno2PRa8K2pUqHwExrNMt1yUPiyxIQDqYZv2EcGCe+tNdpzjel2tkZnpjeCE8VKxTPy0OVxlfnms3Fb0feklT7K+B37RxvhvRDOeOob7JjX0HnZ2OS3PdwGNY+SieIfOdGGXHgD/Od6OHDPPpFzAF0dG4dfQEcUrH/WQWdl46hHZ17ckBk1E8U/cuZAivtln+XwVk1H7toXYu5EV8fGVb3REQVFet/vw39GJyRXwdPo6ti404Hv2g4dTZQzwPylmrS8nzP37Qf/Lb3DSg353cY3yj67w5q9F52QXMKnOi2rXXbAgdUdjh1SFye73daUCjyeT+l64Z9j1mbZ7UPGfIwOSC/hylh0RGIVLxQ+UTz7m7kyL40EgcAg2V1cT92Q4dy9e9z0E8J3mjWcOxidkdKsTrK3ZiQ9mYuOSKyMJrK3RFldD1b75jq9NRIEAo/I3l2w9nEnb97bCo+hq2Nj2h3oiBSGyD7Iz3rrT+iE5MqUfsD0h62+u1CvjQSB4SvMX7FJd9Z29PY9TfwayHslrn05J7vlio+6fJsXdxZdHRtDf2wL4rmRIBDo/ab5azbpQDWHA/CwibJf71lWLWnbBLOFLzrJuwudkFzjNqOrY6PFtp8u1oMjQSCwU3ZD3vXNHU/Au5YK32mWXgad0KUmyW7NblnHvN/e2zFzhbee/vkGe0+OBIElZdabv26DymU6n4FXpV4rfFl8FzHFS3lXeFQPFqAjkqvHc+jq6E159+cHTHtzJAgEcq5MMH/lBg1lk1Kl2nXQ1bFxsi06om/NFT5RvMwzm7PdV/MmdHVslLq8c6ZXRwLxZ5pZpbiwTql9O3R1bKxuhY4ocLEFOgS9jm3QCckl/rvO0Jt/cc3eHQkCgWzZTY+Td3OzjdIw4VPHDfdh8xnUBZ2AjcbSptblyNmBLo6NLiUd0uTlkUD8mWbVm6e5l4XHLBkifOp42V9x4bQVvmAoaav87hwoaa/KnsO01uwtcf+rt0eCQKCJ7NgH/tvNMLwlpTG6OjaumokJJudd9J3buKk0JhgveEH2l1MreaHi89nrI0GgmvAOjQ9y6lgppga6OjZWINZItpH95cZaMw8QikcsuhddHRvblbOXnh8JAoF+fc3fg0mlLrgciIfUzEJXRy9P9Q3KMcJP4rBGeO6UN/dMlX425Wtj1Bfvg5EgEPjTJ+bvwqDkCpw6VrpmP7o8emsuupnGJOm/ko7xTDKlUQ3R1dFbtlN39b4YCQKBWx81fx8GvV/yJA19bfp7q9Dl0SsX71YUsVcmo29W72XuJFPaNg1dHb1m55dor98nI0EgMEH250mXc5BUPEF6U0HrrDsfgM1no29Ur8vvXYnBkyY/ga6OjVqzbO7ANyNBoLPwl3Q841VNfJPSY4WOZxAvvH1x2bqOR+BZuevQ1bHxov2Hj39GgkCgQPaZZlYnvmNVekz4b+vkGc7ef9uq6DvUSxjLuS6lhcJf6rUOpi2In0aCQCBTdpPSrnd1w2Uj3OCHhXfZ6f6Sczef0rMX+va0+rB1ito/hK95mP+RfoLge/4aCQJpzcuavyGDKvNUD6VZtRajy6OX1duZG+82txn61vTacU+MkvR10P2fzQnuRnw2EgQCsTtkNynl/ky1RW+jq2OjVH0H7nrXGfRt6Y2c6MBN+8Sk5ejq2FgX9I85340EgUDuQ33M35Q5STzfUi1e+F79PY2mG77jorXoe9Kbf3dQ7xaiUs4B2f0NrBdD+DHnw5EgEOgtfEnXgSB/sEWjvbJf71n7N5q827jr0Pdj40Y+qkpz5qOro9flq1Duxpcjgfimx+ztrla8W/hKjLdqmrrVqZvQ92Kj7+XHmdCP7shHV0dvdojHsPp0JBDf9Hi8mCMS5SlcJ/r1npW0vJ+J2xz8iPDuBFmaLjXRLvtX6OroTdkR6qpfv44EgUBqB/O3ZlJVGUckipQtfKfZlN3VIr7HbbIbpFgjhxkopE8VCt/FGs6POf+OBIHAfw6ZvzmTBByRKNZO4b+9qzeJ7P5uFj7WdVxqpo5+VPyF8PeXvwnn/aWfR4JAoP0fzN+eQQ3PowMSbI7s13vW+M/Dv7fO9dBXb2MAz6ZUaiJ8TcOZXWHdlr9Hgq9/g8ueOt7yGDoguVKln2l2NC7MO5vbFX3penW4zlnp+cPo6uhN+SLMG/P7SBAI7JO9gfMdTsspiT/TbPPUMO5qXnf0Zet93N54IX1j0Vl0dWw8GfZqL/+PBIFZPc3fo0k800ztT+3Q1dFrGPIJXqVvQ1+z3rRtDpTRJ8ZJX/XboCj8m4uCkUD8d8vk3ezzqCR8Z0iIb2WFP4nW6FFO1dEH9glf9RvZLqWoGAkCgfaVzN+nQdWPp6ETEmvJHOEHuKwNupNUygPl0RerlcCJYrXHhK9mK/9uZNvBo2QkCATmVTZ/pwblB9NCPEqlDkBXx8bWxKDuQ/pEcfjvmP3v5nfQ1bFxX2KEdxg1I0Eg0FT2+ZZD2fpXqXYddHVsbB5new//ED5RfJuxJhr+M1z6mWTvRD7LH0UjQWD4MdFdDFq+7vwRiZ41Rngb+Ib36A8hmin8+luEtwg9KnSbMAJdHr3DJlrXRNNIEAh8+bH52zWIU8ca0ncd65qUthLenWDKbsF/tGjXyH6vbKo7bnSNBIHAFbLLWp3Hhqu1WY8uj96//qa48Obp6EvTq2Gko54//ekTdHX00k31KYi2kSAQmJBn/pYNuv0cOiC5coSfR2e9XdKu42HCf8xkcYJAqV8pdHVs7DC22iv6RoJAofDpn5PhNjGIAhek/2V26nzZFT8vfCfZqeshhfSEnLHCzySr809zNxuFI4H46QJrk/1KlKiVPRRdHb2uP9t1XFv4ycxTvpD/1woj/W1kO6NtQaJyJBA/XcCtnhrn/o4uj173Hj9e6kH0tdjgBIHati3o6uiZbgsSpSNBINBU9jafR7ehAxKsyRp0efTaTf72MtucQl+I3lu9wXUUrPRb6Oromf+uGLUjQWDcU+Zv3aQNX6ITEmyl7HHcemhR4AbhDZN4Jpla3C3o6th4YJbxe47ekSAQSNxq/uZNeqY+OiG5pr6Cro6NM+gL0Bu9D11BuTpLbzlap4oDdx3NI8HXvwFlN6bLm+GhLN226Gl0ebyr/IdsNadSPEN2VxprfLwj9x3dI0Eg0EP2ueKn2ARA7dzt6PJ41KH/oEsnV93q6OrozW/u0I1H+0gQCIwabT4Cg8Y/jw5IsDbCzzoW6Q88k0xpovBdgNaAyFpPa3AkCKR2MJ+BSW8nohOSK0d6w2pxKs9D10yu3m+iq2Ojalvnbp4jwddi7ksyH4M5i1dzp5lS7TtF106Y9H2D0QUTq/460a2KLauLiZajShwJvvUn2buOGz6CDkiwot+gy+MZ76agiyXXiWR0dfTSlzp7/xwJvid8S+FzL6EDEux64Us2ZUiqE4MulFw9ZDcdsBLedXq1F0eCHw2RPXWcFfRxudGnWPoXOgH+wJajSpOlTxD0re14BhwJfpLaWHbT4638TqdU/3XhL3nBpt2KrpBcw6VPEFw1xoUUOBJcKqaO+ThM6ml+k7lvfCn9ex1QM1PHmfiR8PPNrdtfcCUGjgQ/11721HFXNilV2yZ7lyBOB04UK/Xojq6OXlmndpJdjiPB5YRvLhl5KzoguQY/LHuqByKJLxXVJrdDl0evayPXPk05EvzSHNmfJ5w6VptVC10daT7h06I0fAW6OjZecXEjEUeCEqReaz4Vk5zcauh1cSfR1ZHkuR72iUWtlcInCE4ucjMNjgQlqv2G+VxM2jwVnZBc5w6jqyNFQ04Uq10Ufo7QwK/czYMjgUJRA/PJGNT1rorohMTKaF4WXR4JFrv5bsFr4oV/XZj/aprLiXAkUMm4+L75bAzaf30GOiKxcp6dgi4PXNVEdBXkKjiKro5eQmPHWo4qcSRQq3al7M+Tw84cWeELtWtEd2O6w0XoCsjV+bcL0OXRe8OJM8nscCTQqX2n+XhMOlmATkiumlno6uCcOs3fiyrFB/egy6PXADOIcyTQ++wD8wGZ1Gk4OiG55rVAVwcj+YSv/gTNai77na9V9jQoGI4ENjKayD7ObsTK6eiIxJreSPg6QSe0PFaIzl2uzHLo8uj1rwD79ORIYKvaDvMZmdRiIzohucTvHTLuqmx05nIVnEVXx8a6XFw4HAmCECN8d8FvuI9UKVv4MhGz8u9A5y1Xbil0dWy0642MhyNBUJ4fbz4nk5Y737/csz6XvTPEoNHsT6g2Q/gRFmfAB0xzJAhSE+G7lXa4vwLZM3YJP5DKkA5OH2vlYU3WoKujt6cpOiGOBMEqniF79VnZ41w5qDJ4X0d0eRx3JBGdslzt16Kro7egHn47OEeC4BW+bj4sk253uVOJl6ReK/s8ukg1+DM6Yblq10BXx8a9ceiIAhwJQpMtvJ25u90LvSX39Zbo8jjm/b38PagSu0N2pwBrWSY6om9xJAjNHcvMB2ZSJzYpVcq+F10dZySMjUVHK1dd4fN7HdugE/oeR4IQLVk623xkBnVt2g0dkVyZXdDlMS/pyX7oWOUqEr6TrPyHYmb5ORKELLWx7FfOz72ETkiutLtlj+Ohq1QTnalciVXR1bFxi6CDRTkShCHmkPnUTOJOM7WU1ejqmLTmenSecs3ajK6OjbWPoyO6FEeCsLT/xHxuJtUQ9GVDmrbXoatjypSx0fC3FqYhsk8jt9Y0Ryf0cxwJwjRP+G6lxmJeQMqTeTu6OkYs5wSBkvQ/z4Td0j4mORKETfiXjo5z0AEJdtz7O81u4ytApdKfoKtjY528QZwjQfhSd8ieOh45EZ2QXDmN0dWJzPsX0QnKlbgVXR0bZyX2i+VIEIlJ68zHZxJbFKv9sy+6OuFLOBhFf2QhGvcKujo2xsvYSXY5jgSRGeNAgCat47ElSv/1Gro6YVp3AR2dXI26oqujd2YXOiEFjgSREn4MUt4X3ICq9LuB6PKEod0YdGxiZZwWfmDpaLn7PjkSRE54x9vqwpariXLcazvNOPmj9tVhdHVsdGiFjkiNI4EJE2Q3rB7PJqVKsQeFn2DyM6OHoPOSS3xbqb6iN/lwJDBiaifzOZo0tACdkFz1j6GrE7Ses9BhiXVB+tmUG6BnU9rjSGBIW9mnZS+o1xmdkFwFwqf9v/eG6O+UUMUV+qOrozftanREdjgSGCO80eWIRhXRCcklfNr/G5W4k0wlQ/hMndXwkcHojGxxJDAnrYzs6ccz1/M8E5WM+6ujy6O15VZ0QnKVFj5RvKCeFw4N4UhgUuq75c3nadDhInRCcsUKfsEwe8gSdDxixdyCro6NB2eiIwoKRwKzEo+YD9SkqhKOTBWq33J0dUqW8GwOOhqxUnqiq2Nj2b/REQWJI4Fpzwv/rcrzLdW+3ICuTglKyetWJkYb4Z0Em3mnDSRHAuMyjq83H6pBDe8Ru88R77Et6PJc5kW2jlLKFH6o+OJaHlr1y5HAATnXmk/VpO490AkJNkpSs/Hx59BxyFUwFF0dG08vQkcUCo4Ejqgi/HzLtVySqDSr1mJ0eb5X9jgXe6mMq7cAXR69w/HoiELDkcAh8R+YT9akQ4nohORadBJdnW8k3MjegUpzhbccXeO58yM4Ejgl47Ts7S7lH0hBRyQXfpdg0vJcdAhy9XgUXR69VTO89yHIkcA5xbtlNzfr2hSdkGBtsLsE/9AeHYBcYz6GlsbeJi92duFI4KT66/qYz9egkbeiE5IrtkIerC6PDkPfvVyFD8n+m7KOerPbI0cCZ4lcoX6JPwjvkIiUux1Tkzz+VlMqriD7d7bUsyntcSRw2s588xEb1KdUfXRCchUAWt73eWY4+rbluij8TLJTTTy72osjgfPmNDMfskHJC9EBCZbZwOVq3MQJAqWiSi4XI0SrVnr4s48jgQtmrTafskn7r0EnJNjGMy5WYs316NuVK0b4Hh3rWCE6okhwJHBFW+ENE7M4XaA0/YRbZ5NOuZF/Oyo5jRNcqkKYvH4sIEcCl0jfacbpArX6K1wpwaHa6BuVq0y6KyUIW75XWo4qcSRwzUXZO82SJ6ADEmzya47n/38e607gpt/DN/rppZdBJxQ5jgTuqdhohPm0DXruVnRCgu10tu/lSDYFVCp40dHoIzblgB/Oj+BI4KbOnczHbdLHX6ITEmyOc01KOy5F35xcuaUci92MOv9ER2QERwJ3xb1tPnCTvL3+wVmz6jmTecIOP3yndEas8I4t/mkLwpHAbUWyzzTb48HmWa6Z2c584C3XsdWcSsbx6uYDN+lR/7zU40jguoxd+82HbtCp057dJ+m8Yd0Np73BG+edQ2SWMxy2YV3vGYyOyByOBAAVJ8ieOvbaIRtumn6wv8Gkp21D349c2b8yGLQDFnzqqxPBORJAjNtkPneT3o5DJyRXv76mUl51D/pe5MpdZyplhxz12Y85jgQgcVXNJ2/Qgk3j0AnJNcbIssaWnXz1ndKo2CtN/vJyQP4gdESmcSSA+Wyt+ewNGjEXHZBgz/8r4nzfuRl9E3K1WW/gAXaQH3aSXY4jAdAu2T129+9CByRYj5ERZfvoRPQNyDVR+ESx9cAsdEQO4EgAtVD2aukGn6EDEiyCVjgN96EvXq7sqww+wE441BYdkSM4EmC51NwsbFsT0QnJlbMjzFBr+fE7pRmF0ieKb/8cHZFDOBKgudDcLCIdUtAJyTUpnGVERxehL1ss8TuKZ9dFR+QYjgR4f3W2uVmkmj3so/0zprUP9RittY+jL1msjObCdxT3rxCLzsg5HAkkGCL7fMuRw9ABCTascghJTrsCfblyDbrdqefXkHUX0BE5iSOBCKkdepkvhEFZY9AJyTX4fMcgU9zfJA19sWJJbz1ttctGR+QsjgRCtBV+Smtf9klTSm0cTIINuUFDqXC7089vhPJ9v+qXI4EYzzcwXwuDEsb6+CVppCY9aZsfFwwpFZ8QPlG83oc7yS7HkUCQurLPt5x9HB2QYPH6ZuNcMKTWpKxLD3CYEnxxJpkdjgSSFAtfRTfwHDohwcqozzRb9gL64uT6TPZPYctaPgkdkSs4EsgifWfN2QJ0QnLNUjSYZctRtUThZ/hZT0TLWgmOBNJkO3AulkEtj3HqWCmxTtIvA1vBlqMqKU/JXjJnbbkaHZFrUCPBf5y+MQ+bKHunWcKV0fDaNExjLj9e5arJ6EuS6+GukAc4aKObohNyEWYkGPSWdV0/52/Os+aE39zMDelz0AEJdsWl0/4NfNfG3pyQtuQhrI6qPiuIkaDg20Naku9y4/48KieoFeo4lbnrWKn4QML3KT03D30tcvV+E/oA2zsbZcf2uT8S/LSJpHv0vIQLXRAr1KGy2D9HqX69bxJqNgp9HXL1E74wwrr9K3REbnN7JCieseeS/5RNDDTaZ5mvjUk861jtfxv06RRV7xZCEltB+NmU69tkoDNyncsjwdLL9049xJUoarcKf5P6aWd0QnIloi9ALuktR62oXBLh6khQpoTTGhOejcbYg3VevVtJgryD7EBBoXn+7+in1sahGHREEC6OBD0eLfm/n9/G1Tv2llaK3UpSVG+CToi8JPEI+om1cVtpdEQgro0EmZpN5ex/r9G2qvkSmfTB8+iEyCtSH0A/rTbO7EJHBOPSSPDl5RtuLsOpY43MLuaLZNItVdAJkRekLQ32IAeQrnd1Q2eE48pI8L9v2P+rJ6Ojz1N4lso+08x6l3M9ZOeFcujH1MbqqG4L4sJI0O+ZBcH8s4TGqZAEPEH6mWbzX+VpXKSzyIFPGqOibSfZ5RwfCVr1DPofpi8FheAFbU+ar5RJA6NuKw4Fb6rwhQ9Wg3h0RGhOjwRzQ1oGOW0bKAYvODfQfK1MOhnlX6pIaVRD9MOpd+oiOiE8Z0eCbd1D/ccfc+pY7SPhM248oJFKsE2xfFyKvBlspO/sSFDwYDj/nEenq+UMMF0ssxruQydE0mRvQD+VNrZzp/w3nBsJOm+3/09LFB3HhoYp8ZDRWhmXPxGdEEmSWwr9RNo4OxMdkRBOjQSxM/LC/z+kl0HHItjn482Vygkb+H6Pvhe7O8H+gUHq8nt0RGI4MxK0OhFhk6mBPOFD7fTlbfyEYVdB+pb0VnNl2SrlJ46MBPevivz/8iKPTldbOSLygB2UcCUb09E54T9eV63kRPElHBkJzPx/akX1lj+9zsLXZ8/m+70oF3cW/Qza2MSJ4p8RPBJYDecORscjV9x1hlJ2yLJMdEKE07lTUH0FcKpy88tlJI8EljVyGzofweI13V0l4Pu9qNVI9ttL7igugeyRwLI2TEYnJNiuMwaTdsD2QnRCBNBE+IqGKG49rSF9JLCsdcPRGQk2V/Y2/uSDnJSLNo//C/3U6TWci05IJvkjgTViFDokwcZtNhu2aWu4UC+qxAk/V8nqNA4dkVAeGAksa9pj6JgEk77rmO9ko0fnTYvRj5ve04noiMTyxEhgWe9wT7ha0U3mAzeJZ5pFh+IZwieKu3A9m9LF+ebzdmIksKxjnH1Uu76FE5Gb04GHEPlf81Pox0xvdnN0QnJltnYicWdGAit5Nzeuqs1IdiR0Uzpyp5nPnTuMfsZs3MiPD5X6NZyJ3KGRwLLevz8DnZlc9V/v41DsZuSzk5SPZb+Ifr70kmrwmHSVlMb9HUrdsZHAsrq8gI5NsMlvOpa7EQ9yrsenctehny0bn7RHRyTXCecmdxwcCSxraDY6OcGunuZg8pFb0IlbQ3wo50qnvlMaUvkadERyDarsYPCOjgSWtY49j9WEHxg7oik6IDKtzXr0U6U3gjvJlP7H2Zd6Do8EVvJCdICCTQ33pDiX7N+ITohMemEZ+omycYy/Q1WmOr0r1emRwLLO8ONEbZEDW0RMWluETohMCe+kche9zC6IKsUOThB8z/mRwLJuK40OUrAXHFkcbE7VtuiEyIRC6WcUD/wKHZFcbVw4T86NkcCy3ohBZylYmY5ulCB8m9n8xfsWRnBSuRvW10UnJFfpD9yogDsjgTVlRw46T7lSD0xxpQjhati0Gzoiioj0jujJ/HhQGl4qyZUauDQSWFb6HHSkgk3q61IVwsQm8V72mfBTkqy+XGGodI9bP+ZcGwksa9kwdKqC/ddrrtUhLDdxrsejYm5BPzs22nEnmdIL5Vwrg4sjgWVljUEnK9gfB7pYiTDckohOiEKX2qE8+sHRG8nvh0oFbrYFcXUksKw6nDpWa1PW1VqEbPUsdEIUoqXN0A+N3ujz6ITkGn7M1VK4PBJY1rvseawUe1B2k9Jm+9AJUSjukL6TbDWXpSk1WuVuLVwfCaz0fYPRIctVuKKl2/UISevfoROiYEnftWgdSURHJFbaXtdXe7k/EljWyCvQQQuWPdT9goTinZvRCVEwWm1CPyk21v4NHZFcOwFzhoiRwLLaTUZnLVi8e+sFwtHyt2wOI96S88InCLguWa0oC1ERzEjAJcRaF9dgihIkNimVTnoLk1Ur0QnJ9euqmJqgRgIrb0YxOnO5ig/K7iL/XA90QqS26F7086G3oFNndERizfp0AagqsJHAslrwB6Jav4fc2WMerqze6ISoZLNqLUY/HHr3suWoStoQ3Es94EhgWf/3ODp6wXq3A1YmCMv7oROiEgyRffyRNf736ITkykS+1IOOBJZVpwo6fcE2dofWxk7CF7HohOgyL2xBPxV61ZujE5Ir5hC0NOCRwLJ6cuOqWlOXd5eEqCxbCYsy5h30E6GXXIHfHVRirwQXBz4SWOnnudNMafh22TvNysWjE6If5Jbqg34ctPo8U4iOSKyMuu+jy4MfCSxry9XoQgg2eQO6PHqc/5Mh51nZnUqsdtnoiOQqOoyujoyRwLI+ZmNatasfRZdHrx7XBOLNmY9+DPTy2aZEKfFtdHW+IWMksJKWT0LXQ67BD49G10drxISK6Iii3EThrebWl0lDRyRWas9e6PJ8S8hI8LUDPMBOaZzwJjL7N6ITimZ/Er7e2HqWf9pKYvqGyxkJrI5l0FURbNFRdHn0KhWhE4pWMXXQtbfBn/tq26ahq/MjQSOBZbU+h66MYJ+PR5dHb2siOqFolNIBXXcbb/KcQqXSb6GrcwlRI4FlnW2Lro5gwhvTWbV47ojbRkl5t6AwkssClRK3oqvzM8JGAst6l+8U1VbK3mnWcC46oOiyU867hRKNnoNOSK5xm9HVuYy4kcCa3yYDXSW5OtdDtSoMTuV56ISiR7bwieIFm9k+QKViU3HtoeSNBJZ1eya6UILFnUWXR6/BZ+iEokPn7ehK2zi6CB2RXLsEvueVOBJY1ttsTKeWKXzq+O1EdEJRYIbs94TWo39EJyRXe0kTxT+SORJY1gBOF6g1KYsuj95qTh07S+J3ykutugedkFy5fdHVKZnUkcDqeDe6ZIIVH8xD10drD8+3dFBpyDm3Iag3FR2RWLEHE9DVURA7ElhWF04XqHXuJHvqeP/1nPd3xqT7ZJ9mZ22YiY5IrIy98JajSoJHAss6yUkntYKh6PLoNXgenZAfxd6IrquNkY+hI5Lrbw3Q1dEQPRJY1qZW6OoJdk741PHRX6MT8p26wmeIuo5CJyRX26ro6mgJHwmshufRBZSsufAPhu256IR85VwXdEFtdOIEgcq41eji2CgOPIG+BBtbJqKLKFjslVInoL6TfJDnFZoSJ6KNvQYPLVKb2xVdHRt/+PoiXzqFvgob79yMrqNgF5ajy6O3vg06IX8Y1wldSRu3s32kUo/n0NWxsea73gDF7wnfptLydb5lUJPedaDLTnRC3jd4ruzDiqzqx7lWTKV9JXR1bKxaWPzDtQ6X/oUjgYddaOzMR9dHj4eTRmjbSHQJ9RLG8iWgSswhdHXsbB5+6fUm1uiDviC92UMGo2op35Kls9H10Urq2w8dkYdlC99J1qcUf7KrVDsgeyLP6vNk4uXX/KXwlwzWSPa5VEs9gC6P3pSxxfY3QSUoLIWunY0NX6Ijkkv6ql/riRKLd80Z9HXZ4BGJGtL3nq45zTfJoSv+QnZfEas1d5Ip1ZS8k+wb3V9SXHlxhSnoa7NRNc7VUnpLTeFvERrEoxPymoyLwtf1zZ6zBJ2RWP2EfzWz+n8xXX31teugL8/O9kL3auk5G1ugy6N3iN3GQ/GZ8E3kVuNUdERiFe+W/q16uc3c3WcfoK/QRvIX1dyppSdNEP4yYQA/O4IVI+uc21+qMQkdkVwX5baa+85vatrfxN716Ku0Ub2u85X0rOH10OXR6/gROiFvSO2ArpSNrNLoiOQS3zf8/V1B3Ue1K9EXaufvnztcSi/LfhBdHr1y/0Yn5AFzOqLLpHfmGnRCcolvCzLlYNAL+WpLn+ywrmvrZC09bpDwTmUvsoO9XuY0dIn0uq7sho5IrM6fLkaXRy/EzT1F0ndI9+o5y6lael/a3bJ3mi34lE0r1QqE/6hb8ClPJ1Upln7AtJXVO9R72iV8HYrVbB93HSulNpa9t7FrU36rLFnu6y3RxdE7ypXcKmnHpU8UV1btINApXim865WVz10talWELz15bhg6IYlynu2PLoxeOW4KUfrrQHR1bHScWzG8O2v1oewvlpb1Jne6q0l/w/fJn9AJibNU+ERxWS7bU2r/Mbo6NpKvjGAJd+529OXbKVXfXC19R/qqZrvNLVFmXmV0QfSSd7PlqEo/6e2hrE0R7smNOyR8GVHeDPY2Uyr+QvbLhv4VuE3wB9J/wrU8xu39KsW7Zf+dWX3uS4z8LqU/oVaLG9jbTKnfX2SP5O83YfG+ESf7vHPLOsmzKVXEt4cKY8FQyW6QfqMN2KRUjY3p5CvcvgBdBr21LJJSkfiWo+b6+ctvp8TeZhriG9NF+TbB4i+S0SXQOxNcc4KoVKUOujo2khcavd9+T8p+yWCV/5C9zZSmn9iDro9WrweiuHgZp9eg89dr9gj3fqjkCN+3Y/V5xviSmtLSpwvS55i+ZR/J7Ysuj170Fq9oLTp7G9zMr9Z8Pro6Nj5x5AjxXdKnC7r80Ynb9onewqcLWv8OnRBCbeH7//osZ+tppfhl6PLYUJ5JFqli8U1K37nZoVv3gyuEL1ePvuLl7EBnbuO1/0JHJNeio+jq2Eie4eDdyz/TbMVwB2/f6+4Sfo7NsVx0Qq5qI/wkkC38ja00bjO6OnZKXXA2AfFLplZN0JzOGe06b5LdMrf/jTnoiFwTL/xsyvQhPKNYZfAjDdHlsVHJ0A4CjYy9ZdF3aaM7T9FQi7sFXR692UOio8Ns2+vQSev1eooTxUpXCD8/wmrhzrLfnCuFb622soI4pDNqSV8ENrIHOiHnjXuqFzpmvaejfIuHTrbwtRfWHvca8OQ+0wd9t3pJT9Z2KwsP2paPro/eWp9vGa94l/B3C10y0RHJVSj9s2/Bbzu7mYf0w3Kt5BvZ20xpyd3C5yqf9nOTm+u7o+PVm18mDR2RWMUHhS+6APSHypS+mLb6/extppQzVvYT3XKFX5cRSd9JVv7d6Jm0D9kNwvu2WIcR/aHSmldH37eN8fyRqya96Vn/g37sNh53Fp2rjbfZwEuptPBB3GpxGvTlN/YL6Y3pznLiS61A+KfSqYvohEzr3AmdqY3bn0dHJNekO9HVsZH3HjCdC+JP6nkqinub2Xpe+OaQ3/hqDZj4d8yz96IjkitnALo6draD99T2fgKdgI1mH2EDkm2X8Befy/2zBqy58H04PJtSo0w6ujw2XhawxmLiFnQKNvIHoSMSbHqjVej6aCVf6Y81YPGH0UnqtVzHsymVxLeaWyZkRnSf8OXR1tFF6IgEG74CXR699XXRCUUu7m10ijauykZHJJf44glq6d5qNToMO5umojMS7MuP0eXRW/s4OqHIiJ8obn0HOiK5xkkvnnWtqGW/baWPm6vuQUckWQ/hm53ejkMnFIFGsg+Mk/SVUp6mXdHlsVFD3AES0tvZWFseQ0ckWLe7RqDro7V4k6tb6A26fj86O70pO0R9pZTlaulzoFmOnEkWqR4j0bnYeG0MOiLBhq9Dl0dvxEov7jR7XPr3ozrivlLKMWYDujo2lu1ER6QweEhHdDZ6LV/nAgm1ycIf/BZNvNY+JOYQOjMbWfxupNT59Zbo8uiVldwfKvVAMjofvbwKXDStNlF43/VyQhbLBSfn3QR0YHojb0VHJFfFE7JXV8v/JMstJbxpa/XmgkdStMGPCJ8ge9Ezqx3T7p6PDkuv4T3RcSZQWP4hfHZnwXYPvN0Y8xo6JhsDudNMrfN2dHlslPJGk9JzA9FB2ejEddVKRTehq2PjXgE7ioPxmPSp46Ge+WYJMPNldHn08jzQpDTuXnRKNu718rJchyUKP+DVyvfOS9JuK4W/ZOPUsc6gLuj66K0RPnU8bvNidER6yxBd7D1i3CvCDxZtOHcJOqNQ5EpvUpo8VviEC9TdzdD10Tt8Dp2QRlPhzVfSy6ATEqyR8Ikya4XnNtbUlL6SmlPHGqkDyqPro3dS6uuNf1RGR6OXMIA7yVQyTgtvzWtlTUZnFI4mwtvwcupYp8ob6PLYOCbxy5H4nWSH/oOOSK5zwvvFWqeuQUcUpmrXoqOzM3QmOiPBHhd+WN+IpuiELhdXFZ2JjUpF6Ijkyh6Kro6dsfKXSij9z9Po9OwcA5/0I9r1p9Dl0ass6juS+Jaj+zeiI5JL/umLWz1+aJP0EzqsVe9VRGckV/EM4QcuZvVGR/SDio1k9/Czuk7gg64yXfrBolal0uiMIrdR+HY96wy/Kqld6Isuj42+/dARfWuj9LnGThKnVYS45gy6OjYe7YGOyIiK0pfVWWt9MOA6Jrsdujx6/XfjX5+WFj6lYp2VutRKgN5Z6OrYSH/YN31Bxm1Gh2mnaiI6I8F25qPLo7emCTYf8S1HG3AnmZL4H71WzxR0RiYlbk1CB6pXvkMqOiO5lkhvN34Y+FGXc63wlqMtTsveko00faHwCYKkJ313gIT4M83Sz3tqF7e7Uj8UvtMM1ZMr7dX16FvXW7UQ//JMrGuEn9pqtfPlARLbhHe/t6ZJPQJIgirSX4GUugBIRXzL0WNssKXU/hN0dWyIPZMsYnOlTx2/48nN3C4p+g26PHrJV7rdR6HgKPqebRz9tcuJeEh96TsIRn+EjshB42qh47WzgjvN1DauQZdHb/0cN9MoXIG+Xxtb/u1mHB4zYw+6PDY6zEJH5KxF0ncdr5owHZ2RXBUnCN8+le9aK6nig8I/SjrO4byX0g3SdxAciUFH5LzM8eiUbXR/CR2RYJ3rLUDXR8+dVlIZ9wv/edTrAa6FUxK//eNwdPSHymguvUlpVk10RoJJfznespPzL/gyy6Hv0sZ1bR3PwLMS30ZXx8aavVGz7DfnRnTYdpbL6GEg01fCzzQbMcHZ+18k/WzK2z93NgAvS+mJro6NBA+czmpQ7RrCd5olV6iGzkiujCbC341UdvAF36xaws+mrH5/1HylDNngh4Wfxpf0l1x0Rm4r/Qk6dBvV66IjEqx4RjK6PnrtnFoPvE/4R4l1I7/CKA2TvqXp4/boiBB6CD/nj+1adMQvx17nRPPNr1qjb8tGDY93sXdS74/R1bExchs6IpSmwhfiWVsT0REJVvAyujx6q+4xfcdtpZ9J9klUfqUMTr916OrY6DoKHRHQuNXo+O3U8lUjQMMGCW9SuuwFk3eb8hT6fmycEXWEmyzFFaagy2OjQyt0RlhxwtckWqPPoyOSrK7wBcEnzfXlXyp8gqDrXGO36j/SlziwLf7XiqSfb/noMHREgsVW6I+uj9biemZasO1chr4TvcWbxhm5T18qaoAujw0elfWtjBukn/xXia9f1XLX9UHXRyvPQGO6AuHntpn87eM7Vd5AV8fGmV3oiMQQvybROhQFbUDCNuYddHn0Okb4gm/4MfQd2Dj8vJlC+lHOtejq2Fi1Eh2RKIXS/9isxuzjovaC8Db93S9GcHMrV6EvX696JDfnd83no8tj4xibH1+mQPoW/tkfsbejUtrx6uj66IXd02vXfvSl6/WvEGu0kr6SKbwvinWUb/VKEC+9rZd/jxAyILaC8BNhjySGcVfSu1a2fIZnkim1ld4BH3n8tmwX30fXxsabvjxW1JAL0ncdbw51xXai9J1k79zsSCV9YWondHVsrOFbPTX5U8cr6qMzEixb+K7jrk1DuZuUDujrtZHPM8nUGgnvX5A3I6pajoaucEVLdI309jTimWZq0hv3Pxr0Ntxu94xGX6xe9TZpTlbS2/4hvKdZy+1OdMXymZlD0WWywU39OtJ3Hd/2eFC30eM59IXqJXOiWK3oNnR5bLhzsJ73nZN+vuVtPNNMrdqz6PLYqGp/nlfRb9AXaaPUBRcq6VGJh9DVsTH+HDoiz8g4vh5dLb2kJ3mmmVrtO9H10St/rb6Ff+It6Cu08WC2S5X0oJSevdDl0Vt/nAcJhSCncXl0xfSSx/JAEDXpjV7W/EN97eNWC/8oKZfpXiG9ZvBc4X0Cyw+IvPdJlEk8gi6ajepN0BFJ1kT4TrNPvlRc+NyG6EvT41F6GtuEz+6Et6kl6n1+O7puNj5guxe1ajvQ5bFRI7GEq951Bn1Zelx7qNH+LXR5bNz+OToirxLfNIRDvEbtGujy2Oh0+f7cz4TvKLaOcUex0qQ66OrYmN8cHZGHiZ8uKN+BjenUalZC10dv1dxLW0klXoe+HhtPs0mNUuyNwvekln+XEwQRET9d0GwpOiLJrhd+VlSXHzu/jJPenOBfnyELKZz0XSx8e2CA+OmCkTzTTK34C+Hf1Y5817pnn/CJYp5movG59Jajt3O5lxHHZ6MraWMD13erXdiOLo+NUqmBIuHnK/CMYg3xb/XSj6Mj8o3YCsK/WHLPp072i+jy6FW/D30FNh4ItYlqFGn1FLo6NhJu5ASBQYWvC29M1383l/epSW9MJ9oRnpyqtGRfOro8en1K5aIz8hvpXyytNXu5i1wpo670oyekCvuwtWjw2DJ0eWy043tjBwySPi90mBtH1GLFHz0h0ey96LoJln0Vujw28v+IjsinMvYKX5NoVU1EZyRY4Xbhb/jESb6RraeVCtf1QddHrywPkHBO8ULpXyxfGYfOSLCZZ9Hl8ZS+k9AFkyt2rPBPguSDHMUdVXgMXWIbDbngT+PcYXR9POMmHoKhVld4g0MuJnRBwVF0lW1U5plmavLf8MnQXdM3O+rFS1+KxgMk3CH+TLPflEZHJFgxp45t5TVCV0mwAunvGLu8gI4oamScboGuto1DieiMBOPUsV7LYzzuXKlzpwXo+uhV55lkbio+sQpdcb1ePVPQGQlW8DK6PoJxDbpaxfeE/93nVeBEscs61xP+3WD0qG7ojATjrmOF/MfQpRFM+kFCLV/nARIAcU+jC2/jUTYpVcuoy6njX2r28BL76KJVkfDjLjhRDBMvfU1iJU4dqxUf3IOujzC9VvOVolLtO9HlsVGOraeBLp5C19/GoSroiASrXwpdHlGO8kwypWrPoqtjo3pddERRruJ7I9DPgF7CtWxKq1YwFF0fMcrF28cVrTLuF76TjBPFAgyXvuuYJ1nrDOLU8TfK8iulWvzf0eWxwdbTMszcgH4SbIznG0S1tDbr0fWBm7KDXymVqryNLo+NdpPREdEPfpePfhpsnG2LjkiwnBuje9dx0n1sNaeU8255dH30nuMKQUkGjxJ+InmvnrPQGQmW+5ckdIFw1rZHxy9XWpn56PLo7WnEXUPCTP1U+E6z9DlcKq42JgtdH5D9G9HRC5Yp/HCqPs/UR0dEvyR+uiB/EDoiya7egq4PwKoTFdG5yxV3El0eG1m90RFRybY9in42bBydiY5IMulv+MzbzlZzSimr0dWx0YK/5gR7RHiDKqveVHREgrV6AF0eV718MzpwwZoK/1qQfAKdEGlNrYd+RGysugcdkWRtq6Lr45rxX6HDFmxeZXR5bJTiBIF4M9uhnxIbI69ARyRZvPRjiMzofgO72CuJXz7ACQJvmCh9d0E7PkhqGeLPqI3c6KZce6hUWKoPuj56PFnUM5acT0c/LXpcfaZTzec7zRI+ZMtRpeIv8tD10RsxgaO4h6R2EL4zMe9gMTojwfo96d+dZn3+wh3FShmnhTcXXlBvHDojCk3MIfRDY6PFLnREktWU/qo4XL8ag45WsNLSDxy5l43DPaj0WvRzY6NSEToiyebtR9fHAdxcqJEovdUcG4d71UbpHyZ31kZHJNj0hcLfGIcsfQgbjiil9OyFro9e2TZc7uVZFRsJ32nGc2x06j8kfBVJSBY/xSaESoMfboauj17ys2wc7mmdOwlvTLe+TRo6I8F6+2e64CQbk6ttE950Kmk5z6LxvJln0Y+RjYH/Rkck2bwW6PoY0fr36CAFG/MEujw22rFxuC8MEt7b1vpVNjoiyU54f3dBs7vRIQqW+xC6PDZG3oqOiEy5KHyVsrWca8zVLvRFlydC3EmmFjs2AV0evdlL0RGRQcXv7UE/UTYap6IzEqy99F5SOjWqoOMTrHlZdHn0Eq7kkg6fGffKYvRTpdfx/GB0RoJdMQ1dnzBl8RWzWnw5dHn0+pTiRLEPJUrfdTyNZ2OrDR41Gl2fMORvQ+cmWNxRdHlsDOX8nU+VroR+tmxUKo2OSLCUp4RvPfqF2Ty6Wq1zPeHru8tloiMi51whfN2ydUsiOiLBEo+gyxOK5AN8xaxUsdEIdH30WjThjmJfGzxnNvoZ01u8mWfbqhVJb1H2oz4P8RWz2vXC+8CMeK8iOiJyWs4O4cvWRqxERyTZRukLgr+z4Ut0UII9Lv0tbSeeNh4VckuhnzQbLS6iIxKseIb0BcGWNXIiOiXBEreiy2PjUCI6InKL+HY2bFitIX1B8OyPOFGsJL7l6Hi2no4qL1VGP3F6SWxYrSF5QXBCY04UKw2eK7zl6PrjnCiOMtMbCX/JkMClJxpSFwQn1WDfELVhI9H10eMoHpXqvy68+z0bVuuIXBDMHcUa7aW/k72FfUGi1GTp7Wy6cHOL2pKP5qPrc5nneqAzEWzSfUno+ug14ARBFLu1O/r5s3F0EToiwXKeRZfnUnuaovMQLHUAujw21u9FR0RQ3VYK3+u4eDPXNqvVriHli+aC345DhyHXEun7ORMOVENnRGjDt7dEP4d6DeeySalaTRkvnx8sQAch2GPL0OWx8QYX6tHXJm9AP4k2HuX7Z42N+Dd8I/+IDkEw8WdTfvAZOiKSQnz3+4/ZvECjaVdocdJ5qpXapOXQ2th7nxv66SeD9wnf8dLnmfrojASbugnX4XgKT5tTy3lW+CHUebuL0RmRLK0eQD+UNpIP8plVK3gQVJa+fMWsVmY9qCrBWncBHRHJ0/Zt9HNpo8UudESS7US84Ws3Bn3bgmV2AVQkFFk8k4xKFN8A/WzaYGM6jW53rXK5HOV+h75nwdqedbkaocpnw1hSybhBevd7NqbTGP6Mm/1DqrMZiFrqh8Jbjjbbx7XZpFE8Iw/9jOqxMZ1Ob9ca0yXfGIu+WbkyXpXWCOQyvXqmoDMi6TzQmI6Nc9V2rXGjBklP8mxKtfjxbtQgAkcS0RGRF4jfaTaejenUYg86P11QiS1H1aoccTz/yBzmbBsFaaLEjseXerotOiLBhm9yNvwz16DvULAc6a3myp5GR0QesuQj4S2zFj81C52RYHEOLggesbIb+vbkymgufAfBHu7KodDkHJiCfmr1mg3hablqTp1p1uf14ehbE0z6BMGC7Z3REZH3/LMv+sG1seyv6Igku9WJkxLf4gSBWozg06W/dfbX6IjIm8ZIP9Nsw0x0RIItOW+6l9QpbvJWS+lZ3nDchpXjmWQUtsdao59fvQWf8hwbtVm1FhvMesqzfMWsNHiU8BaOa+py7TVFoo3wqeOuo9AJSbboRWNBH/kP+mYE2+bEqziD8jhRTJHK2SF86njkNnREkg3KNxJyVmn0jQjWXsa5cUqcKCYjxB+28SbPsdGYE/l7i4E70TchWO06kT/BjhrKiWIyRPrUcZ/XeY6N2qyekXVD29+Er5iVxK+25kQxmbRT+KHcPMdGJ+5k+Mk2m4u+esnaCG81x7MpybAlH3VEP9V6p07zm6tauKemsGmlzu+En0XTvwK/H5FxKdLPtzx8Dh2RZMfDGcm3/g/6sgXLvsr4I2zWun7oiMifqkjfRHmyAB2RYDm7Q21SyqaVGoWvt3TkGTYmiyeLkmPiP0A/3zY2cb2cWufVoUS5pgn6egUrnpHs1CNsxpl56IjI1zJ2tUA/43qr3uOrUbWYUsF+ke26siL6YuXKOC38lNeG97BhLDmseKHwb0Nl+V1Wo6BqUCGuHoe+UMGeF95ylNUjV+SuQz/pNhpwCbXGV+VsA6zKg4DU2gY3luIM5WwZuUT8+ZZV49ARCZa2VL+MKJ8DqVrK6si26TluGatHLto2Df3E2+DUsUbqU+rgut6DvjrJRnV17xEOx/wy6IQo2hhoZ+Oortwbq7HoQUVsfXkmmZr0lqPWgRx0RBR9WnVAP/c2KvNgFY2J3UuI7OzN6MsSbMzHrj/CoakRg46IolPMVvSzb+MTHraoMeHyNx1vcSeZmvh1EjxZlHBKr0U//3pJ901CRyRYyoBL+2ieegl9PYIVV+gPe4iD8hyrR1C71qD/Bmw05qtTtUk/fdEdUA19MYI1Lwt8goOwpyk6IYp6FVeOQP8d6M0vk4bOSLDsb6eOWz7EsynVig6jn2G9xa9wJxkJ0Lke+k/BRrl/oyOSbGd3K4unWqn9z9vo59cGN8+QFAVn0X8NNl7ktksNTjWqpfZEP7s2xv8ZHRHRT+LtWxhAteSh3hS6JefT0U+u3imeLEqyZOwVPnW8asJ0dEbkMdLPbM37go13SZzi3cLP9t5/DToi8pKb30E/sTZK5aIjIipJv75J6D8Ovaya6IjIK6b+VviZZO0moyMiUumdhf770Ev6C492pSB0u0v42uhHb0VHRKRzzX7034he/93cQUV2bn0U/ZzqjVjJM8lIuOkn9qD/TvTWXORyC9KZ3A79jOq1XMGGseQB9Z/pg/5b0WvATmukVH+d8Md3AycIyCOkTxdYh6qgIyKZxP+kHbkNHRFR8HpURv/F6JVnYzoqwbySTm0QpGvTweiIiEIyIQ/9V6PXcQg6IZKm91vop9JGvanoiIhCVbgC/Xdjo/VEdEQkSe5f0E+kjXd4ohx5kvQ1GFa7bHREJEXOjmT046i35Wp0REThmpiP/vvRa/l6IToikiCtzHr0s6iX/jAnCMjDlnw0G/03pMcmXhQIZApvNZfwbio6IqLI5BwQ3phuzV7uNItu2b9CP4N6SffFoCMiitykvsK36pSLR0dEOIWvC281l8WThMgnxkifOj7JAwCjVPEXwlc7529DR0Rkzu+En2m24FOeaRaFMuoKP19p9pwl6IyIjGojfHHGiJXohMhtmYfRT52NA5woJt+JHdsf/Yel1/0ldETkpriT6CdOr8/ySeiIiJyQu0763BzPNIsaKa8sRj9ueu3GoCMickr2UPTfl17Scp5pFhUGzx2Nftb0ujyGjojISYOE7zpOrsAzzfzv6i3o50yv40ecKCafW7K0I/rvTO/909xp5m/Zwhc19+rAiWKKAqkf9kL/rek14E4zHyuUfibZdW3RERG5o+3b6L82G7fwTDOfqjhD+Jlk4/k1hKJI/Hj0X5xe+QH8ge5Hu86gnyy96vfz1SRFl+Zl0X91eh3LoBMi0/67EvqpsvEslytQ1Kl2pfCjQZZloiMik2LeQD9Rekl1aqMjIkKoXSMJ/denN7QAHRGZkvJAefTjpFeJ2xopatUU/nO95XY2pvOFwQ83Qz9LemeuR0dEhDRvP/pvUG/ViYroiChit05DP0d6eTN4ch5Fu/eEN4g/1QSdEEWm/R/Qz5CNdRfQERHhdd4svBfY2tLoiCh8k+6TPhuVjY6ISIa4I+i/Rhu3JKIjovCkNk5APzx65bhCjehHRWvRf5F6vR5IQUdEoVsyZzb6ydFbU5c7yYguNU/47s9mo9AJUai2LUM/NXp5JzhRTHSZbtJbxm/Zho6IQjFzA/qJ0VvQiUuUiUogfvNPVnt0RBSs4b8VfkDe03HoiIikirlT9jqPpPt4tKwndFs5Av2s6B1my1EijfZZ6L9RvQQ2KfWAHs+hnxO9/bs4UUykt036yYLnB6MjIq3ewr9NdF3JfetE9s43RP+t6k0bhk6I1Po9hH4+bNSaio6IyBtmPSV81zGnjqUq3t0f/XDovbwIHRGRd8SdRP/F2qgTg46ISrBrDfrB0Gv9AjohIm85NxD9V2ujJ3cdS/OZ8J3q6TwHjyhUaW3mo/9y9WaXSUNnRJdIFN69qtcDXHZGFIYc6d3DurB7mBgpq3uhHwe9qm3RERF5VRXhR89aJzn/J8Jg6a1KxvNLA1EEihqg/4b1Fq+ehY6IxJ9Jtr4Nd5IRRSTjtPDlIM3OL0FnFOXGCN9JlnBtDjoiIu+rViEZ/best+x36IiiWe5y2b2qrDeqoCMi8od+fdF/zTaumomOKFrF7hC+qqDBZ+iIiPxD+guAlp3YQgAgrcx6dOX19m9ER0TkL8NGov+q9VY1QicUfSbmo6uut4fPBJFp4s+kZathd2W3Q1dcb/HmceiIiPwotfEU9F+33mEuGndN7kN90OXWq8ozyYgcMulJ4etEXsxGRxQdcp4Vvp7scBE6IiI/k36mWZ9nctER+Z/4ieIzN/BFIZGzrhY+TZi8g43GnPXXcuga6414j2eSETluyZCO6L91vY5DeL6lc6RPFC+o1xkdEVF0SB0gfDsRz7d0Sv1nhE8UP82JYiLXTKqB/ou38X9/Q0fkS+9Jnyjm6jEiV7WvhP6rt3GI7WZMm7cfXVS9NXs5UUzktluF7zou/y6njk3qLXzZWN7uYnRERNFo8Cjhx5N0XMqG1ab0+4vsrSR91hWiIyKKVilPCT+yMH8QOiJ/KN7dH11KvXbcUkgElPg2+jPAxoNsWB25G06hy6jXeic6IaJoV7QW/Tmg1/K3w9EReVxN4YsDZn/El4BEeNefQX8W6K1qNB0dkYdNulP2BEHCAC4MIBKhYqNV6M8Dve7z0BF5Vc4B2f1nk+pMQkdERD/o3GkB+jNBr1JNdERelHG8LLpwepXaoyMioksVHEV/KtioUxsdkedkdkEXTe/MLnRCRHS5QcI/NxIO5KAj8pTEs+iK6Y1Y2Q0dERH9UtqrwtvWr381DZ2RZ0jfKrKgE8+mJBIq54DwJqVduNMsKEv2paNLpTe0AB0REanFvIH+jLDxIj9C7N0h/DSi1hzQiYSTvg9pwadT0REJVyD8LJrZH/ElH5F887qjPyv0ujblVKNa5+0t0QXSYotZIo+YLn2n2XM90BFJ1a3RCHRx9A7FoCMiomAN/63sL5ZWVm90RCLNq4wujN7h0uiEiCgUMx9Ef2roJf2lHzoicaSfQ3fqIs8kI/KaP25Bf3LoTdldDR2RKLl90RXRS67AM8mIPGjJkGboTw+995vwO+YPYm+UfVh9Ut/66IiIKDytaqE/QGx88Gd0REKUqY4uhd5bf0InREThW3QS/Rli40hbdEQCPFYOXQa9/f9AJ0REkflK+KeMtXoWOiKwmh+jS6CXvBCdEBFFLO3ujujPEr2OS6P59MPEN2SfSdanFCcIiHwhtYPsvpZWftT2sen8ivDScOMHkX+0rYr+RLHx8iJ0RAjFC4XvKK78EjoiIjIpczz6U0Vvwaaoa0yXdnwNOnW9VY3YIIrIb44Lny5oeA86IXe9IH0qf0UhOiIiMi9nAPqzxcaj29ARuWeR9HOnn5iMjoiInFGljux1Kla7KPn4mbppATpqvfyJ6IiIyDn/fRP6M8bGulx0RC64pyE6Zr2u59EJEZGzrhF+jk3/sTnoiBy2bSQ6Y71ePVPQERGR06avFL50seyrfj4dcbLwsymtI4noiIjIDcPrCX9L3eWv6IicUn9dH3S4eoeL0BERkVt+LX7lyhh0RI44KLv1tFX2NDohInLToC7oTx29pOWT0BEZ94/96FT18g7yLBqiKJN2fD36k0cvoXEqOiOjamahE9Xrs447yYiiUM6N6A8fG+kfoSMyp99ydJo2XvsSHRERYdQWfnSuVe4cOiIziitMQUepN5I7yYii2BjhryysI1XQERlwwyl0jHqzP4rmEyKIKBCYuAz9OaSXcKAaOqII1ayEzlBvyrV+38tHRLaWfDQb/Vmk9/7FDHRGEYjZKrvXUx8fLtIiojDkHBD+FrtBTXRE4UrpWR4dnl6WPzduEFEYJi2X/cU16S+ePEy32z2j0cnpLeNEMRFdov0T6E8lveQKseiIQrZLeLO/9KXohIhImseETx2XLeOtBS5Fa9GJ6XGimIhKsGSp8Knj/CvQEQUvrio6LT0/dvMgIiNyDqA/oGz85m/oiILTahM6KRsf90ZHRERy1b5P9tSxVbUAHZG9tI/S0THpTfPQjysiQpC+D2rBCunnW8YLb/Pa8JHB6IiISLyNLdCfVXoJz0redVy7DjofG6vHoSMiIi+Y3mgV+uNKT+6u4+IrhW/SOxqHjoiIvGL49pbojyw9obuOpf+cWhaPToiIvGTyVehPLRvL+6Ej+oX2wg+rTy+DToiIvOavrdGfXHr9D05HR/QzicJbzSU05k4yIgrZkiHCF0PuvwYd0U86b1qMjkNvK3eSEVFYZq1Gf37Z+KQ9OqLvxH6Rh45Cr1IROiIi8q62W9GfYTYektCkdM56dAx6a3ahEyIibys6jP4c08v7ohic0Etb0BnorVpYEZwQEXlexg3Cl0aeugG5u6C38JOgW67oDEyHiHyjeOEe9OeZXgPYW/Dhz/RB37zegx7o00RE3lC4QvhOszeqIGLptlL4ZuxlmYhYiMivCl5Gf6rZGJDqeibbpJ9JNsf1SIjI5zKFn2nWcYi7LTYXbUDfsR7PJCMiJ8wRvtOs8jz3skh5BX23NmpwJxkROSLnWuGdNrNc2mk2eO5o9K3qVRKy5Y6I/GhSDfRnnI0aMS6kMKwy+jb1znAnGRE5qqbw9fNWz1kOJ/Dlx+hb1Gt43uEAiIgC26ahP+v0OpZJc/DuC4XvIOi1OsXBuyci+sGorujPO73WXzl157EzktE3p7c10albJyL6uZQPy6M/8vSqtnXittOOv4++Mb21bDlKRC6KuVP2uSy9PjS/0+x3A9F3pbf/euO3TESkVfo36E8+vY6Gz2r8L+E7yUasNHu/RETB6PEo+tNPr4vBrjuTlsueKF7w6ThzN0tEFLxu0jdYHV1k5karPSt8S93TcWZulIgodCnSz7esZWJ3QV3hZ5KNZ8tRIoJKPIT+HNQbPSrSxnRFDdD3oNeiCfKkHiKibxTdhP4s1Bs5LJK7q30n+vr18k6gT+8kIvrGNWfQn4d6b44J985yrkVfu41Nw00WkogofNKnjvv0zQ3nttLKCJ8gOMmJYiISJKVnL/THolbylbEh35P0s3kOxztQSCKiCCRuRX8y6pUNcadZwb3oK9Yre9qZOhIRRaJ0JfSno14o57sXrmiJvlytVQs5UUxEMknfdfyr7ODuI3Z3HvpStRZ06uxsIYmIIiC9YXWpC0HcRN2y6MvUe7HA8ToSEUWgcz3056Regu3U8bly6GvU2/KCK4UkIorATOFNO8u20Z1p1k/4nulm+5a4VkkiovA9Jvx8y9Y7lZd+UHiruU2tXKwjEVEk5q5Cf2TqvVbyruNdldEXpmeqtyoRkRumblqA/tjU6tN30i+u+Y4P0Fellz8IUEgioggUHEV/ctq4Nudn1yv9TLKGQ0CFJCKKwKB89Ken3vpXf5o6TvlU9k6yxUYOWiAict/5huhPUL2B576/0I86oi9FjxMERORdrTajP0NtHIn5+ip3PYe+DL3x52yDJiISTHpjuuSm7begr0Hv/b3oGhIRRUp6YzrZ9nzBVnNE5AfDRqI/T72q5YpCdPGIiMwY/HAz9GeqJ73MVnNE5CMpH5ZHf6x6TjmeSUZEPhNTJwn90eopa+pmoEtGRGRce04dB23PQU4UE5E/3Sq8w5sY2zlRTES+NXhfOvpD1gPu5UQxEflaKqeObXCimIj8j1PHOpwoJqLowKljlTzuKCaiqHGr8PMtMVoe40QxEUUR7jr+paGcKCaiKJPSgVPHlyqXia4IEZH7qhxCf/rK0fE4uhpERBjxXdCfwDL06pBjHxYRkT+lvSr82EhXHG2LrgMREVJqz8XoD2Kw/EHoGhARoS16Gf1ZjNRw1BJ0AYiIBBgUtWeatfztVHT4REQyDJ7bFf2ZDNFuMjp5IiI5pm5vif5Ydl33HujUiYhk+TLKpgv2TEAnTkQkT2Y59Keze3qtHoeOm4hIooyLZ9Cf0O5IujMGnTURkVQV72qI/pR2Qbv26JyJiCRL6ZCA/qB22MCd6IyJiKSLebIP+sPaQWuap6EDJiLygDFXoT+vnTLiBM8kIyIKzr9boz+zHfEKFwwREQUtban/mpS+uAidKhGRt6Q+0Av90W0UW44SEYWu7dPoT29zRu9jy1EionBk+uRMswWbZ6GjJCLyKn9MFwzlBAERUQS8P13ACQIiokjFeXq6YPQcdH5ERH4Q79kmpb1qpaDDIyLyh4y976M/08NyXSI6OSIi/4jd3R/9sR6yw0Xo1IiI/CX3GW81pjt1OgMdGRGR72S3Q3+6B2/PQbaaIyJyws5l6E/44LQ8VoiOiojIt0aloz/lg/ByNjomIiI/y9mRjP6gt1EuE50REZHfyZ46btGEE8VERM7LHor+vFfp2qgiOhwioiiRKXLXcS+eSUZE5J6Mi2fQn/u/cCgRnQoRUZRZOQL90f8zWaXRgRARRZ+pny5Af/z/6Lke6DSIiKLTonvRI8B3ujbtho6CiChqDRJwvuXiTZwoJiICSju+HjwQnIxDZ0BEFO1ynp0CHAfKxaPvn4iIAoHaNVDjwPq66HsnIqLv1GyAGAfKv5uDvnEiIvpBxt6yrg8ET1dB3zUREV0qZ0B5V8eBfLYcJSISp+3T7o0DDR9egr5dIiIqQWa+O+NAy99ORd8qEREpPDLahYHgtcno2yQiIrXUAU7vLhj/R/Q9EhGR3qS+Tp5pdqouzyQjIpIv+0GnxoER7xWjb46IiIKSediJcaBXLbaaIyLyjibvGx8IeCYZEZG3FO/ub3QcaFCEviMiIgpVv+VJxsaB6vdzopiIyItqVjIzDkw5UA19K0REFKaNZwwMBFtro2+DiIjCV3wwOcJx4IO/oe+BiIgiU79UJDvN1pzmBAERkff1zgp3HEgey51kRET+MOy5cMaBpOX90BdORETGTOga8kDwcU30RRMRkUkp14Y2dfwBW44SEflObr3FQY8D0/7BiWIiIj9KvC+4Xcfvl+HZlEREfhXMMqL+u7lgiIjIz+bt148DSU9ywRARkc9NX5inGQgqccEQEVEUuFBKNQ6s34W+NiIickfNBiWNAwk72HKUiChqZOxd/4uB4Loq6KsiIiI35VTY8/MJgnj0FRERkds6v9Lrx3Fg4ET01RAREULioe/Ggfebp6EvhYiIQEr/39cDwdhY9GUQERFQm6z/oC+BCOz/AzKAxre1C9EfAAAAAElFTkSuQmCC;" vertex="1" parent="1">
          <mxGeometry x="870" y="232.04" width="70.55" height="75.93" as="geometry" />
        </mxCell>
        <mxCell id="ii2s9qY_NflXiKq1x3v7-9" value="&amp;nbsp; Databricks" style="text;html=1;align=left;verticalAlign=middle;whiteSpace=wrap;rounded=0;" vertex="1" parent="1">
          <mxGeometry x="870" y="182.98" width="80" height="70" as="geometry" />
        </mxCell>
        <mxCell id="ii2s9qY_NflXiKq1x3v7-10" value="&amp;nbsp; Power BI" style="text;html=1;align=left;verticalAlign=middle;whiteSpace=wrap;rounded=0;fontSize=14;" vertex="1" parent="1">
          <mxGeometry x="1068.99" y="292.98" width="111.01" height="87.02" as="geometry" />
        </mxCell>
        <mxCell id="ii2s9qY_NflXiKq1x3v7-11" value="&lt;p data-pm-slice=&quot;0 0 []&quot;&gt;&lt;br&gt;&lt;/p&gt;" style="text;whiteSpace=wrap;html=1;" vertex="1" parent="1">
          <mxGeometry x="830" y="320" width="150" height="280" as="geometry" />
        </mxCell>
        <mxCell id="ii2s9qY_NflXiKq1x3v7-12" value="&lt;p data-pm-slice=&quot;0 0 []&quot;&gt;&amp;nbsp;- Chargement des données Gold (Parquet)&lt;/p&gt;&lt;p&gt;&amp;nbsp;- Filtrage des indicateurs utiles&lt;/p&gt;&lt;p&gt;&amp;nbsp;- Pivot des indicateurs en colonnes&lt;/p&gt;&lt;p&gt;&amp;nbsp;- Création du vecteur avec VectorAssembler&lt;/p&gt;&lt;p&gt;&amp;nbsp;- Normalisation avec StandardScaler&lt;/p&gt;&lt;p&gt;&amp;nbsp;- Clustering avec KMeans&lt;/p&gt;&lt;p&gt;&amp;nbsp;- Sauvegarde des données Gold avec clusters&lt;/p&gt;" style="text;whiteSpace=wrap;html=1;" vertex="1" parent="1">
          <mxGeometry x="820" y="340" width="170" height="220" as="geometry" />
        </mxCell>
        <mxCell id="ii2s9qY_NflXiKq1x3v7-13" value="Pandas&amp;nbsp;&lt;div&gt;Jupyter Lab&lt;/div&gt;" style="text;html=1;align=center;verticalAlign=middle;whiteSpace=wrap;rounded=0;fillColor=default;gradientColor=none;strokeColor=default;" vertex="1" parent="1">
          <mxGeometry x="37.24" y="470" width="66.38" height="30" as="geometry" />
        </mxCell>
        <mxCell id="ii2s9qY_NflXiKq1x3v7-14" style="edgeStyle=orthogonalEdgeStyle;rounded=0;orthogonalLoop=1;jettySize=auto;html=1;entryX=0.421;entryY=0.659;entryDx=0;entryDy=0;entryPerimeter=0;" edge="1" parent="1" source="ii2s9qY_NflXiKq1x3v7-13" target="yIbgnXVg3pHGpFsTLpNO-5">
          <mxGeometry relative="1" as="geometry" />
        </mxCell>
        <mxCell id="ii2s9qY_NflXiKq1x3v7-15" value="" style="rounded=0;whiteSpace=wrap;html=1;fillColor=#fad9d5;strokeColor=#ae4132;" vertex="1" parent="1">
          <mxGeometry x="150" y="670" width="860" height="140" as="geometry" />
        </mxCell>
        <mxCell id="ii2s9qY_NflXiKq1x3v7-16" value="Security" style="text;html=1;align=center;verticalAlign=middle;whiteSpace=wrap;rounded=0;fillColor=default;strokeColor=default;fontSize=18;" vertex="1" parent="1">
          <mxGeometry x="340" y="680" width="460" height="30" as="geometry" />
        </mxCell>
        <mxCell id="ii2s9qY_NflXiKq1x3v7-17" value="&lt;p data-pm-slice=&quot;0 0 []&quot;&gt;- Authentification via Microsoft Entra ID&lt;/p&gt;&lt;p&gt;- Création d&#39;une App Registration (Service Principal)&lt;/p&gt;&lt;p&gt;&lt;br&gt;&lt;/p&gt;" style="text;whiteSpace=wrap;html=1;fontSize=14;" vertex="1" parent="1">
          <mxGeometry x="160" y="710" width="402" height="140" as="geometry" />
        </mxCell>
        <mxCell id="ii2s9qY_NflXiKq1x3v7-19" value="&lt;p data-pm-slice=&quot;0 0 []&quot;&gt;- Génération et utilisation d’un client secret sécurisé&lt;/p&gt;&lt;p&gt;&lt;/p&gt;&lt;p&gt;- Stockage des identifiants dans les Linked Services avec paramètres&lt;/p&gt;" style="text;whiteSpace=wrap;html=1;fontSize=14;" vertex="1" parent="1">
          <mxGeometry x="580" y="710" width="400" height="90" as="geometry" />
        </mxCell>
      </root>
    </mxGraphModel>
  </diagram>
</mxfile>
